<?xml version="1.0" encoding="UTF-8"?>
<svg id="Warstwa_1" xmlns="http://www.w3.org/2000/svg" version="1.1" viewBox="0 0 198.43 283.46">
  <!-- Generator: Adobe Illustrator 29.5.1, SVG Export Plug-In . SVG Version: 2.1.0 Build 141)  -->
  <defs>
    <style>
      .st0 {
        fill: #6baee0;
      }

      .st1 {
        fill: #0c5faa;
      }

      .st2 {
        fill: #016bb2;
      }

      .st3 {
        fill: #4495d1;
      }

      .st4 {
        fill: #254093;
      }

      .st5 {
        fill: #4dbfd8;
      }

      .st6 {
        fill: #047ec1;
      }

      .st7 {
        fill: #56c2e2;
      }

      .st8 {
        fill: #036a95;
      }
    </style>
  </defs>
  <path class="st3" d="M78.33,136.24h4.39v23.46c0,5.64-3.84,9.73-9.88,9.73s-9.88-4.1-9.88-9.73v-22.87h4.39v22.32c0,3.66,1.83,6.11,5.49,6.11s5.49-2.45,5.49-6.11v-22.91Z"/>
  <path class="st8" d="M163.49,123.16h8.78v51.23h-8.78v-51.23Z"/>
  <path class="st5" d="M172.27,151.45h-16.84c-10.18,0-16.99,6.59-16.99,15.96,0,7.69,4.1,13.54,11.42,15.37l-12.81,19.91h10.25l12.15-19.33h4.03v19.33h8.78v-51.25ZM147.38,167.41c0-5.05,3.51-7.62,9.15-7.62h6.96v15.23h-6.96c-5.64,0-9.15-2.56-9.15-7.61Z"/>
  <path class="st0" d="M150.03,104.49v8.95h12.82v-8.95h-12.82Z"/>
  <path class="st7" d="M113.9,89.73h-15.17v-8.96h39.77v8.96h-15.17v88.62h-9.43v-88.62Z"/>
  <path class="st1" d="M106.39,154.53l24.08,33.16v-97.97h8.26v112.97h-7.43l-24.08-33.1v33.1h-8.26v-48.16h7.43Z"/>
  <path class="st0" d="M113.9,104.49v8.95h36.12v-8.95h-36.12Z"/>
  <polygon class="st2" points="75.51 89.73 98.96 89.73 98.96 80.77 46.69 80.77 46.69 89.73 70.29 89.73 46.69 110.26 46.69 122.13 73.27 99.13 114.4 135.03 114.4 123.83 75.51 89.73"/>
  <path class="st0" d="M47.05,126.79v8.95h48.95v-8.95h-48.95Z"/>
  <path class="st0" d="M172.27,80.77h-33.77v8.95h24.35v37.07h-66.85v8.95h76.27v-54.97Z"/>
  <path class="st6" d="M72.83,129.67c-15.06,0-26.13,11.44-26.13,26.72s11.08,26.72,26.13,26.72,26.13-11.44,26.13-26.72-11.07-26.72-26.13-26.72ZM72.83,174.71c-10.41,0-17.13-8.34-17.13-18.31s6.72-18.31,17.13-18.31,17.13,8.34,17.13,18.31-6.72,18.31-17.13,18.31Z"/>
  <polygon class="st4" points="47.05 182.84 47.05 80.77 26.15 80.77 26.15 202.7 98.96 202.7 98.96 182.84 47.05 182.84"/>
</svg>