<?xml version="1.0" encoding="UTF-8"?>
<svg id="Warstwa_2" xmlns="http://www.w3.org/2000/svg" version="1.1" viewBox="0 0 1535.85 222.12">
  <!-- Generator: Adobe Illustrator 29.4.0, SVG Export Plug-In . SVG Version: 2.1.0 Build 152)  -->
  <defs>
    <style>
      .st0 {
        fill: #fff;
      }
    </style>
  </defs>
  <path class="st0" d="M227.26,9.52c9.25,4.58,16.59,11,22.01,19.3s8.13,17.54,8.13,27.75c0,27.01-12.23,44.02-36.68,51.04v1.28c27.86,6.38,41.79,24.67,41.79,54.87,0,11.48-2.82,21.64-8.45,30.46-5.64,8.83-13.35,15.68-23.13,20.57-9.78,4.89-20.52,7.34-32.22,7.34H50.71V2.66h146.09c11.05,0,21.21,2.29,30.46,6.86ZM121.2,88.15h48.48c4.67,0,8.56-1.64,11.64-4.94,3.08-3.29,4.62-7.39,4.62-12.28v-3.19c0-4.67-1.59-8.66-4.79-11.96-3.19-3.29-7.02-4.95-11.48-4.95h-48.48v37.32ZM121.2,171.08h53.59c4.67,0,8.56-1.64,11.64-4.95,3.08-3.29,4.62-7.39,4.62-12.28v-3.19c0-4.89-1.54-8.98-4.62-12.28-3.08-3.29-6.97-4.95-11.64-4.95h-53.59v37.64Z"/>
  <path class="st0" d="M440.5,222.12l-9.25-30.94h-76.87l-9.25,30.94h-72.09L353.1,2.66h81.98l80.06,219.46h-74.64ZM369.05,142.06h47.53l-22.97-78.15h-1.28l-23.28,78.15Z"/>
  <path class="st0" d="M739.06,106.33c-7.23,10.85-17.76,18.82-31.58,23.93l48.8,91.86h-79.11l-38.92-80.06h-26.16v80.06h-70.49V2.66h134.29c15.73,0,29.19,3.03,40.35,9.09,11.16,6.06,19.56,14.25,25.2,24.56,5.63,10.32,8.45,21.53,8.45,33.65,0,13.4-3.62,25.52-10.85,36.36ZM672.4,58.48c-3.83-3.83-8.51-5.74-14.03-5.74h-46.25v40.51h46.25c5.53,0,10.21-1.96,14.03-5.9,3.83-3.93,5.74-8.77,5.74-14.51s-1.91-10.53-5.74-14.36Z"/>
  <path class="st0" d="M913.23,58.8v163.32h-70.49V58.8h-72.09V2.66h214.35v56.14h-71.77Z"/>
  <path class="st0" d="M1017.21,2.66h189.79v52.63h-119.3v30.3h102.07v50.4h-102.07v33.49h121.53v52.63h-192.02V2.66Z"/>
  <path class="st0" d="M1396.15,2.66h87.4l-78.79,90.27,80.38,129.19h-83.25l-45.61-80.38-38.28,31.26v49.12h-70.49V2.66h70.49v93.78L1396.15,2.66Z"/>
</svg>