<?xml version="1.0" encoding="UTF-8"?>
<svg id="Warstwa_1" xmlns="http://www.w3.org/2000/svg" version="1.1" viewBox="0 0 320 320">
  <!-- Generator: Adobe Illustrator 29.4.0, SVG Export Plug-In . SVG Version: 2.1.0 Build 152)  -->
  <defs>
    <style>
      .st0 {
        fill: #253447;
      }

      .st1 {
        fill: #fff;
      }
    </style>
  </defs>
  <rect class="st1" width="320" height="320"/>
  <path class="st0" d="M285,161.43c0,42.5-24.29,70.36-65.36,70.36-35.71,0-53.57-30.72-55-35.71-1.78,4.64-13.21,30-48.93,30-44.29,0-80.71-37.86-80.71-90.71M75.72,135.72c0,25,14.28,46.07,40.36,46.07,18.57,0,26.07-15.36,26.07-36.43v-45.71l-66.43-11.43v47.5ZM182.86,143.57c0,25.36,11.79,43.93,36.79,43.93,17.14,0,24.64-13.93,24.64-32.86v-36.79l-61.43-11.07v36.79Z"/>
</svg>