<?xml version="1.0" encoding="UTF-8"?>
<svg id="Warstwa_1" xmlns="http://www.w3.org/2000/svg" version="1.1" viewBox="0 0 1984.25 2834.65">
  <!-- Generator: Adobe Illustrator 29.4.0, SVG Export Plug-In . SVG Version: 2.1.0 Build 152)  -->
  <defs>
    <style>
      .st0 {
        fill: #1d1d1b;
      }

      .st1 {
        fill: #fff;
      }
    </style>
  </defs>
  <rect class="st1" x="0" width="1984.26" height="2834.65"/>
  <path class="st0" d="M877.37,416.12c-6.61.66-13.2,1.38-19.77,2.16,6.57-.79,13.16-1.51,19.77-2.16Z"/>
  <path class="st0" d="M985.86,411.2c-2.67-.02-5.35-.03-8.03-.03-1.32,0-2.64,0-3.95.01,1.32-.02,2.63-.02,3.95-.02,2.68,0,5.35.01,8.03.04Z"/>
  <path class="st0" d="M1000.94,411.43c-5.02-.11-10.04-.19-15.08-.23,5.03.03,10.06.11,15.08.23Z"/>
  <path class="st0" d="M1096.51,418.09c-5.14-.6-10.3-1.17-15.46-1.69,5.17.51,10.32,1.08,15.46,1.69Z"/>
  <path class="st0" d="M1143.11,424.68c-11.2-1.86-22.47-3.52-33.79-5,11.33,1.47,22.59,3.14,33.79,5Z"/>
  <path class="st0" d="M1158.44,427.33c-5.1-.92-10.2-1.81-15.33-2.65,5.13.83,10.24,1.72,15.33,2.65Z"/>
  <path class="st0" d="M1196.4,434.97c-4.86-1.08-9.74-2.12-14.62-3.12,4.89.99,9.76,2.03,14.62,3.12Z"/>
  <path d="M1980.1,1417.59c0,405.29-239.58,754.62-584.83,914.13v-674.45H437.6v612.25s0,0,0-.01C220.06,2132.32,58.72,1914.13-4.02,1657.27h441.61v-478.84H-4.16C90.88,788.52,413.05,487.58,814.24,423.73h.01l-376.65,755.43,958.93,478.11,404.96-812.2c112.62,162.53,178.61,359.81,178.61,572.52Z"/>
  <path d="M1395.27,2331.72v502.93H437.6v-565.13c155.2,97.86,339.03,154.49,536.07,154.49,150.54,0,293.35-33.05,421.59-92.29h.01Z"/>
  <path d="M1980.1.29v486.51l-178.61,358.26c-5.68-8.19-11.47-16.3-17.39-24.31-2.95-4.01-5.94-7.99-8.95-11.95,0-.01-.01-.01-.01-.01-3.01-3.96-6.05-7.89-9.12-11.81-1.15-1.47-2.3-2.93-3.47-4.39-1.02-1.28-2.04-2.56-3.06-3.84-.32-.4-.64-.81-.97-1.21-.92-1.15-1.85-2.29-2.77-3.43-1.24-1.54-2.49-3.06-3.74-4.59-3.15-3.84-6.34-7.66-9.55-11.46-6.42-7.59-12.95-15.09-19.59-22.48-1.17-1.3-2.33-2.6-3.51-3.89-1.24-1.38-2.49-2.75-3.75-4.11-1.26-1.38-2.54-2.77-3.82-4.14-.86-.94-1.74-1.88-2.61-2.81-1.65-1.77-3.31-3.53-4.98-5.28-1.43-1.52-2.87-3.03-4.32-4.54-.24-.26-.49-.51-.74-.77-1.55-1.62-3.11-3.23-4.68-4.83-.42-.43-.84-.87-1.26-1.3-1.83-1.87-3.67-3.73-5.52-5.59-1.96-1.98-3.94-3.96-5.93-5.92-4.62-4.59-9.3-9.13-14.02-13.61-.96-.93-1.93-1.85-2.9-2.76-1.11-1.06-2.24-2.11-3.36-3.15-.8-.76-1.6-1.51-2.4-2.24-1.02-.96-2.04-1.91-3.07-2.85-.82-.77-1.64-1.53-2.47-2.27-1.07-.99-2.14-1.97-3.22-2.95-1.67-1.51-3.34-3.02-5.02-4.53-.07-.06-.14-.13-.21-.18-2.06-1.85-4.13-3.7-6.22-5.53-2.1-1.85-4.2-3.69-6.31-5.52-3.75-3.26-7.53-6.49-11.34-9.69-1.88-1.58-3.77-3.15-5.66-4.72-3.85-3.19-7.72-6.36-11.62-9.49-1.94-1.56-3.89-3.11-5.84-4.66-1.95-1.54-3.9-3.08-5.86-4.61-1.96-1.53-3.93-3.05-5.9-4.57-3.24-2.49-6.51-4.97-9.79-7.42-1.12-.84-2.24-1.68-3.37-2.51-3.91-2.92-7.85-5.8-11.81-8.64-1.19-.87-2.39-1.72-3.59-2.57-2.51-1.81-5.04-3.6-7.58-5.37-2.04-1.43-4.09-2.85-6.14-4.26-1.9-1.31-3.81-2.62-5.72-3.92-3.76-2.56-7.55-5.09-11.35-7.59-1.34-.89-2.68-1.76-4.02-2.63-1.36-.9-2.72-1.78-4.09-2.66-2-1.29-4-2.58-6.01-3.85-2.1-1.34-4.22-2.67-6.33-4-4.24-2.65-8.49-5.26-12.77-7.85-2.03-1.23-4.07-2.45-6.11-3.66-.14-.09-.28-.17-.42-.25-1.57-.94-3.15-1.87-4.73-2.79-.79-.48-1.58-.94-2.37-1.39-1.52-.9-3.05-1.78-4.58-2.65-.75-.45-1.5-.88-2.25-1.3-1.29-.75-2.58-1.48-3.87-2.2-1.24-.72-2.48-1.42-3.73-2.11-1.01-.57-2.02-1.14-3.03-1.7-1.8-1-3.61-2-5.42-2.99-.39-.22-.78-.44-1.17-.65-1.96-1.07-3.92-2.14-5.89-3.19-5.1-2.76-10.23-5.46-15.38-8.12-1.53-.79-3.06-1.57-4.59-2.35-3.18-1.63-6.38-3.24-9.59-4.83-1.36-.68-2.72-1.35-4.09-2.02-1.27-.63-2.55-1.25-3.83-1.87-1.04-.5-2.08-1.01-3.12-1.5-1.23-.61-2.47-1.2-3.72-1.78-1.27-.62-2.55-1.22-3.83-1.82-.98-.47-1.96-.93-2.94-1.38-1.52-.71-3.04-1.42-4.56-2.12-7.79-3.59-15.64-7.09-23.53-10.48-1.82-.79-3.64-1.57-5.47-2.34-.98-.41-1.95-.82-2.93-1.22-1.44-.61-2.88-1.21-4.32-1.81-1.24-.51-2.49-1.03-3.74-1.54-1.05-.43-2.11-.86-3.16-1.29l-4.77-1.92c-.76-.3-1.51-.6-2.26-.89-1.96-.78-3.92-1.55-5.88-2.31-2.15-.84-4.3-1.67-6.45-2.49-.86-.33-1.72-.65-2.58-.97-1.72-.65-3.44-1.3-5.16-1.94-2.38-.88-4.76-1.76-7.14-2.63-4.76-1.72-9.54-3.42-14.33-5.07-1.84-.64-3.68-1.27-5.52-1.89-.79-.27-1.59-.54-2.38-.81-1.66-.56-3.33-1.11-4.99-1.66-.97-.33-1.93-.65-2.9-.96-1.97-.64-3.94-1.28-5.91-1.91-3.63-1.17-7.27-2.32-10.93-3.44-3.65-1.12-7.31-2.22-10.98-3.31-7.34-2.17-14.72-4.25-22.12-6.26-2.47-.66-4.95-1.32-7.42-1.97-2.48-.65-4.96-1.29-7.45-1.92-2.34-.6-4.69-1.19-7.04-1.76-.28-.08-.57-.15-.85-.21-2.35-.58-4.7-1.15-7.06-1.71-2.5-.59-5-1.18-7.5-1.75-2.51-.58-5.02-1.14-7.53-1.7-4.86-1.08-9.74-2.12-14.62-3.12-.19-.04-.38-.08-.56-.12-1.89-.39-3.79-.77-5.68-1.15-3.78-.76-7.58-1.49-11.38-2.2-1.91-.35-3.81-.7-5.72-1.05-5.1-.92-10.2-1.81-15.33-2.65-11.2-1.86-22.47-3.52-33.79-5-1.62-.21-3.24-.42-4.86-.62-2.41-.3-4.83-.6-7.25-.88-.24-.03-.47-.06-.7-.09-5.14-.6-10.3-1.17-15.46-1.69-2.61-.27-5.23-.52-7.84-.77-2.62-.25-5.24-.48-7.86-.71-1.97-.17-3.94-.33-5.91-.49-3.93-.32-7.88-.61-11.83-.88-1.98-.13-3.95-.27-5.93-.39-4.95-.31-9.91-.58-14.87-.82-.55-.03-1.09-.05-1.64-.08-2.44-.11-4.88-.21-7.32-.31-2.65-.1-5.31-.2-7.96-.28h-.02c-2.45-.08-4.9-.14-7.35-.2-.53-.02-1.05-.03-1.58-.04-5.02-.11-10.04-.19-15.08-.23-2.67-.02-5.35-.03-8.03-.03-1.32,0-2.64,0-3.95.01-.66,0-1.32,0-1.98.01-1.41.01-2.82.02-4.23.03-.55.01-1.11.01-1.66.02-1.59.01-3.18.03-4.77.06-3.91.07-7.81.15-11.71.26-2.39.07-4.77.14-7.15.22-3.52.12-7.03.26-10.54.42-1.52.07-3.04.14-4.56.22-7.02.34-14.01.76-20.98,1.26-1.35.09-2.71.19-4.06.29-1.67.12-3.33.25-4.99.38s-3.32.27-4.98.41c-1.72.14-3.44.29-5.15.45-1.35.12-2.7.24-4.04.37-1.91.17-3.81.35-5.71.54-6.61.66-13.2,1.38-19.77,2.16-3.29.39-6.57.8-9.84,1.22-4.92.64-9.82,1.31-14.71,2.01-3.26.47-6.52.95-9.77,1.46-1.62.25-3.25.5-4.87.76L1024.79,1.44,1980.1.29Z"/>
  <path d="M1752.01,779.52c-3.16-3.84-6.34-7.66-9.55-11.46,3.21,3.8,6.4,7.62,9.55,11.46Z"/>
  <path d="M1784.1,820.75c-2.96-4.01-5.94-7.99-8.95-11.95,3.01,3.96,6,7.94,8.95,11.95Z"/>
  <path d="M1801.49,845.06h0s0,0,0,0c-5.68-8.19-11.47-16.3-17.38-24.31,5.92,8.01,11.71,16.12,17.39,24.31Z"/>
</svg>