<svg xmlns="http://www.w3.org/2000/svg" xmlns:xlink="http://www.w3.org/1999/xlink" xmlns:inkscape="http://www.inkscape.org/namespaces/inkscape" version="1.1" width="2154.33" height="3004.72" viewBox="0 0 2154.33 3004.72">
<defs>
<clipPath id="clip_0">
<path transform="matrix(1,0,0,-1,0,3004.72)" d="M0 3004.724H2154.331V0H0Z"/>
</clipPath>
</defs>
<g inkscape:groupmode="layer" inkscape:label="Warstwa 1">
<path transform="matrix(1,0,0,-1,0,3004.72)" d="M0 0H2154.331V3004.725H0Z" fill="#4f7aac"/>
<g clip-path="url(#clip_0)">
<path transform="matrix(1,0,0,-1,1479.2595,814.88479)" d="M0 0C3.623 5.151-12.766 17.133-15.78 20.911-39.136 6.331-19.935-14.806 0 0M-2.998 24.97C-2.527 24.159 11.376 14.14 12.314 14.125 13.97 14.098 24.801 27.365 28.053 29.788L9.307 45.317C3.617 41.856-7.091 32.011-2.998 24.97M-63.045 7.044C-57.794 3.297-32.512 28.052-28.132 33.3-32.872 38.285-41.585 47.737-49.045 44.016-51.294 42.894-69.615 23.818-69.858 22.276-70.549 17.897-62.775 12.542-63.045 7.044M87.177 37.931C86.511 39.052 66.753 52.606 65.469 52.38 61.2 51.629 50.683 36.671 45.743 33.298 55.673 28.89 68.86 8.603 78.896 10.3 81.69 10.772 90.318 32.646 87.177 37.931M-12.683 47.642C1.87 60.245-1.943 64.509-18.804 73.435L-35.028 57.89-19.164 42.173C-12.583 40.103-14.783 45.823-12.683 47.642M59.701 63.092C59.401 63.45 53.913 64.137 51.028 66.57 48.391 68.792 41.305 77.154 40.412 77.154 38.823 77.156 24.777 60.591 21.162 57.89 36.442 38.893 40.181 39.515 57.481 55.843 59.934 58.158 61.641 60.78 59.701 63.092M-78.513 76.958C-80.455 76.619-101.231 55.837-101.57 53.895-102.281 49.817-88.352 35.803-85.537 35.313-81.518 34.613-60.418 55.615-59.931 58.373-59.134 62.887-73.876 77.768-78.513 76.958M-6.973 91.191C-9.817 87.135 6.183 70.98 9.286 70.437 13.612 69.681 33.831 83.663 22.917 94.815 9.131 108.902 6.336 94.964-6.973 91.191M-105.299 73.698C-93.141 78.078-84.627 95.671-100.119 101.765-109.899 105.612-103.732 77.616-105.299 73.698M56.717 84.694C57.25 83.775 73.99 73.772 75.038 73.943 101.521 78.264 72.9 122.743 57.981 94.734 56.361 91.692 54.816 87.962 56.717 84.694M-31.604 91.197C-52.878 100.566-47.235 113.091-66.64 89.505L-47.387 70.249C-44.111 74.342-27.975 86.075-31.604 91.197M37.623 133.024C8.888 125.564 37.683 81.043 59.647 117.607 53.433 122.735 46.816 135.411 37.623 133.024M-22.802 133.264C-24.518 133.274-35.259 120.035-38.544 117.607L-19.292 98.351C-15.963 102.889-2.106 111.954-3.483 117.501-3.784 118.711-21.555 133.256-22.802 133.264M-82.388 133.414C-98.911 116.474-95.952 112.513-78.995 98.358-58.885 113.684-59.761 121.635-82.388 133.414M61.483 157.91C35.338 143.396 66.322 112.58 80.705 138.684ZM-50.899 161.45-66.636 145.709C-46.8 115.252-20.544 141.781-50.899 161.45M9.286 164.777C5.024 164.033-5.535 149.111-10.439 145.71 4.712 126.795 16.875 125.268 27.866 148.739 24.199 152.917 14.731 165.727 9.286 164.777M-83.365 174.67C-94.91 163.625-73.509 149.323-63.253 170.298-68.375 177.791-75.951 181.763-83.365 174.67M86.07 182.53C73.215 170.521 64.932 167.162 81.104 152.983 91.326 144.02 102.716 156.336 101.577 162.755 101.057 165.682 88.427 177.748 86.07 182.53M30.32 185.894C12.795 182.913 25.732 160.122 36.899 154.596 58.869 162.208 40.188 187.573 30.32 185.894M-17.604 154.488C-6.799 176.113 5.035 173.566-19.292 193.066-40.998 173.701-45.915 170.064-17.604 154.488M-84.293 182.673C-81.54 186.28-98.063 206.936-105.453 202.073-116.437 194.847-106.844 180.829-98.312 177.082-97.333 176.652-84.751 182.073-84.293 182.673M99.701 198.887C92.152 187.411 103.464 170.534 110.556 172.084 119.816 174.107 137.309 212.193 114.497 214.07 111.644 209.709 101.737 201.981 99.701 198.887M58.205 214.089C54.367 213.22 43.543 198.141 38.718 194.888L57.971 175.63C60.704 179.331 77.15 193.1 77.136 194.89 77.126 196.238 61.677 214.875 58.205 214.089M2.264 213.952C-1.297 213.325-6.937 204.645-10.413 201.913 2.919 187.468 6.691 179.198 20.997 198.401 16.361 201.921 8.093 214.978 2.264 213.952M-63.173 196.581C-66.614 191.913-54.885 183.17-50.836 183.474-45.191 183.898-19.065 211.169-42.365 212.75-45.956 207.434-62.373 197.666-63.173 196.581M-52.656 221.198C-57.308 219.731-101.448 228.465-91.265 214.272-90.442 213.124-67.92 199.36-66.768 200.178ZM108.894 228.223 70.281 219.495C85.837 190.689 93.869 211.72 108.894 228.223M186.157 21.006 276.63 149.26C250.083 172.479 224.008 209.13 196.717 230.038 193.177 232.749 192.286 236.813 186.157 235.284ZM-115.905 200.173C-115.479 206.063-110.131 211.638-113.932 217.676-115.755 220.57-151.59 248.405-154.5 245.788-151.281 238.387-123.499 194.616-115.905 200.173M-28.072 249.371C-38.815 265.743-40.751 289.358-56.133 302.027L-61.581 252.543ZM-115.886 263.407C-114.076 265.115-120.807 279.461-122.318 283.28-124.276 288.225-128.34 300.27-133.391 302.005-137.296 277.42-150.109 265.202-115.886 263.407M115.778 267.125C117.198 269.073 109.993 304.268 101.908 305.536L87.824 259.909C89.639 258.523 114.927 265.959 115.778 267.125M52.731 252.889 38.7 305.513 14.073 249.371ZM-143.984 347.675C-192.011 332.114-198.912 300.796-152.724 273.944-141.591 296.926-144.008 322.943-143.984 347.675M126.478 273.935C133.229 272.872 135.869 276.697 136.968 282.729 140.143 300.151 143.304 356.287 115.937 354.7 114.438 327.352 121.33 300.523 126.478 273.935M98.182 361.579C89.064 359.235 60.309 374.697 56.748 362.963 54.108 354.266 55.334 311.929 56.273 300.328 56.718 294.828 61.689 257.929 63.254 256.346 72.86 246.626 83.46 276.86 85.258 281.759 94.59 307.178 100.633 334.375 98.182 361.579M-70.215 289.732C-67.823 311.539-70.215 340.653-70.215 363.5-70.215 374.791-121.099 356.58-129.865 358.165-135.792 352.007-112.341 271.009-102.027 261.431-96.71 256.494-87.702 254.387-80.585 254.307-78.916 255.614-70.662 285.656-70.215 289.732M-52.655 372.282C-52.704 345.578-44.129 315.446-34.263 290.564-28.944 277.15-13.258 233.627 3.148 255.009 16.263 272.102 40.562 343.921 40.783 365.057 40.815 368.05 39.365 372.282 36.9 372.282ZM590.032 477.665C448.711 283.049 315.041 82.377 173.889-112.109 170.416-104.113 136.99-90.096 136.99-87.889V182.593C115.6 161.788 104.442 122.08 101.925 92.964 100.496 76.447 104.31 56.904 101.079 41.118 98.318 27.632 82.813 11.484 80.635-3.439 64.885-6.599 50.189 21.476 37.444 20.279 28.308 19.42-2.702-13.909-12.268-21.089-16.41-16.914-41.769 6.835-43.877 6.844-45.612 6.852-50.446-1.99-55.105-3.223-65.52-5.98-91.236 29.599-103.625 35.029-112.662 38.99-109.973 8.308-119.347 6.973-118.276 36.723-120.862 66.925-119.529 96.678-116.745 158.849-101.299 154.386-141.102 211.803-170.756 254.578-242.293 299.602-178.848 349.211-129.097 388.111-24.198 397.794 37.035 393.494 68.234 391.302 97.733 380.655 127.415 374.892 130.974 374.201 130.703 370.076 135.306 375.794L133.704 728.601C139.231 739.647 175.973 814.889 180.89 814.889H235.325L186.157 728.827V358.231C232.253 350.151 280.437 355.574 326.73 360.211L328.376 224.762 530.329 518.061V814.889H590.032Z" fill="#0d153b"/>
<path transform="matrix(1,0,0,-1,277.6883,242.35767)" d="M0 0V-36.45H-48.601V-360H-103.051V-36.45H-151.65V0Z" fill="#ffffff"/>
<path transform="matrix(1,0,0,-1,457.6815,242.35767)" d="M0 0V-360H-54.899V-179.55H-97.2V-360H-152.1V0H-97.2V-136.8H-54.899V0Z" fill="#ffffff"/>
<path transform="matrix(1,0,0,-1,0,3004.72)" d="M551.726 2402.362H496.82704V2762.362H551.726Z" fill="#ffffff"/>
<path transform="matrix(1,0,0,-1,618.7723,251.80786)" d="M0 0C11.996 6.3 26.846 9.45 44.551 9.45 66.445 9.45 83.848 4.95 96.75-4.05 110.848-13.95 117.9-28.652 117.9-48.149V-110.25H65.25V-59.85C65.25-38.25 58.346-27.45 44.551-27.45 30.748-27.45 23.998-38.404 24.301-60.3 24.596-82.8 29.546-101.7 39.15-117 45.148-126.302 55.646-137.552 70.65-150.75 87.146-164.854 98.396-177.454 104.4-188.55 114.898-207.154 120.15-231.454 120.15-261.45V-292.95C120.15-312.454 113.098-327.149 99-337.05 86.4-346.05 69.146-350.55 47.25-350.55 29.546-350.55 14.549-347.399 2.25-341.1-16.649-331.502-26.1-315.45-26.1-292.95V-217.8H26.551V-281.25C26.551-302.85 33.448-313.649 47.25-313.649 61.046-313.649 67.796-302.702 67.5-280.8 67.198-251.402 60.898-226.505 48.601-206.1 41.4-194.104 28.646-179.853 10.351-163.35-3.149-151.052-12.305-141.3-17.1-134.1-24.602-122.702-28.35-109.202-28.35-93.6V-48.149C-28.35-25.649-18.899-9.604 0 0" fill="#ffffff"/>
<path transform="matrix(1,0,0,-1,154.3875,1331.808)" d="M0 0C11.996 6.3 26.846 9.45 44.551 9.45 62.248 9.45 77.246 6.3 89.551 0 108.45-9.604 117.9-25.649 117.9-48.149V-108.45H65.25V-59.85C65.25-38.25 58.346-27.45 44.551-27.45 31.051-27.45 24.301-38.25 24.301-59.85V-281.25C24.301-302.85 31.051-313.649 44.551-313.649 58.346-313.649 65.25-302.85 65.25-281.25V-210.6H48.15V-175.5H117.9V-343.35H99.45L94.5-317.25H81.45L79.2-322.649C75.298-331.649 68.548-338.702 58.95-343.8 50.85-348.3 42.146-350.55 32.85-350.55 13.346-350.55-1.729-345.529-12.375-335.475-23.027-325.427-28.35-311.252-28.35-292.95V-48.149C-28.35-25.649-18.9-9.604 0 0" fill="#ffffff"/>
<path transform="matrix(1,0,0,-1,379.8348,1645.4574)" d="M0 0C13.795 0 20.699 10.8 20.699 32.399V253.8C20.699 275.399 13.795 286.199 0 286.199-13.5 286.199-20.25 275.399-20.25 253.8V32.399C-20.25 10.8-13.5 0 0 0M-44.551 313.649C-32.555 319.949-17.705 323.1 0 323.1 17.697 323.1 32.695 319.949 45 313.649 63.9 304.045 73.35 288 73.35 265.5V20.699C73.35-1.801 63.9-17.853 45-27.45 32.695-33.75 17.697-36.9 0-36.9-17.705-36.9-32.555-33.75-44.551-27.45-63.45-17.853-72.9-1.801-72.9 20.699V265.5C-72.9 288-63.45 304.045-44.551 313.649" fill="#ffffff"/>
<path transform="matrix(1,0,0,-1,0,3004.72)" d="M180.938 782.362H126.038V1142.362H180.938Z" fill="#ffffff"/>
<path transform="matrix(1,0,0,-1,384.3348,1862.3578)" d="M0 0V-360H-57.847L-125.551-53.55V-360H-164.7V0H-92.7L-38.7-265.5V0Z" fill="#ffffff"/>
<path transform="matrix(1,0,0,-1,574.6824,1862.3578)" d="M0 0V-36.45H-48.6V-360H-103.051V-36.45H-151.65V0Z" fill="#ffffff"/>
<path transform="matrix(1,0,0,-1,675.4764,2185.4576)" d="M0 0C13.796 0 20.7 10.8 20.7 32.399V253.8C20.7 275.399 13.796 286.199 0 286.199-13.5 286.199-20.25 275.399-20.25 253.8V32.399C-20.25 10.8-13.5 0 0 0M-44.55 313.649C-32.555 319.949-17.704 323.1 0 323.1 17.698 323.1 32.695 319.949 45 313.649 63.899 304.045 73.351 288 73.351 265.5V20.699C73.351-1.801 63.899-17.853 45-27.45 32.695-33.75 17.698-36.9 0-36.9-17.704-36.9-32.555-33.75-44.55-27.45-63.45-17.853-72.899-1.801-72.899 20.699V265.5C-72.899 288-63.45 304.045-44.55 313.649" fill="#ffffff"/>
<path transform="matrix(1,0,0,-1,180.9383,2559.8577)" d="M0 0H17.1C33.896 0 42.299 10.947 42.299 32.85V88.2C42.299 110.096 33.896 121.05 17.1 121.05H0ZM50.399-5.4C69.299-6.603 82.195-12.902 89.1-24.3 94.5-33.3 97.199-48.452 97.199-69.75V-144.45C97.199-165.452 99.744-184.803 104.85-202.5H49.049C44.549-192.002 42.299-178.65 42.299-162.45V-76.5C42.299-60.603 40.949-49.353 38.25-42.75 33.447-31.353 23.547-25.65 8.549-25.65H0V-202.5H-54.9V157.5H21.149C71.845 157.5 97.199 135 97.199 90V56.7C97.199 41.695 94.197 28.8 88.199 18 80.1 3.6 67.345-4.205 49.949-5.4Z" fill="#ffffff"/>
<path transform="matrix(1,0,0,-1,0,3004.72)" d="M375.788 242.362H320.888V602.362H375.788Z" fill="#ffffff"/>
<path transform="matrix(1,0,0,-1,595.8338,2402.358)" d="M0 0H80.55V-360H32.851L33.3-72-27.899-360H-75.149L-134.1-69.75-133.649-360H-181.35V0H-93.149L-50.399-240.3Z" fill="#ffffff"/>
<path transform="matrix(1,0,0,-1,1005.1188,1970.614)" d="M0 0C2.935 2.909-62.877 45.396-68.46 45.397-76.173 45.397-156.098-.362-173.228-7.674-248.967-40-319.221-53.346-395.113-10.599-400.757-33.666-361.214-77.365-338.953-77.479ZM-607.564-302.135C-584.078-185.612-529.38-78.5-463.639 19.29-495.255 42.131-534.996 56.03-573.085 64.307-588.792 67.721-615.395 73.739-630.54 73.837-642.777 73.917-657.407 64.988-667.374 68.082-678.228 71.451-687.016 92.987-695.554 99.885-711.885 113.08-757.599 100.44-776.91 93.823-797.384 86.809-845.862 56.89-862.534 56.299-869.087 56.067-896.563 70.727-898.574 74.2-902.538 81.048-881.505 106.182-876.269 112.412-831.445 165.748-799.652 163.213-749.712 196.591-730.176 209.649-717.751 229.628-700.05 241.762-691.159 247.858-643.606 270.647-636.281 266.309-634.567 265.294-618.017 235.88-616.324 231.823-607.044 209.596-609.495 174.949-595.177 158.131-585.163 146.368-531.913 138.782-514.439 137.018-452.642 130.78-386.695 147.628-327.738 123.534-311.375 116.848-300.058 105.073-284.482 98.336-283.061 113.392-282.581 130.537-280.526 145.315-277.3 168.517-273.094 212.662-265.867 232.523-254.346 264.185-206.858 309.877-190.581 343.395-183.661 357.643-176.567 383.795-173.128 399.706-163.368 444.859-172.611 503.789-140.483 538.172-131.983 547.267-110.763 555.06-108.819 567.472-105.692 587.441-125.333 618.942-126.208 637.777-126.852 651.652-114.812 672.742-117.535 688.506-123.478 722.915-167.579 785.022-184.446 818.362-224.586 897.707-237.58 1031.313-300.146 1096.064-323.008 1119.725-356.38 1133.978-382.693 1164.546-412.554 1199.235-491.402 1304.09-510.645 1342.176-523.081 1366.789-518.834 1391.347-524.81 1415.826-536.512 1463.755-574.514 1489.839-559.509 1551.955-551.977 1583.137-501.069 1637.273-470.534 1649.138-388.369 1681.065-283.68 1631.736-295.913 1534.168-306.536 1449.439-370.335 1421.889-447.879 1422.562-454.07 1422.616-462.355 1430.18-462.208 1418.897-462.134 1413.209-458.602 1403.954-459.321 1397.02-402.638 1344.94-348.865 1294.042-310.92 1225.798L-131.629 1106.528C-122.461 1105.755-128.107 1108.022-129.012 1112.656-131.429 1125.031-134.779 1132.906-133.173 1146.532-126.143 1206.159-16.15 1230.23 31.583 1213.592 56.101 1205.046 52.393 1190.884 65.43 1180.703 75.609 1172.754 94.963 1173.419 101.907 1167.961 106.635 1164.246 100.902 1133.45 101.897 1122.306 106.404 1071.822 134.966 1039.019 56.218 1030.979 77.421 978.063 119.843 943.136 152.394 898.848 177.641 864.5 189.259 827.153 229.41 807.269 240.63 801.713 254.212 799.813 265.781 794.47 316.892 770.863 360.435 717.901 405.714 685.03 435.607 663.328 570.607 590.465 602.352 586.642 612.007 585.479 622.416 587.311 632.154 586.557 623.547 568.536 610.522 570.163 595.115 565.623 592.549 564.867 587.324 566.601 590.042 560.295 593.854 551.447 646.004 504.933 646.132 500.53 646.243 496.731 638.96 495.219 634.657 495.919 630.3 496.627 605.082 503.397 601.421 504.916 588.305 510.357 568.091 538.132 553.174 540.984 547.562 542.057 547.336 541.003 548.026 535.881 548.47 532.587 557.716 497.607 546.161 502.318 531.633 508.241 530.505 539.622 512.767 540.909 510.742 538.802 506.072 492.088 502.165 483.421 499.421 477.335 488.917 481.361 488.05 489.949 486.704 503.269 496.336 527.332 490.959 545.475 488.902 552.414 448.381 590.23 442.348 602.239 393.998 619.981 347.967 645.963 299.497 663.095 278.666 670.458 242.364 674.421 225.629 684.112 220.882 686.86 215.369 700.301 210.723 695.453 209.629 694.312 220.209 675.462 221.253 665.653 224.375 636.307 213.434 598.877 217.083 567.934 196.828 537.251 147.769 550.51 135.202 516.379 121.748 479.837 152.105 431.631 154.307 398.132 156.036 371.813 145.943 336.676 151.81 308.121 157.202 281.874 187.011 247.807 189.819 219.693 191.639 201.467 187.869 172.089 186.11 152.794 180.065 86.487 169.601 4.266 157.615-61.084 127.633-224.552-45.614-150.841-156.131-143.914-195.362-141.455-233.426-148.054-272.208-151.051-288.953-152.345-312.474-148.109-327.508-151.942-339.048-154.885-349.563-172.703-357.175-174.961-370.53-178.923-401.294-171.748-407.563-174.086-411.207-175.445-427.248-194.439-434.327-199.661-456.452-215.982-485.953-220.572-501.646-244.734-509.44-256.734-513.25-274.962-523.224-286.38-526.53-290.164-543.046-302.135-546.105-302.135Z" fill="#0d153b"/>
<path transform="matrix(1,0,0,-1,180.9383,1105.9076)" d="M0 0H17.1C33.896 0 42.299 9 42.299 27V110.7C42.299 128.7 33.896 137.7 17.1 137.7H0ZM0 166.5H17.1C33.896 166.5 42.299 177.447 42.299 199.35V254.25C42.299 276.146 33.896 287.1 17.1 287.1H0ZM50.85 154.8C66.747 153.295 78.299 146.545 85.5 134.55 93.297 121.345 97.199 100.646 97.199 72.45V39.6C97.199 11.995 91.42-7.58 79.875-19.125 68.322-30.678 48.747-36.45 21.149-36.45H-54.9V323.55H21.149C71.845 323.55 97.199 301.05 97.199 256.05V227.25C97.199 207.45 94.345 192.15 88.649 181.35 81.449 167.85 68.547 159.146 49.949 155.25Z" fill="#ffffff"/>
<path transform="matrix(1,0,0,-1,385.2371,1003.308)" d="M0 0H34.199L21.149 177.75ZM61.649 220.95 103.05-139.05H45.449L37.35-36H-4.5L-18-139.05H-70.2L-18.9 220.95Z" fill="#ffffff"/>
<path transform="matrix(1,0,0,-1,575.1336,782.35769)" d="M0 0V-323.55H63.45V-360H-54.899V0Z" fill="#ffffff"/>
<path transform="matrix(1,0,0,-1,718.6776,782.35769)" d="M0 0V-323.55H63.45V-360H-54.899V0Z" fill="#ffffff"/>
</g>
</g>
<g inkscape:groupmode="layer" inkscape:label="Znaczniki i spady">
<path transform="matrix(1,0,0,-1,79.0393,85.03491)" stroke-width="1.25" stroke-linecap="butt" stroke-miterlimit="10" stroke-linejoin="miter" fill="none" stroke="#ffffff" d="M0 0H-27M1996.252 0H2023.252M0-2834.646H-27M1996.252-2834.646H2023.252M6 6V33M6-2840.646V-2867.646M1990.252 6V33M1990.252-2840.646V-2867.646"/>
<path transform="matrix(1,0,0,-1,79.0393,85.03491)" stroke-width=".25" stroke-linecap="butt" stroke-miterlimit="10" stroke-linejoin="miter" fill="none" stroke="#000000" d="M0 0H-27M1996.252 0H2023.252M0-2834.646H-27M1996.252-2834.646H2023.252M6 6V33M6-2840.646V-2867.646M1990.252 6V33M1990.252-2840.646V-2867.646"/>
</g>
</svg>
