<?xml version="1.0" standalone="no"?>
<!DOCTYPE svg PUBLIC "-//W3C//DTD SVG 20010904//EN"
 "http://www.w3.org/TR/2001/REC-SVG-20010904/DTD/svg10.dtd">
<svg version="1.0" xmlns="http://www.w3.org/2000/svg"
 width="1414.000000pt" height="2000.000000pt" viewBox="0 0 1414.000000 2000.000000"
 preserveAspectRatio="xMidYMid meet">

<g transform="translate(0.000000,2000.000000) scale(0.100000,-0.100000)"
fill="#000000" stroke="none">
<path d="M0 10000 l0 -10000 2630 0 c1447 0 2630 3 2630 8 0 30 -77 312 -91
333 -21 31 -34 89 -19 89 5 0 10 -9 10 -20 0 -17 7 -20 48 -22 l47 -1 -45 -7
c-25 -4 -37 -8 -27 -8 10 -1 15 -6 12 -12 -4 -6 8 -10 30 -10 22 0 34 4 30 10
-3 6 0 10 9 10 8 0 16 -6 18 -12 4 -10 10 -10 29 -2 13 6 49 9 79 7 67 -5 146
9 143 25 -2 7 4 12 12 12 8 0 14 -6 12 -12 -1 -10 16 -13 63 -12 36 0 113 1
173 2 l107 2 0 80 c0 62 -3 82 -15 86 -8 4 -15 15 -15 26 0 10 -4 16 -10 13
-5 -3 -10 3 -10 15 0 20 -4 21 -92 18 -88 -3 -93 -4 -96 -25 -2 -13 -8 -23
-13 -23 -5 0 -7 -11 -3 -25 4 -15 2 -25 -5 -25 -20 0 -25 50 -6 64 15 10 15
15 4 21 -21 14 -102 5 -114 -12 -6 -8 -20 -13 -31 -10 -17 4 -16 5 4 6 46 2
20 21 -30 21 -39 -1 -49 -3 -36 -10 13 -8 14 -14 5 -35 -13 -27 -34 -28 -29
-1 2 9 -2 16 -7 16 -6 0 -8 6 -5 14 4 10 -20 13 -122 14 -108 2 -125 0 -120
-13 4 -11 -2 -15 -19 -15 -21 0 -24 -4 -23 -37 0 -21 -1 -45 -3 -53 -4 -23
-14 141 -10 172 l3 27 307 3 c414 4 496 1 480 -18 -6 -8 -10 -15 -8 -17 37
-21 51 -28 54 -25 1 2 -1 51 -5 109 -7 112 -17 148 -31 112 -7 -18 -19 -22
-91 -28 -130 -10 -765 -2 -777 10 -6 6 -14 67 -17 135 -4 69 -10 130 -14 135
-6 9 -14 182 -14 300 0 22 8 86 17 141 10 56 19 126 22 155 3 32 12 59 21 65
12 9 12 13 2 17 -7 2 -11 7 -8 10 3 3 189 8 413 11 359 5 408 4 414 -9 4 -11
9 -13 18 -5 8 7 79 9 196 8 l184 -3 3 -28 c2 -15 7 -25 12 -22 4 3 6 14 3 26
-4 12 0 25 8 30 17 11 299 12 299 2 0 -5 90 -7 200 -5 198 3 200 3 200 -18 0
-12 4 -18 10 -15 5 3 10 15 10 26 0 10 3 19 8 19 4 0 70 1 147 3 138 2 140 2
143 -20 3 -23 17 -31 24 -14 2 5 87 11 191 13 160 2 188 1 192 -12 3 -8 7 -86
9 -173 2 -87 7 -161 10 -165 3 -3 6 9 6 26 l0 32 120 0 c66 0 120 4 120 9 0
14 -22 19 -46 10 -12 -4 -60 -8 -108 -8 l-86 -1 0 154 0 153 406 8 c272 5 409
4 416 -3 6 -6 12 -57 14 -114 2 -56 6 -121 9 -143 l6 -40 -93 3 c-68 2 -89 0
-78 -8 8 -6 47 -9 87 -8 40 1 74 0 77 -2 6 -7 39 -475 40 -575 l1 -80 -250 -7
c-282 -8 -562 -5 -587 6 -9 4 -19 17 -21 29 -2 12 -2 -54 2 -148 3 -93 6 -201
6 -240 l0 -70 -176 0 c-124 0 -180 4 -191 12 -8 7 -20 49 -27 93 -14 86 -31
107 -31 38 0 -53 -9 -45 -13 13 -3 39 -6 44 -28 45 -69 2 -79 5 -79 20 0 13
12 15 71 12 l72 -3 -7 104 c-3 57 -8 107 -11 109 -3 3 -11 -2 -18 -12 -12 -16
-29 -18 -129 -18 -65 0 -125 5 -137 11 -16 9 -21 23 -24 74 -3 55 -3 53 -5
-23 -1 -47 3 -170 9 -274 6 -113 7 -192 1 -198 -14 -14 -346 -15 -363 -1 -15
12 -25 93 -45 356 -5 70 -16 96 -26 64 -6 -17 -219 -23 -259 -7 -26 11 -29 17
-29 58 0 25 -3 42 -6 39 -4 -4 -1 -114 6 -245 7 -132 9 -248 6 -259 -6 -18
-16 -19 -181 -19 -141 1 -177 4 -189 16 -10 9 -18 46 -22 98 -8 97 -29 109
-28 16 1 -80 21 -292 29 -305 4 -6 10 -60 14 -121 9 -157 27 -155 37 4 6 96 9
117 16 93 l9 -30 155 0 c128 0 154 2 154 15 0 35 19 -11 34 -85 23 -107 26
-115 38 -115 12 0 4 66 -38 328 -4 29 -9 33 -27 29 -42 -10 -312 -12 -310 -3
2 6 74 11 160 13 168 4 188 7 178 23 -3 5 -2 17 3 25 7 14 10 12 19 -7 10 -22
16 -24 122 -26 l111 -2 0 120 0 120 -57 0 c-32 0 -64 4 -71 9 -22 14 39 33 94
29 l49 -3 2 -65 c2 -111 13 -250 28 -372 8 -64 15 -139 15 -167 0 -53 13 -68
24 -27 3 13 9 62 12 110 7 81 23 122 39 96 3 -5 34 -10 68 -11 62 0 185 -13
222 -22 11 -3 23 -6 26 -6 6 -1 12 -36 26 -144 4 -31 10 -47 20 -47 16 0 11
74 -14 200 -14 74 -20 226 -9 238 9 9 16 -2 18 -31 2 -18 8 -27 20 -27 14 0
18 8 18 38 1 31 2 34 11 19 6 -10 8 -25 5 -33 -6 -16 -6 -16 106 -18 l77 -2 3
36 c3 35 4 35 15 10 12 -27 33 -264 33 -367 0 -44 4 -63 13 -63 7 0 12 14 13
33 1 17 5 80 9 140 8 103 9 107 26 91 14 -13 22 -14 32 -5 13 10 240 8 293 -4
27 -6 33 19 26 114 -4 67 10 106 22 58 4 -19 13 -24 41 -25 21 -1 35 3 35 10
0 7 6 3 14 -8 14 -18 31 -19 318 -22 382 -3 352 0 333 -36 -11 -22 -15 -66
-15 -187 l0 -159 163 0 164 0 11 52 c23 108 31 168 25 183 -11 30 -59 45 -148
45 -88 0 -93 -2 -99 -44 -8 -55 -11 -1 -11 162 1 119 -2 192 -9 201 -6 8 -10
17 -8 20 1 3 -160 7 -358 7 -199 1 -363 3 -365 6 -2 2 0 9 4 16 5 9 65 15 202
21 l194 9 -155 0 c-248 1 -270 2 -235 13 35 10 632 14 658 3 15 -5 16 -9 5
-15 -8 -6 0 -9 25 -9 34 0 42 7 38 33 -2 12 17 8 22 -5 2 -7 0 -28 -5 -47 -7
-22 -6 -42 2 -62 9 -20 10 -59 5 -129 -6 -80 -4 -101 6 -104 35 -12 218 -14
232 -3 16 13 21 62 38 397 11 216 11 241 4 248 -3 3 -49 9 -102 13 -54 5 -114
13 -133 19 -58 17 -69 7 -73 -63 -2 -42 -4 -27 -6 48 -1 61 -4 118 -6 128 -3
16 2 18 33 15 20 -2 39 2 42 7 3 6 -11 11 -30 13 -19 2 -40 8 -46 13 -7 5 -15
60 -18 127 -4 64 -9 142 -11 172 -2 30 -7 135 -11 232 -5 145 -10 180 -23 192
-14 12 -222 15 -1401 20 -762 3 -1579 9 -1816 12 l-432 6 -12 -23 c-10 -17
-11 -63 -6 -184 16 -346 17 -522 3 -533 -14 -12 -37 -9 -192 24 -44 10 -83 22
-86 27 -4 5 -12 6 -18 2 -7 -4 -18 -1 -26 5 -8 6 -18 9 -24 6 -5 -3 -11 0 -14
8 -4 9 -14 12 -28 9 -17 -5 -20 -3 -14 7 6 10 1 12 -23 7 -20 -4 -32 -2 -32 4
0 6 5 7 10 4 6 -3 10 -3 10 1 0 12 -34 33 -56 34 -11 0 -24 4 -30 9 -5 5 -27
11 -48 13 -22 2 -41 8 -43 15 -3 8 9 10 39 7 37 -3 39 -3 15 5 -40 13 -58 40
-43 63 17 28 -4 52 -48 56 -22 2 -36 -1 -36 -8 0 -7 6 -10 13 -7 15 6 21 -29
6 -38 -19 -13 -9 -33 14 -27 19 5 20 3 9 -10 -11 -14 -10 -18 4 -26 11 -6 13
-11 5 -16 -6 -4 -16 -4 -22 -1 -10 7 -26 42 -27 59 0 5 -6 12 -12 16 -7 4 -13
22 -14 39 0 17 -5 31 -11 31 -5 0 -10 15 -9 32 1 18 -8 50 -19 71 -12 23 -17
46 -13 62 5 18 3 23 -8 19 -10 -4 -12 1 -9 20 3 15 1 26 -6 26 -5 0 -8 6 -5
13 3 8 -1 27 -7 43 -7 16 -14 38 -15 49 -2 11 -13 52 -25 90 -11 39 -21 78
-21 88 1 9 -6 17 -14 17 -11 0 -12 4 -4 19 14 27 13 31 -7 31 -15 0 -16 2 -3
10 12 8 12 10 -3 16 -12 4 -15 13 -11 29 3 13 1 26 -5 29 -6 4 -11 18 -11 32
0 14 -4 23 -9 20 -4 -3 -6 6 -3 19 4 21 1 24 -14 19 -11 -3 -15 -2 -8 3 17 13
25 43 11 40 -7 -1 -11 9 -9 28 2 22 0 26 -7 15 -5 -8 -13 -11 -17 -7 -4 3 -1
13 5 21 19 23 -10 112 -35 108 -12 -2 -15 0 -8 5 15 11 13 43 -3 43 -16 0 -17
12 -3 26 13 13 -7 74 -23 70 -7 -1 -9 -1 -4 1 11 7 8 43 -4 43 -6 0 -8 7 -5
17 10 24 -14 89 -25 72 -6 -9 -7 -5 -3 14 4 17 2 27 -5 27 -7 0 -8 8 -1 25 7
20 6 25 -5 25 -11 0 -13 8 -9 29 4 18 1 33 -8 41 -8 8 -13 27 -11 44 1 17 0
23 -3 13 -8 -26 -25 -9 -18 19 4 15 2 24 -5 24 -7 0 -9 9 -5 25 4 15 2 25 -5
25 -6 0 -11 7 -11 15 0 8 -4 15 -10 15 -5 0 -10 8 -10 18 0 14 2 15 10 2 8
-12 10 -9 10 12 0 21 -4 26 -16 21 -12 -4 -14 0 -8 21 4 17 2 26 -6 26 -8 0
-10 9 -6 28 4 17 3 22 -2 13 -7 -10 -11 -10 -17 -1 -4 7 -1 16 6 21 12 8 12
10 0 18 -9 6 -12 19 -8 40 5 24 3 29 -8 24 -11 -4 -13 -1 -9 11 4 9 1 16 -6
16 -8 0 -10 9 -6 25 5 19 2 25 -10 25 -13 0 -14 3 -4 15 10 12 10 18 0 30 -6
8 -9 19 -5 25 3 5 -1 10 -10 10 -12 0 -15 6 -10 21 4 13 2 25 -5 29 -8 5 -9
13 -3 24 8 14 19 2 62 -68 29 -47 57 -86 62 -86 5 0 -14 37 -43 83 -28 45 -59
96 -67 112 -9 17 -19 32 -23 33 -5 2 -8 8 -8 14 0 5 -9 23 -20 39 -26 35 -52
132 -44 162 3 15 -4 36 -22 62 -39 57 -116 206 -110 212 3 3 -3 18 -14 33 -11
16 -20 33 -20 39 0 6 -7 27 -16 48 -27 62 -38 92 -49 133 -1 3 -5 12 -8 20
-19 44 -81 246 -99 320 -38 161 -58 255 -58 280 0 15 -4 30 -8 35 -21 24 -54
390 -54 605 0 154 17 391 38 525 8 55 17 116 19 135 5 38 41 207 73 335 42
169 169 507 249 660 64 123 69 135 118 290 21 66 41 125 44 130 3 6 6 15 6 20
1 6 4 17 8 25 3 8 15 47 26 85 11 39 29 97 40 130 37 114 52 160 72 230 11 39
24 79 29 90 5 11 16 47 26 80 9 33 20 69 25 80 9 23 37 108 99 305 23 74 53
167 65 205 13 39 35 108 50 155 14 47 31 93 36 103 5 10 7 22 4 27 -3 6 1 24
9 42 8 18 22 58 31 88 9 30 20 64 25 75 5 11 30 82 55 158 46 141 67 191 91
215 8 7 49 31 91 54 43 22 85 46 94 54 8 8 20 14 26 14 5 0 63 23 128 51 65
28 145 55 179 60 34 6 69 14 78 20 26 14 43 11 72 -12 32 -25 32 -26 46 116 7
76 15 117 28 133 l17 23 421 -1 421 0 7 31 c3 17 6 50 6 72 0 38 -1 40 -15 21
-8 -10 -15 -27 -15 -37 0 -28 -32 -33 -214 -35 -315 -4 -508 -14 -549 -28 -22
-8 -41 -14 -43 -14 -6 0 3 211 12 279 6 50 61 164 88 184 8 5 6 10 -4 17 -8 5
-10 10 -4 10 14 0 78 176 76 208 -1 13 2 20 8 17 6 -3 10 2 10 11 0 10 6 25
14 33 12 14 38 16 160 13 l146 -3 0 -27 c-1 -23 -2 -25 -13 -11 -13 17 -80 32
-70 16 3 -5 -4 -6 -16 -3 -11 3 -30 9 -41 12 -13 4 -20 1 -20 -9 0 -10 -14
-16 -45 -19 -58 -4 -69 0 -53 19 10 13 9 15 -7 11 -14 -2 -19 -10 -17 -26 3
-16 -2 -25 -16 -29 -13 -3 -22 -19 -30 -56 -6 -29 -14 -64 -18 -79 -4 -17 -2
-28 4 -28 5 0 12 10 15 21 5 19 11 21 56 17 28 -3 51 -1 51 3 0 5 7 9 15 9 18
0 19 -12 4 -27 -7 -7 8 -9 53 -6 35 3 66 10 69 15 4 6 14 -1 24 -16 21 -32 62
-35 95 -6 29 26 40 25 40 -1 0 -19 4 -21 43 -15 34 5 48 3 65 -12 12 -11 22
-24 22 -31 0 -6 9 -11 21 -11 18 0 20 4 15 25 -7 29 11 34 44 13 17 -11 22
-10 30 2 5 8 7 23 4 33 -3 9 -1 17 5 17 7 0 11 24 11 58 0 31 5 64 10 72 12
17 8 -107 -9 -270 -5 -52 -12 -138 -15 -190 -4 -77 -3 -85 4 -40 5 30 10 70
12 88 2 37 21 52 63 52 19 0 26 4 22 14 -9 22 7 24 171 22 139 -1 152 1 152
17 0 15 -15 17 -173 17 l-174 0 -6 135 c-3 75 -3 143 0 151 5 14 31 15 195 12
169 -3 189 -5 194 -20 3 -10 2 -27 -1 -39 -5 -15 -2 -22 14 -26 21 -5 29 -29
11 -35 -5 -1 -12 -27 -15 -56 -4 -50 -4 -52 15 -42 11 6 20 16 20 23 0 7 4 6
10 -3 8 -12 10 -12 10 -1 0 9 6 7 19 -7 10 -12 24 -22 32 -22 10 0 10 3 1 12
-17 17 -15 27 6 23 9 -2 21 -4 26 -4 4 -1 6 -7 3 -15 -7 -18 19 -25 50 -15 14
5 25 3 33 -6 17 -21 -2 -26 -82 -25 -40 1 -88 -2 -105 -5 -22 -5 -33 -4 -33 4
0 6 -4 11 -10 11 -5 0 -10 -6 -10 -14 0 -11 26 -14 129 -15 147 -2 141 -6 142
92 1 72 11 108 24 87 5 -9 4 -15 -3 -18 -16 -5 -15 -44 1 -61 10 -11 10 -14 0
-18 -9 -3 -13 -31 -13 -89 l0 -84 123 1 c67 1 155 1 196 0 l73 -1 -5 -267 c-3
-148 -2 -227 2 -176 3 50 9 94 13 98 3 4 72 7 151 8 l145 2 6 29 c10 47 7 66
-10 66 -9 0 -18 -9 -21 -20 -5 -18 -13 -20 -77 -18 l-71 2 69 3 c62 4 67 5 50
18 -11 8 -35 15 -54 15 -19 0 -58 6 -87 14 -38 10 -53 11 -56 2 -10 -28 -15
10 -18 154 l-4 155 129 3 c131 3 157 10 155 41 -1 13 -2 13 -6 -1 -4 -14 -16
-18 -61 -19 -227 -5 -224 -5 -201 18 6 6 13 38 16 72 3 34 10 64 14 67 5 3 9
23 9 45 0 21 5 39 11 39 6 0 8 -8 5 -17 -5 -15 -26 -182 -26 -205 0 -4 16 -6
35 -5 19 1 35 6 35 11 0 5 25 6 56 3 65 -7 109 6 100 29 -3 8 -2 12 4 9 6 -3
10 3 10 15 0 12 4 29 9 38 6 11 5 30 -3 52 -6 19 -9 49 -5 65 6 28 7 27 8 -10
0 -23 6 -46 12 -52 7 -7 7 -45 2 -119 -5 -59 -7 -121 -5 -137 4 -25 8 -28 31
-22 14 4 33 13 42 21 13 12 46 15 160 13 152 -1 175 -4 160 -23 -5 -6 -11
-135 -13 -286 -3 -151 -3 -233 -1 -181 2 52 9 101 15 108 15 18 838 19 856 1
15 -15 16 -165 3 -270 -10 -71 -13 -133 -27 -461 -5 -106 -11 -160 -20 -167
-8 -7 -152 -11 -420 -10 -408 0 -408 0 -432 23 -16 15 -23 17 -20 7 3 -13 -24
-15 -189 -18 -167 -2 -193 0 -193 13 0 8 -4 15 -10 15 -5 0 -10 -9 -10 -20 0
-19 -7 -20 -143 -20 -79 0 -146 3 -149 6 -9 8 -428 10 -428 1 0 -4 -157 -6
-350 -5 -289 3 -351 5 -355 17 -5 12 -8 11 -18 -2 -10 -14 -62 -16 -409 -20
-356 -5 -451 -1 -387 16 18 5 19 8 7 26 -16 27 -28 27 -28 0 0 -18 -3 -19 -15
-9 -11 9 -14 36 -14 114 0 55 -4 123 -11 150 -7 32 -8 93 -4 173 5 84 4 123
-4 123 -10 0 -16 -64 -27 -305 -3 -66 -11 -166 -16 -223 -8 -72 -8 -107 0
-116 15 -18 3655 -16 3673 2 8 8 12 49 13 122 0 60 3 110 7 110 6 0 12 53 23
203 4 60 2 76 -8 71 -9 -5 -9 -4 1 7 7 7 11 36 10 69 -1 35 -3 43 -5 23 -2
-18 -8 -33 -14 -33 -5 0 -8 73 -8 178 1 123 4 163 10 132 4 -25 8 -78 8 -118
1 -77 16 -126 32 -101 9 16 147 15 163 -1 22 -22 31 -9 28 36 -3 31 -8 44 -16
41 -7 -3 -13 0 -13 6 -1 24 -25 213 -31 252 -7 37 -10 40 -35 37 -26 -3 -27
-2 -15 17 7 12 23 21 35 21 20 0 23 6 25 40 1 22 2 48 2 57 2 33 -22 23 -28
-12 -4 -19 -11 -35 -16 -35 -17 0 -51 87 -44 114 5 21 2 27 -16 34 -28 11 -61
83 -48 106 12 22 3 46 -17 46 -10 0 -15 10 -15 32 0 30 1 31 14 12 18 -24 25
-17 31 30 3 20 7 52 10 71 2 19 0 37 -5 40 -6 4 -10 -4 -10 -16 0 -31 -22 -99
-32 -99 -4 0 -8 19 -8 43 0 75 -26 141 -70 181 l-41 37 -332 -1 -332 -2 -3 46
c-2 25 -7 46 -13 46 -5 0 -9 7 -9 15 0 13 -24 15 -152 16 -159 1 -195 3 -203
10 -2 3 -6 35 -7 72 l-3 68 -130 -2 c-117 -1 -131 -3 -143 -21 -8 -11 -20 -17
-27 -14 -10 3 -14 -9 -17 -45 l-3 -49 143 0 142 0 0 38 c1 31 2 34 11 19 13
-22 8 -67 -16 -155 -16 -56 -20 -63 -39 -58 -12 3 -74 6 -138 6 l-118 0 0 34
c0 19 -4 38 -10 41 -5 3 -10 17 -10 31 l0 24 -175 0 -175 0 0 36 c0 19 -5 45
-11 56 -20 38 1 43 209 49 177 5 163 5 -130 7 -201 0 -328 -3 -328 -9 0 -14
-17 -11 -34 6 -8 8 -21 15 -28 15 -8 0 -9 -3 -3 -8 15 -11 12 -96 -4 -115 -12
-16 -3 -17 133 -17 l146 0 0 26 c0 14 4 23 10 19 12 -8 13 -62 1 -69 -4 -3
-14 -33 -21 -66 l-13 -60 -133 0 c-132 0 -134 0 -135 23 -1 12 -1 27 0 34 1 6
-3 14 -9 18 -5 3 -10 19 -10 36 l0 29 -169 0 c-94 0 -172 4 -175 9 -4 5 -9 37
-12 70 l-7 61 -278 2 c-230 3 -277 5 -270 16 7 12 123 14 653 13 354 0 650 -2
658 -5 29 -11 384 -14 409 -4 32 12 284 13 288 2 2 -5 108 -6 235 -1 128 4
360 9 516 11 l282 5 44 -42 c57 -55 76 -86 76 -119 0 -16 5 -28 10 -28 6 0 10
-19 10 -41 0 -25 12 -66 29 -103 45 -96 49 -109 62 -198 7 -45 16 -88 21 -94
5 -6 6 -19 2 -28 -3 -9 -2 -22 4 -29 6 -7 16 -43 23 -80 7 -37 16 -67 21 -67
4 0 5 -27 1 -60 -4 -38 -2 -69 5 -83 6 -12 13 -69 16 -127 4 -115 22 -254 35
-285 5 -11 12 -28 15 -37 5 -18 72 -51 86 -43 5 3 11 1 14 -4 3 -5 23 -12 43
-16 42 -7 101 -33 120 -51 10 -9 88 -44 244 -107 17 -7 29 -23 38 -51 23 -73
60 -221 60 -241 1 -67 22 -118 34 -82 2 6 2 0 0 -15 -6 -37 6 -90 18 -82 6 3
7 -5 3 -20 -3 -14 2 -61 12 -103 10 -43 17 -91 16 -108 -2 -29 -2 -29 14 -10
16 19 16 19 10 -15 -5 -32 16 -162 46 -275 5 -22 11 -56 13 -75 2 -19 4 -37 4
-40 1 -3 5 2 11 10 15 24 24 2 10 -25 -10 -19 -10 -33 -2 -67 7 -24 13 -56 15
-73 4 -29 5 -29 12 -7 5 17 10 20 15 11 5 -7 3 -20 -3 -29 -10 -17 -7 -43 23
-195 4 -22 8 -30 9 -17 1 25 16 30 24 8 3 -8 -1 -20 -9 -26 -8 -7 -14 -20 -14
-29 0 -29 24 -71 38 -66 6 2 12 -2 12 -9 0 -8 -5 -16 -10 -18 -6 -2 -8 -27 -3
-68 6 -62 7 -63 16 -31 6 25 11 31 17 21 5 -8 4 -22 -2 -33 -11 -22 -3 -134
12 -157 8 -12 10 -10 10 9 0 20 2 22 15 11 14 -12 14 -15 0 -30 -8 -9 -15 -27
-15 -40 0 -23 0 -23 16 -4 14 18 15 16 9 -27 -4 -30 0 -57 10 -82 21 -52 2
-46 -30 9 -15 25 -29 44 -31 41 -7 -7 87 -162 97 -159 6 1 7 -2 4 -8 -4 -6 1
-20 11 -31 21 -23 7 -25 -24 -4 -20 15 -21 15 -15 -2 4 -10 17 -34 29 -54 92
-148 248 -506 317 -729 67 -216 76 -248 93 -342 9 -51 20 -97 24 -103 4 -5 11
-35 15 -65 4 -30 10 -59 14 -65 7 -12 12 -48 13 -98 0 -26 4 -37 15 -37 11 0
13 -5 7 -17 -5 -10 -9 -160 -9 -333 -1 -296 -13 -490 -34 -550 -5 -14 -10 -32
-10 -40 -1 -24 -27 -156 -56 -280 -15 -63 -33 -140 -40 -170 -12 -53 -69 -222
-121 -360 -34 -89 -35 -91 -95 -215 -30 -60 -53 -116 -53 -122 1 -7 -2 -13 -7
-13 -15 0 -61 -103 -49 -110 8 -5 5 -9 -7 -12 -10 -3 -29 -27 -43 -54 -14 -27
-40 -71 -58 -99 -18 -27 -38 -58 -45 -69 -7 -10 -24 -36 -40 -57 -15 -21 -27
-41 -27 -44 0 -3 -11 -18 -25 -33 -14 -15 -25 -32 -25 -39 0 -6 -3 -13 -8 -15
-4 -1 -34 -37 -66 -78 -33 -41 -62 -77 -65 -80 -4 -3 -33 -36 -66 -75 -81 -95
-246 -258 -363 -358 -101 -87 -285 -221 -337 -247 -16 -8 -38 -22 -47 -31 -22
-22 -168 -117 -242 -159 -375 -207 -796 -351 -1216 -416 -265 -41 -641 -55
-845 -33 -144 15 -313 38 -365 50 -25 5 -85 18 -135 28 -472 100 -1042 354
-1254 559 -30 29 -66 55 -80 59 -86 20 -444 324 -617 524 -76 88 -129 153
-186 228 -32 42 -61 81 -65 86 -12 16 -56 83 -117 178 -30 48 -58 87 -60 87
-23 0 112 -235 219 -380 69 -95 214 -260 335 -380 120 -121 126 -126 305 -279
61 -51 125 -107 144 -124 19 -17 40 -32 47 -33 7 -1 26 -11 42 -23 57 -40 407
-221 522 -270 30 -13 74 -32 98 -42 75 -34 287 -110 417 -148 29 -9 166 -43
305 -75 64 -15 226 -39 390 -56 140 -16 642 -12 777 5 527 67 975 215 1407
464 49 28 91 51 94 51 2 0 27 16 53 35 27 19 53 35 58 35 23 0 283 192 401
296 188 166 264 242 402 403 71 82 288 390 307 436 7 17 31 37 31 26 0 -5 -4
-12 -9 -15 -5 -3 -12 -18 -16 -33 -3 -15 -10 -30 -14 -33 -15 -10 -162 -253
-156 -258 3 -3 -1 -15 -8 -26 -7 -12 -18 -39 -25 -61 -6 -22 -27 -92 -46 -155
-19 -63 -49 -162 -66 -220 -56 -185 -71 -234 -80 -260 -5 -14 -12 -41 -16 -60
-3 -19 -10 -39 -14 -45 -4 -5 -11 -26 -15 -45 -11 -51 -68 -249 -108 -371 -19
-58 -38 -121 -42 -140 -3 -19 -15 -59 -25 -89 -10 -30 -35 -109 -55 -175 -20
-66 -47 -151 -60 -190 -12 -38 -35 -110 -51 -160 -27 -87 -37 -103 -79 -117
-42 -13 29 -8 94 7 62 15 84 14 65 -4 -5 -5 -52 -21 -105 -36 -53 -15 -101
-30 -109 -35 -12 -8 -22 -248 -20 -483 1 -64 -3 -103 -11 -113 -8 -10 -10 -42
-5 -113 4 -65 3 -102 -4 -106 -6 -4 -10 -47 -10 -105 0 -60 -4 -101 -11 -106
-6 -3 -8 -17 -4 -31 3 -14 1 -31 -6 -39 -7 -8 -9 -17 -6 -21 4 -3 3 -13 -2
-22 -5 -9 -11 -28 -15 -43 l-6 -28 2615 0 2615 0 0 10000 0 10000 -7070 0
-7070 0 0 -10000z m2860 5176 c338 -47 544 -132 713 -295 95 -92 178 -258 193
-386 l7 -55 -331 0 -331 0 -24 54 c-39 84 -114 130 -270 163 -104 23 -560 26
-670 5 -98 -18 -175 -50 -194 -78 -19 -29 -20 -79 -2 -100 49 -59 235 -99 739
-159 512 -61 834 -157 1005 -298 42 -34 111 -137 125 -185 6 -20 15 -73 21
-118 33 -264 -140 -480 -479 -595 -378 -129 -1086 -140 -1490 -23 -282 82
-465 218 -562 419 -39 79 -70 185 -70 238 l0 27 333 0 334 0 11 -37 c33 -110
156 -175 382 -203 109 -13 473 -13 598 0 229 25 334 78 307 157 -29 81 -197
125 -675 178 -620 67 -914 150 -1084 306 -110 102 -152 215 -144 390 4 85 9
106 40 171 112 236 398 383 833 428 55 5 116 12 135 14 69 8 447 -4 550 -18z
m8805 14 c156 -11 232 -23 350 -52 463 -113 759 -387 841 -778 14 -63 18 -131
18 -265 0 -214 -18 -305 -89 -452 -138 -284 -411 -477 -801 -568 -275 -64
-710 -65 -972 -4 -395 92 -672 289 -808 575 -72 151 -88 235 -88 469 0 157 3
215 17 269 42 166 115 299 231 423 206 219 540 356 933 382 173 12 213 12 368
1z m-5425 -300 l0 -260 -744 0 c-680 0 -745 -1 -748 -16 -2 -9 -2 -72 0 -140
l3 -124 675 0 674 0 0 -230 0 -230 -675 0 -675 0 0 -145 0 -145 775 0 775 0 0
-265 0 -265 -1085 0 -1085 0 0 1040 0 1040 1055 0 1055 0 0 -260z m990 -780
l0 -1040 -315 0 -315 0 0 1040 0 1040 315 0 315 0 0 -1040z m1022 582 l3 -459
504 459 505 458 444 0 c245 0 443 -2 441 -4 -2 -1 -135 -120 -294 -262 -160
-142 -368 -328 -463 -413 -94 -84 -172 -158 -172 -162 0 -8 225 -289 765 -954
116 -143 215 -266 219 -272 6 -10 -74 -13 -387 -13 l-394 0 -254 328 c-139
180 -296 382 -348 450 l-94 122 -28 -22 c-16 -13 -123 -108 -238 -213 l-210
-190 0 -237 -1 -238 -310 0 -310 0 0 1040 0 1040 310 0 310 0 2 -458z m-2889
-2038 c161 -36 286 -123 344 -241 26 -55 28 -66 28 -188 0 -120 -2 -135 -26
-186 -69 -146 -214 -233 -430 -260 -159 -19 -344 8 -460 67 -69 34 -164 130
-190 190 -45 107 -43 288 6 385 57 111 185 200 335 233 92 20 304 20 393 0z
m5279 1 c89 -18 222 -82 265 -127 39 -41 83 -123 83 -154 l0 -24 -145 0 c-136
0 -145 1 -156 21 -6 11 -36 33 -67 47 -49 23 -73 27 -172 30 -100 3 -123 1
-175 -19 -126 -47 -181 -154 -143 -281 16 -53 83 -113 149 -132 77 -23 230
-21 313 4 63 20 136 72 136 99 0 8 -48 11 -160 11 l-160 0 0 80 0 80 293 0
292 0 -2 -247 -1 -248 -61 -3 c-34 -2 -61 1 -61 7 0 5 -19 57 -41 116 l-42
107 -24 -49 c-33 -64 -74 -105 -142 -141 -80 -42 -150 -56 -271 -56 -214 2
-373 90 -452 251 -32 66 -33 71 -33 193 0 114 2 130 26 181 61 130 181 216
354 254 84 19 307 19 397 0z m-7142 -5 c8 -5 83 -123 165 -264 83 -140 153
-255 156 -256 4 0 75 115 159 255 84 140 158 259 166 266 9 7 64 10 166 7
l153 -3 3 -432 2 -433 -125 0 -125 0 0 270 c0 149 -3 270 -7 270 -5 0 -22 -24
-39 -53 -17 -28 -91 -150 -163 -269 l-133 -218 -56 0 -57 0 -145 241 c-80 133
-155 258 -167 278 l-22 36 -1 -278 0 -278 -127 3 -128 3 -3 420 c-1 230 0 425
2 432 4 9 43 12 158 11 84 0 160 -4 168 -8z m3082 -19 c212 -55 337 -175 358
-346 24 -190 -55 -337 -223 -420 -132 -64 -157 -67 -519 -72 l-328 -5 0 430
c0 401 1 431 18 436 9 3 152 3 317 1 256 -4 311 -7 377 -24z m1183 4 c154 -33
284 -125 342 -242 26 -53 28 -67 28 -168 0 -104 -2 -114 -33 -177 -39 -80
-103 -141 -194 -186 -120 -59 -160 -64 -520 -69 l-328 -5 0 430 c0 335 3 432
13 436 6 3 149 3 317 1 220 -3 325 -9 375 -20z m743 16 c9 -6 12 -111 10 -432
l-3 -424 -127 -3 -128 -3 0 430 c0 401 1 430 18 434 30 7 218 6 230 -2z m483
-35 c24 -22 118 -109 209 -195 91 -86 193 -183 227 -215 l63 -59 0 250 0 251
23 6 c29 8 146 8 186 0 l31 -6 0 -429 0 -429 -102 0 -103 0 -100 93 c-55 51
-188 175 -295 275 l-195 182 -3 -275 -2 -276 -123 3 -122 3 -3 424 c-2 333 0
426 10 432 7 5 67 7 134 6 l121 -2 44 -39z m-3511 -1216 c0 -5 -5 -10 -11 -10
-5 0 -7 5 -4 10 3 6 8 10 11 10 2 0 4 -4 4 -10z m467 4 c-3 -3 -12 -4 -19 -1
-8 3 -5 6 6 6 11 1 17 -2 13 -5z m813 -26 c0 -18 -2 -20 -9 -8 -6 8 -7 18 -5
22 9 14 14 9 14 -14z m-697 -25 c2 -21 -2 -53 -9 -71 -7 -18 -16 -56 -20 -83
-7 -53 -17 -67 -37 -50 -8 6 -137 11 -360 12 -373 1 -368 2 -389 -51 -7 -16
-12 -20 -15 -12 -3 8 -1 24 4 35 6 12 17 38 26 57 8 19 32 54 52 78 l37 43
344 -7 c384 -8 346 -14 347 59 1 40 14 33 20 -10z m477 33 c0 -3 -4 -8 -10
-11 -5 -3 -10 -1 -10 4 0 6 5 11 10 11 6 0 10 -2 10 -4z m-1100 -36 c12 -8 11
-10 -7 -10 -13 0 -23 5 -23 10 0 13 11 13 30 0z m1077 -12 c-3 -8 -6 -5 -6 6
-1 11 2 17 5 13 3 -3 4 -12 1 -19z m-997 2 c0 -5 -7 -10 -16 -10 -8 0 -12 5
-9 10 3 6 10 10 16 10 5 0 9 -4 9 -10z m133 -7 c-7 -2 -21 -2 -30 0 -10 3 -4
5 12 5 17 0 24 -2 18 -5z m2198 -186 c-13 -13 -15 15 -3 53 7 24 7 23 10 -9 2
-18 -1 -38 -7 -44z m-1421 20 c0 -22 -5 -34 -14 -34 -12 0 -12 15 0 55 7 23
14 12 14 -21z m708 1 c0 -18 -2 -41 -5 -52 -8 -29 -24 3 -17 34 13 60 23 68
22 18z m-1449 -43 c20 1 28 1 19 -2 -10 -2 -19 -14 -19 -26 -1 -18 -2 -19 -6
-4 -3 12 -11 17 -22 14 -22 -5 -54 11 -46 24 4 5 13 6 22 0 9 -5 32 -7 52 -6z
m241 1 c0 -5 -59 -36 -68 -36 -14 0 23 29 41 33 12 2 23 5 25 6 1 0 2 -1 2 -3z
m-173 -38 c-3 -7 -5 -2 -5 12 0 14 2 19 5 13 2 -7 2 -19 0 -25z m710 10 c-3
-8 -6 -5 -6 6 -1 11 2 17 5 13 3 -3 4 -12 1 -19z m1412 -28 c-2 -27 -6 -50
-11 -50 -4 0 -8 23 -8 50 0 28 5 50 10 50 7 0 10 -20 9 -50z m-1899 36 c0 -3
-4 -8 -10 -11 -5 -3 -10 -1 -10 4 0 6 5 11 10 11 6 0 10 -2 10 -4z m-520 -26
c0 -5 -4 -10 -10 -10 -5 0 -10 5 -10 10 0 6 5 10 10 10 6 0 10 -4 10 -10z
m480 6 c0 -3 -4 -8 -10 -11 -5 -3 -10 -1 -10 4 0 6 5 11 10 11 6 0 10 -2 10
-4z m1875 -103 c-6 -74 -5 -94 5 -88 8 5 11 -1 8 -20 l-3 -26 110 -2 c225 -2
295 2 295 18 0 9 6 12 16 8 12 -4 13 -8 3 -14 -14 -8 115 -15 209 -11 51 2 63
6 58 17 -3 9 1 15 9 15 8 0 15 -9 15 -19 0 -11 6 -22 13 -24 6 -3 -152 -6
-353 -6 -239 -1 -368 -5 -375 -12 -7 -7 100 -10 352 -8 l361 2 30 -34 c74 -85
92 -157 74 -294 l-7 -49 -70 -4 c-138 -6 -634 -4 -662 3 l-28 8 25 7 c14 5 57
9 95 11 l70 2 -85 9 c-47 5 -104 10 -127 10 l-43 1 -1 126 c-1 69 -2 135 -3
146 -1 19 -10 20 -186 25 l-185 5 -8 140 c-4 76 -6 144 -4 150 3 6 73 9 202 7
l197 -3 -7 -96z m-2245 77 c0 -11 -7 -20 -15 -20 -15 0 -21 21 -8 33 12 13 23
7 23 -13z m63 3 c-7 -2 -19 -2 -25 0 -7 3 -2 5 12 5 14 0 19 -2 13 -5z m1459
-5 c3 -7 2 -40 -3 -73 -4 -33 -8 -70 -8 -83 -1 -16 -5 -21 -13 -16 -10 6 -10
4 0 -7 6 -7 12 -15 12 -18 0 -4 -75 -5 -167 -5 -115 1 -170 -2 -175 -9 -12
-19 -18 -3 -27 69 -4 37 -13 70 -19 72 -14 4 -16 37 -2 61 8 17 28 18 203 20
152 2 196 -1 199 -11z m-652 -39 c0 -18 -4 -28 -10 -24 -5 3 -10 20 -10 36 0
18 4 28 10 24 6 -3 10 -20 10 -36z m-1080 -14 c0 -25 -4 -45 -10 -45 -5 0 -10
18 -10 40 0 22 -4 40 -10 40 -5 0 -10 -18 -10 -40 0 -22 -4 -40 -10 -40 -11 0
-14 73 -3 83 3 4 17 7 30 7 21 0 23 -5 23 -45z m1297 3 c-3 -7 -5 -2 -5 12 0
14 2 19 5 13 2 -7 2 -19 0 -25z m-957 -34 c0 -8 -4 -14 -10 -14 -5 0 -10 9
-10 21 0 11 5 17 10 14 6 -3 10 -13 10 -21z m56 -11 c-11 -11 -19 6 -11 24 8
17 8 17 12 0 3 -10 2 -21 -1 -24z m2100 5 c-3 -13 -6 -30 -7 -38 0 -8 -5 -2
-9 14 -10 31 -6 46 12 46 6 0 8 -10 4 -22z m-2232 3 c3 -5 -3 -11 -13 -14 -14
-3 -18 -1 -14 9 6 16 19 18 27 5z m1543 -68 c-3 -10 -5 -4 -5 12 0 17 2 24 5
18 2 -7 2 -21 0 -30z m133 -33 c18 -6 9 -7 -29 -5 -29 2 -56 6 -59 9 -8 9 59
5 88 -4z m790 0 c12 -8 9 -10 -13 -10 -16 0 -26 4 -22 10 8 12 16 12 35 0z
m110 0 c0 -5 -4 -10 -9 -10 -6 0 -13 5 -16 10 -3 6 1 10 9 10 9 0 16 -4 16
-10z m-207 -7 c-7 -2 -21 -2 -30 0 -10 3 -4 5 12 5 17 0 24 -2 18 -5z m674
-190 c-3 -10 -5 -2 -5 17 0 19 2 27 5 18 2 -10 2 -26 0 -35z m859 -940 c-11
-11 -19 6 -11 24 8 17 8 17 12 0 3 -10 2 -21 -1 -24z m11 -55 c-3 -8 -6 -5 -6
6 -1 11 2 17 5 13 3 -3 4 -12 1 -19z m43 -158 c0 -5 -5 -10 -11 -10 -5 0 -7 5
-4 10 3 6 8 10 11 10 2 0 4 -4 4 -10z m50 -230 c0 -5 -4 -10 -10 -10 -5 0 -10
5 -10 10 0 6 5 10 10 10 6 0 10 -4 10 -10z m50 -236 c0 -8 -4 -12 -10 -9 -5 3
-10 10 -10 16 0 5 5 9 10 9 6 0 10 -7 10 -16z m20 -105 c0 -5 -4 -9 -8 -9 -5
0 -9 7 -9 15 0 8 4 12 9 9 4 -3 8 -9 8 -15z m7 -81 c-3 -7 -5 -2 -5 12 0 14 2
19 5 13 2 -7 2 -19 0 -25z m19 -55 c-10 -10 -19 5 -10 18 6 11 8 11 12 0 2 -7
1 -15 -2 -18z m31 -165 c-3 -8 -6 -5 -6 6 -1 11 2 17 5 13 3 -3 4 -12 1 -19z
m23 -53 c0 -8 -4 -15 -10 -15 -5 0 -7 7 -4 15 4 8 8 15 10 15 2 0 4 -7 4 -15z
m20 -109 c0 -8 -4 -18 -10 -21 -5 -3 -10 3 -10 14 0 12 5 21 10 21 6 0 10 -6
10 -14z m7 -78 c-3 -7 -5 -2 -5 12 0 14 2 19 5 13 2 -7 2 -19 0 -25z m23 -49
c0 -6 -4 -7 -10 -4 -5 3 -10 11 -10 16 0 6 5 7 10 4 6 -3 10 -11 10 -16z m20
-104 c0 -8 -4 -15 -10 -15 -5 0 -10 7 -10 15 0 8 5 15 10 15 6 0 10 -7 10 -15z
m30 -111 c0 -8 -7 -14 -15 -14 -8 0 -15 9 -15 20 0 13 5 18 15 14 8 -4 15 -12
15 -20z m20 -116 c0 -7 -5 -20 -10 -28 -8 -12 -10 -9 -10 13 0 15 5 27 10 27
6 0 10 -6 10 -12z m10 -68 c0 -5 -4 -10 -10 -10 -5 0 -10 5 -10 10 0 6 5 10
10 10 6 0 10 -4 10 -10z m40 -170 c0 -5 -4 -10 -10 -10 -5 0 -10 5 -10 10 0 6
5 10 10 10 6 0 10 -4 10 -10z m915 -1569 c22 -13 30 -25 31 -47 0 -16 4 -39 8
-51 5 -17 3 -23 -7 -23 -12 0 -12 -6 1 -45 13 -41 13 -47 -1 -63 -10 -11 -13
-27 -10 -44 6 -34 23 -37 23 -5 1 26 9 93 15 124 4 19 19 23 45 13 3 -1 8 -2
12 -1 10 1 9 -660 -1 -698 -6 -18 -11 -71 -12 -118 -1 -64 -6 -89 -19 -106
-18 -22 -18 -22 -26 28 -9 56 -10 259 -2 290 3 11 11 19 17 17 12 -2 16 262 5
292 -16 41 -24 -8 -24 -140 0 -104 -3 -143 -11 -138 -8 4 -9 -1 -4 -15 4 -12
2 -27 -3 -34 -5 -7 -13 -31 -17 -55 -4 -23 -11 -40 -16 -36 -5 3 -9 1 -9 -4 0
-6 7 -12 15 -16 8 -3 15 -10 15 -15 0 -6 -76 -11 -200 -13 -213 -3 -226 0
-174 41 24 19 40 21 180 21 144 0 154 1 154 19 0 10 7 32 15 47 25 49 6 54
-191 54 -129 0 -174 -3 -177 -12 -3 -7 -6 1 -6 18 -1 17 6 37 14 44 14 11 13
14 -1 25 -9 6 -14 18 -12 26 3 8 1 23 -4 33 -9 17 -8 18 13 10 13 -5 94 -9
179 -9 120 0 161 3 180 15 23 14 8 15 -170 18 -135 2 -196 6 -201 14 -4 7 -1
24 7 39 8 15 10 30 5 33 -5 3 -9 24 -9 46 -1 40 -1 40 23 24 20 -13 53 -16
171 -15 198 2 231 20 188 102 -20 40 -36 45 -171 47 -145 3 -167 -1 -192 -41
l-21 -32 0 27 c0 15 5 30 10 33 6 3 10 15 10 26 0 10 -4 19 -10 19 -5 0 -10 5
-10 11 0 6 5 7 13 2 6 -4 91 -10 188 -13 206 -6 212 -4 187 64 l-15 41 -152 3
c-86 1 -159 -2 -170 -7 -10 -6 -25 -25 -34 -43 -15 -30 -17 -31 -17 -9 0 14 7
32 15 41 14 15 14 18 0 30 -19 16 -19 44 0 60 8 7 15 19 15 28 0 8 8 24 17 35
16 17 28 18 158 12 104 -5 148 -11 170 -24z m160 -211 c3 -5 1 -10 -4 -10 -6
0 -11 5 -11 10 0 6 2 10 4 10 3 0 8 -4 11 -10z m19 -92 c3 -18 6 -158 7 -312
2 -223 -1 -280 -12 -286 -25 -16 -32 2 -24 69 8 79 8 50 6 306 -1 116 -2 220
-2 233 1 33 18 27 25 -10z m-199 -475 c-4 -16 -8 -30 -11 -32 -2 -2 -70 -6
-151 -8 -101 -2 -150 -7 -155 -16 -12 -17 -48 28 -48 59 l0 24 186 0 186 0 -7
-27z m45 -187 c-4 -18 -10 -38 -14 -44 -3 -5 1 -15 9 -22 15 -12 11 -66 -6
-84 -13 -14 -11 -24 6 -28 12 -3 12 -7 -1 -35 -9 -17 -23 -34 -31 -38 -9 -3
-84 -6 -166 -6 -141 0 -151 2 -174 22 -24 24 -31 55 -12 61 14 5 3 78 -11 78
-19 0 -10 16 19 33 24 14 55 17 179 17 159 0 182 6 182 49 0 19 8 31 21 31 4
0 3 -15 -1 -34z m-900 -1443 c0 -5 -5 -15 -10 -23 -8 -12 -10 -11 -10 8 0 12
5 22 10 22 6 0 10 -3 10 -7z m-6370 -193 c0 -5 -5 -10 -11 -10 -5 0 -7 5 -4
10 3 6 8 10 11 10 2 0 4 -4 4 -10z m190 -721 c0 -5 -4 -9 -10 -9 -5 0 -10 7
-10 16 0 8 5 12 10 9 6 -3 10 -10 10 -16z m277 -1021 c-3 -8 -6 -5 -6 6 -1 11
2 17 5 13 3 -3 4 -12 1 -19z m893 -254 c0 -9 -5 -14 -12 -12 -18 6 -21 28 -4
28 9 0 16 -7 16 -16z m-670 -198 c0 -3 -4 -8 -10 -11 -5 -3 -10 -1 -10 4 0 6
5 11 10 11 6 0 10 -2 10 -4z m5025 -116 c3 -5 -1 -10 -9 -10 -9 0 -16 5 -16
10 0 6 4 10 9 10 6 0 13 -4 16 -10z m-655 -508 l0 -26 -16 22 c-8 12 -12 27
-9 32 10 17 25 1 25 -28z m10 -46 c0 -8 -4 -18 -10 -21 -5 -3 -10 3 -10 14 0
12 5 21 10 21 6 0 10 -6 10 -14z m-1410 -76 c-30 -3 -68 -3 -85 0 -23 4 -18 6
25 10 30 3 69 3 85 0 23 -4 18 -6 -25 -10z m-681 6 c-10 -8 -159 -14 -159 -5
0 5 37 9 82 9 45 0 79 -2 77 -4z m1701 -118 c0 -4 -7 -8 -15 -8 -8 0 -15 -5
-15 -12 0 -6 -2 -9 -5 -6 -3 3 -2 20 1 38 7 30 8 32 21 15 7 -11 13 -22 13
-27z m-2574 5 c-10 -10 -19 5 -10 18 6 11 8 11 12 0 2 -7 1 -15 -2 -18z m84 9
c0 -11 -8 -18 -21 -19 -12 -1 -18 3 -16 10 3 7 10 11 16 10 6 -2 11 2 11 7 0
6 2 10 5 10 3 0 5 -8 5 -18z m-613 2 c-3 -3 -12 -4 -19 -1 -8 3 -5 6 6 6 11 1
17 -2 13 -5z m56 -1 c-7 -2 -19 -2 -25 0 -7 3 -2 5 12 5 14 0 19 -2 13 -5z
m95 0 c-16 -2 -40 -2 -55 0 -16 2 -3 4 27 4 30 0 43 -2 28 -4z m-198 -28 c0
-8 -2 -15 -4 -15 -2 0 -6 7 -10 15 -3 8 -1 15 4 15 6 0 10 -7 10 -15z m145 6
c3 -5 1 -12 -5 -16 -5 -3 -10 1 -10 9 0 18 6 21 15 7z m-105 -11 c0 -5 -2 -10
-4 -10 -3 0 -8 5 -11 10 -3 6 -1 10 4 10 6 0 11 -4 11 -10z m459 -72 c0 -28
-2 -30 -9 -13 -12 28 -12 45 0 45 6 0 10 -15 9 -32z m1705 17 c3 -8 1 -15 -4
-15 -6 0 -10 7 -10 15 0 8 2 15 4 15 2 0 6 -7 10 -15z m-1904 -64 c0 -38 -27
-51 -103 -50 -40 1 -60 4 -44 6 15 3 27 11 27 19 0 13 2 13 16 0 24 -24 51
-19 76 14 26 35 28 36 28 11z m65 -11 c-5 -8 -11 -8 -17 -2 -6 6 -7 16 -3 22
5 8 11 8 17 2 6 -6 7 -16 3 -22z m-228 -12 c-3 -7 -5 -2 -5 12 0 14 2 19 5 13
2 -7 2 -19 0 -25z m3023 1 c0 -5 -4 -9 -10 -9 -5 0 -10 7 -10 16 0 8 5 12 10
9 6 -3 10 -10 10 -16z m200 -4 c0 -8 -4 -15 -10 -15 -5 0 -7 7 -4 15 4 8 8 15
10 15 2 0 4 -7 4 -15z m-2730 1 c0 -11 -19 -15 -25 -6 -3 5 1 10 9 10 9 0 16
-2 16 -4z m1830 -20 c0 -8 -51 -13 -56 -5 -3 5 9 9 25 9 17 0 31 -2 31 -4z
m-553 -23 c-8 -13 -304 -15 -312 -3 -4 7 46 10 155 10 89 0 159 -3 157 -7z
m730 -10 c4 -10 -33 -13 -161 -13 -97 0 -166 4 -166 9 0 21 321 24 327 4z
m-2630 -85 c-3 -7 -5 -2 -5 12 0 14 2 19 5 13 2 -7 2 -19 0 -25z m3533 -137
c0 -34 -11 -71 -20 -71 -4 0 -8 30 -8 68 -2 61 -1 65 13 48 8 -11 15 -31 15
-45z m-3483 -33 c-3 -8 -6 -5 -6 6 -1 11 2 17 5 13 3 -3 4 -12 1 -19z"/>
<path d="M11253 14636 c-230 -44 -394 -151 -465 -303 -30 -62 -33 -78 -36
-191 -4 -96 -1 -138 13 -188 46 -170 190 -292 420 -356 72 -20 104 -22 310
-22 208 0 238 2 310 22 223 63 365 178 415 339 38 123 24 318 -31 426 -35 68
-128 150 -221 196 -140 69 -213 84 -443 87 -138 2 -222 -1 -272 -10z"/>
<path d="M5030 12435 c-61 -17 -113 -54 -147 -105 -18 -26 -23 -47 -23 -102 0
-89 24 -138 87 -178 63 -40 131 -53 254 -49 90 4 112 8 162 33 40 19 66 41 85
69 24 36 27 50 27 123 0 76 -2 85 -30 121 -17 21 -57 51 -89 67 -52 26 -70 30
-165 33 -73 2 -123 -2 -161 -12z"/>
<path d="M6122 12223 l3 -208 160 1 c222 2 325 34 375 117 28 45 27 138 -1
183 -50 81 -159 114 -381 114 l-158 0 2 -207z"/>
<path d="M7320 12219 l0 -212 163 6 c235 9 334 43 376 130 48 99 15 189 -89
242 -69 35 -138 45 -300 45 l-150 0 0 -211z"/>
<path d="M8528 10463 c7 -3 16 -2 19 1 4 3 -2 6 -13 5 -11 0 -14 -3 -6 -6z"/>
<path d="M10578 5773 c12 -2 30 -2 40 0 9 3 -1 5 -23 4 -22 0 -30 -2 -17 -4z"/>
<path d="M10688 5773 c6 -2 18 -2 25 0 6 3 1 5 -13 5 -14 0 -19 -2 -12 -5z"/>
<path d="M10758 5773 c18 -2 45 -2 60 0 15 2 0 4 -33 4 -33 0 -45 -2 -27 -4z"/>
<path d="M10570 5580 c-21 -4 27 -8 123 -9 103 -1 156 2 152 9 -7 11 -221 11
-275 0z"/>
<path d="M10535 5340 c7 -12 285 -10 285 2 0 4 -66 8 -146 8 -94 0 -143 -4
-139 -10z"/>
<path d="M10618 5173 c45 -2 119 -2 165 0 45 1 8 3 -83 3 -91 0 -128 -2 -82
-3z"/>
<path d="M10537 5109 c7 -7 15 -10 18 -7 3 3 -2 9 -12 12 -14 6 -15 5 -6 -5z"/>
<path d="M6168 11433 c23 -2 59 -2 80 0 20 2 1 4 -43 4 -44 0 -61 -2 -37 -4z"/>
<path d="M6343 11433 c9 -2 25 -2 35 0 9 3 1 5 -18 5 -19 0 -27 -2 -17 -5z"/>
<path d="M6413 11433 c9 -2 25 -2 35 0 9 3 1 5 -18 5 -19 0 -27 -2 -17 -5z"/>
<path d="M7911 11385 c1 -27 -2 -59 -6 -69 -8 -18 0 -19 322 -12 l330 8 36
-42 c20 -23 47 -65 62 -94 18 -36 24 -42 19 -21 -4 17 -7 62 -8 101 -1 61 -5
76 -29 107 -15 20 -40 45 -57 57 -29 20 -37 21 -350 18 l-321 -3 2 -50z m739
-119 c0 -3 -4 -8 -10 -11 -5 -3 -10 -1 -10 4 0 6 5 11 10 11 6 0 10 -2 10 -4z"/>
<path d="M8766 10879 c-3 -19 -8 -62 -11 -96 -5 -53 -4 -62 9 -57 22 8 35 57
31 115 -4 63 -21 86 -29 38z"/>
<path d="M5538 10873 c7 -3 16 -2 19 1 4 3 -2 6 -13 5 -11 0 -14 -3 -6 -6z"/>
<path d="M5870 10865 c0 -8 5 -15 10 -15 6 0 10 7 10 15 0 8 -4 15 -10 15 -5
0 -10 -7 -10 -15z"/>
<path d="M7238 10833 c7 -3 16 -2 19 1 4 3 -2 6 -13 5 -11 0 -14 -3 -6 -6z"/>
<path d="M5338 10823 c12 -2 32 -2 45 0 12 2 2 4 -23 4 -25 0 -35 -2 -22 -4z"/>
<path d="M5481 10826 c9 -9 418 -13 431 -5 7 5 -85 9 -211 9 -123 0 -222 -2
-220 -4z"/>
<path d="M6337 10573 c-4 -70 -9 -182 -11 -248 -2 -66 -1 -87 1 -48 3 60 7 75
24 84 13 6 71 9 155 7 l134 -3 0 43 c0 23 1 45 3 49 1 4 -6 9 -15 11 -13 2
-18 -3 -18 -17 0 -19 -6 -21 -69 -21 -39 0 -72 4 -75 8 -3 4 21 8 53 7 33 0
62 4 69 11 11 12 -62 23 -175 27 -24 1 -44 6 -44 12 -1 5 -2 52 -3 104 -1 58
-5 96 -12 98 -7 2 -13 -39 -17 -124z"/>
<path d="M7021 10053 c1 -100 6 -93 11 15 2 39 0 72 -4 72 -4 0 -7 -39 -7 -87z"/>
<path d="M7752 10090 c0 -14 2 -19 5 -12 2 6 2 18 0 25 -3 6 -5 1 -5 -13z"/>
<path d="M7744 9945 c0 -60 1 -84 3 -52 2 32 2 81 0 110 -2 29 -3 3 -3 -58z"/>
<path d="M6302 10020 c0 -14 2 -19 5 -12 2 6 2 18 0 25 -3 6 -5 1 -5 -13z"/>
<path d="M7731 9794 c0 -11 3 -14 6 -6 3 7 2 16 -1 19 -3 4 -6 -2 -5 -13z"/>
<path d="M6585 9209 c-208 -11 -495 -57 -695 -110 -429 -115 -863 -328 -1204
-592 -127 -98 -207 -178 -161 -161 22 9 18 -9 -5 -29 -25 -21 -40 -22 -40 -1
0 8 -4 13 -9 10 -5 -3 -7 -16 -4 -27 5 -18 3 -20 -16 -14 -24 7 -30 -10 -6
-19 8 -3 15 -10 15 -17 0 -6 -7 -9 -15 -5 -8 3 -15 1 -15 -4 0 -6 -6 -10 -14
-10 -16 0 -46 -42 -46 -64 0 -9 -13 -22 -29 -31 -33 -16 -47 -46 -33 -70 7
-13 16 -8 53 32 43 48 79 72 79 53 0 -6 -9 -19 -20 -30 -11 -11 -20 -24 -20
-30 0 -5 -7 -10 -15 -10 -8 0 -15 -7 -15 -15 0 -9 -11 -20 -24 -24 -23 -10
-44 -41 -26 -41 6 0 10 4 10 8 0 5 11 14 25 20 14 6 25 18 25 26 0 8 9 18 20
21 11 3 25 15 30 26 6 10 17 19 25 19 7 0 16 9 20 19 6 20 53 56 62 48 2 -3
-9 -18 -25 -34 -76 -74 -308 -339 -357 -408 -11 -16 -36 -49 -56 -74 -30 -39
-98 -141 -184 -276 -23 -36 -164 -314 -187 -370 -9 -22 -24 -58 -33 -80 -45
-109 -115 -330 -154 -492 -37 -147 -80 -428 -81 -520 0 -28 -5 -55 -11 -58 -6
-4 -8 -13 -5 -21 3 -8 8 -107 11 -222 4 -114 7 -216 9 -227 1 -11 6 -56 10
-100 4 -44 11 -98 16 -120 5 -22 16 -83 25 -135 30 -167 73 -318 168 -580 16
-47 34 -89 39 -95 4 -5 8 -17 8 -27 0 -10 5 -18 10 -18 6 0 10 -5 10 -10 0
-14 66 -150 112 -232 21 -37 38 -72 38 -77 0 -21 -26 1 -38 31 -6 17 -14 29
-17 26 -7 -6 15 -58 32 -76 7 -8 14 -9 18 -2 8 12 25 13 25 1 0 -5 29 -53 65
-106 36 -54 65 -103 65 -109 0 -6 -10 5 -22 24 -12 19 -25 37 -28 40 -3 3 -16
22 -29 42 -12 21 -26 38 -31 38 -5 0 -12 9 -15 20 -9 28 -35 25 -35 -3 0 -13
4 -27 10 -33 5 -5 11 -25 13 -44 3 -21 11 -36 23 -41 19 -7 17 -10 -8 -13 -20
-2 -55 38 -45 51 5 7 5 18 1 25 -6 9 -10 5 -15 -12 -3 -14 -1 -32 6 -40 19
-26 35 -70 25 -70 -6 0 -10 3 -10 8 0 4 -11 19 -25 34 -24 27 -47 87 -28 75 6
-4 8 4 4 21 -5 25 -6 25 -9 5 -5 -31 -14 -29 -35 7 -10 16 -23 29 -29 27 -7
-1 -18 12 -26 28 -8 17 -19 32 -24 33 -4 2 -8 10 -8 19 0 14 -23 43 -34 43 -9
0 17 -53 36 -74 10 -11 18 -23 18 -27 0 -13 19 -53 45 -94 14 -22 29 -49 34
-60 8 -18 66 -104 155 -230 133 -188 287 -359 493 -547 65 -59 234 -189 339
-260 386 -263 879 -458 1359 -538 517 -86 982 -66 1509 66 379 95 748 265
1137 525 57 38 236 178 304 238 154 136 399 402 485 526 79 114 117 172 131
197 8 16 20 33 26 36 10 7 53 85 53 97 0 20 -50 -48 -180 -244 -30 -45 -121
-148 -97 -109 9 15 26 44 38 64 11 21 31 52 45 69 34 45 30 64 -5 26 -16 -17
-34 -31 -40 -31 -6 0 -8 -7 -4 -16 3 -10 -1 -17 -13 -20 -11 -3 -34 -25 -53
-50 -31 -41 -51 -55 -51 -36 0 5 16 26 35 48 34 38 45 77 25 89 -6 3 -7 -1 -4
-9 3 -9 2 -16 -4 -16 -6 0 -12 5 -14 11 -2 6 -32 -25 -67 -68 -52 -63 -63 -72
-57 -48 4 16 13 33 19 37 9 6 9 8 0 8 -7 0 -17 -9 -23 -21 -17 -31 -34 -50
-175 -197 -161 -167 -343 -323 -520 -444 -99 -68 -125 -82 -125 -68 0 5 4 10
10 10 20 0 246 166 360 265 19 16 105 100 190 185 301 299 521 620 695 1015
263 596 345 1257 235 1900 -29 167 -38 206 -79 355 -105 383 -306 790 -545
1100 -44 58 -85 110 -91 116 -37 41 -101 120 -108 133 -11 20 90 -84 159 -165
104 -121 214 -277 315 -446 19 -32 37 -58 41 -58 4 0 6 13 5 30 -1 16 -6 30
-11 30 -5 0 -7 2 -4 5 10 10 37 -7 32 -20 -3 -7 2 -28 10 -46 8 -19 15 -26 15
-17 1 9 10 20 21 23 25 8 25 16 0 43 -21 23 -70 109 -70 124 0 4 9 3 20 -4 11
-7 20 -20 20 -29 0 -9 18 -39 40 -65 43 -52 70 -102 70 -128 0 -9 7 -19 15
-22 8 -4 15 -14 15 -23 1 -9 7 -27 15 -41 l15 -25 -6 30 c-4 17 -20 57 -36 89
-15 33 -27 64 -27 70 3 26 -3 37 -31 63 -16 14 -30 33 -30 41 0 9 7 6 20 -9
17 -22 19 -22 20 -5 0 10 -11 29 -25 42 -14 13 -25 28 -25 34 0 17 -51 110
-104 190 -311 466 -706 833 -1176 1093 -112 62 -282 147 -295 147 -3 0 -24 9
-48 20 -53 24 -246 94 -352 126 -264 81 -550 128 -875 144 -107 5 -197 9 -200
8 -3 0 -68 -4 -145 -9z m348 -186 c-13 -2 -33 -2 -45 0 -13 2 -3 4 22 4 25 0
35 -2 23 -4z m310 -30 c-7 -2 -19 -2 -25 0 -7 3 -2 5 12 5 14 0 19 -2 13 -5z
m-1186 -49 c-3 -3 -12 -4 -19 -1 -8 3 -5 6 6 6 11 1 17 -2 13 -5z m1470 0 c-3
-3 -12 -4 -19 -1 -8 3 -5 6 6 6 11 1 17 -2 13 -5z m-417 -55 c499 -52 1032
-252 1460 -547 357 -246 705 -612 919 -967 164 -271 294 -581 371 -885 93
-365 120 -746 79 -1130 -45 -429 -178 -839 -402 -1240 -29 -53 -195 -310 -206
-320 -4 -3 -19 -23 -36 -45 -113 -154 -322 -368 -510 -526 -22 -19 -45 -38
-52 -44 -6 -5 -27 -20 -45 -33 -57 -40 -143 -101 -154 -111 -7 -5 -15 -7 -18
-4 -3 4 -6 1 -6 -6 0 -7 -13 -17 -30 -22 -16 -6 -30 -15 -30 -20 0 -5 -6 -9
-13 -9 -8 0 -25 -9 -38 -21 -25 -22 -68 -43 -81 -41 -5 1 -8 -3 -8 -8 0 -6 -5
-10 -10 -10 -6 0 -20 -9 -32 -20 -12 -10 -25 -17 -29 -14 -5 3 -18 -3 -28 -13
-11 -10 -42 -26 -68 -36 -26 -10 -55 -22 -64 -27 -8 -4 -51 -22 -95 -40 -43
-18 -92 -38 -109 -45 -26 -11 -142 -48 -315 -100 -25 -7 -88 -22 -140 -34
-713 -152 -1434 -59 -2095 271 -159 79 -247 132 -390 232 -116 82 -108 76
-239 187 -633 539 -1023 1268 -1116 2089 -16 137 -17 548 -1 675 60 493 210
936 454 1340 38 63 180 263 243 342 220 276 586 591 884 761 432 248 929 402
1390 432 143 9 420 4 560 -11z m-2497 -474 c-3 -9 -8 -14 -10 -11 -3 3 -2 9 2
15 9 16 15 13 8 -4z m4552 -405 c16 -17 16 -20 3 -15 -9 4 -19 13 -22 21 -7
19 -2 18 19 -6z m462 -483 c14 -9 18 -27 5 -27 -9 0 -42 53 -42 67 0 4 6 -1
12 -12 6 -11 17 -24 25 -28z m33 -47 c0 -5 -2 -10 -4 -10 -3 0 -8 5 -11 10 -3
6 -1 10 4 10 6 0 11 -4 11 -10z m38 -53 c18 -20 9 -35 -11 -19 -8 7 -17 9 -20
5 -4 -3 -7 5 -7 19 0 28 13 46 19 26 2 -7 10 -21 19 -31z m-5594 -3712 c30
-45 15 -41 -23 8 -7 9 -9 17 -3 17 5 0 17 -11 26 -25z m115 -159 c-3 -3 -11 5
-18 17 -13 21 -12 21 5 5 10 -10 16 -20 13 -22z m32 -33 c13 -16 12 -17 -3 -4
-10 7 -18 15 -18 17 0 8 8 3 21 -13z m5079 9 c0 -13 -79 -96 -86 -90 -3 4 14
27 37 52 46 48 49 51 49 38z m90 -21 c0 -5 -7 -14 -15 -21 -12 -10 -15 -10
-15 2 0 8 3 18 7 21 9 10 23 9 23 -2z m-57 -56 c-3 -9 -8 -14 -10 -11 -3 3 -2
9 2 15 9 16 15 13 8 -4z m77 -8 c0 -2 -10 -12 -22 -23 l-23 -19 19 23 c18 21
26 27 26 19z m-946 -592 c-10 -8 -23 -15 -28 -15 -6 0 -1 7 10 15 10 8 23 15
28 15 6 0 1 -7 -10 -15z m-44 -29 c0 -2 -9 -6 -20 -9 -11 -3 -18 -1 -14 4 5 9
34 13 34 5z m-53 -32 c-3 -3 -12 -4 -19 -1 -8 3 -5 6 6 6 11 1 17 -2 13 -5z
m-2534 -301 c-7 -2 -19 -2 -25 0 -7 3 -2 5 12 5 14 0 19 -2 13 -5z m1804 1
c-3 -3 -12 -4 -19 -1 -8 3 -5 6 6 6 11 1 17 -2 13 -5z m-1599 -51 c-10 -2 -26
-2 -35 0 -10 3 -2 5 17 5 19 0 27 -2 18 -5z m1415 0 c-7 -2 -21 -2 -30 0 -10
3 -4 5 12 5 17 0 24 -2 18 -5z m-1330 -20 c-7 -2 -21 -2 -30 0 -10 3 -4 5 12
5 17 0 24 -2 18 -5z m1240 0 c-7 -2 -19 -2 -25 0 -7 3 -2 5 12 5 14 0 19 -2
13 -5z m-50 -10 c-7 -2 -19 -2 -25 0 -7 3 -2 5 12 5 14 0 19 -2 13 -5z m-1086
-9 c-3 -3 -12 -4 -19 -1 -8 3 -5 6 6 6 11 1 17 -2 13 -5z m96 -11 c-13 -2 -33
-2 -45 0 -13 2 -3 4 22 4 25 0 35 -2 23 -4z m870 0 c-13 -2 -35 -2 -50 0 -16
2 -5 4 22 4 28 0 40 -2 28 -4z m-703 -23 c-9 -4 -31 -5 -50 0 -34 8 -33 8 15
9 34 0 45 -3 35 -9z m410 6 c0 -8 -61 -12 -66 -4 -3 4 11 8 30 8 20 0 36 -2
36 -4z m137 -3 c-20 -2 -52 -2 -70 0 -17 2 0 4 38 4 39 0 53 -2 32 -4z"/>
<path d="M6525 8850 l-80 -6 70 -1 c39 -1 95 2 125 7 54 7 54 7 10 7 -25 0
-81 -4 -125 -7z"/>
<path d="M6758 8853 c7 -3 16 -2 19 1 4 3 -2 6 -13 5 -11 0 -14 -3 -6 -6z"/>
<path d="M6858 8853 c6 -2 18 -2 25 0 6 3 1 5 -13 5 -14 0 -19 -2 -12 -5z"/>
<path d="M6913 8853 c9 -2 23 -2 30 0 6 3 -1 5 -18 5 -16 0 -22 -2 -12 -5z"/>
<path d="M7000 8848 c25 -5 52 -12 60 -16 8 -3 35 -6 60 -7 25 -2 35 -1 22 2
-12 2 -20 7 -18 11 2 4 -6 7 -17 7 -12 1 -51 4 -87 7 -59 6 -61 5 -20 -4z"/>
<path d="M6325 8833 c-27 -2 -59 -8 -70 -13 -11 -5 -49 -14 -85 -20 -160 -25
-262 -51 -430 -107 -74 -24 -189 -68 -219 -83 -9 -4 -36 -17 -61 -28 -123 -56
-201 -95 -260 -131 -36 -22 -83 -50 -105 -62 -121 -66 -359 -254 -517 -409
-65 -63 -118 -121 -118 -129 0 -8 -3 -12 -6 -8 -9 8 -124 -131 -124 -149 0 -9
-4 -12 -10 -9 -5 3 -10 0 -10 -9 0 -8 -3 -16 -7 -18 -5 -1 -16 -19 -26 -38
-16 -30 -11 -27 37 24 31 32 59 56 62 53 4 -3 -8 -29 -25 -57 -17 -28 -31 -60
-31 -73 0 -13 -9 -26 -22 -32 -14 -6 -22 -17 -20 -29 2 -11 -1 -15 -7 -11 -6
3 -11 -1 -11 -9 0 -9 4 -16 8 -16 11 0 52 47 52 59 0 5 3 11 8 13 4 2 28 28
52 58 86 105 291 312 405 411 83 71 263 201 375 271 91 57 358 198 374 198 3
0 29 11 58 24 187 84 513 173 753 205 44 6 115 16 157 22 43 6 154 9 248 8 93
-1 173 0 177 4 3 4 -73 7 -169 7 -180 0 -242 6 -232 21 3 5 -2 9 -11 9 -9 0
-13 -4 -10 -10 7 -11 -5 -12 -84 -10 -40 1 -51 -2 -46 -11 6 -9 -4 -10 -42 -5
-27 3 -63 2 -79 -3 -16 -6 -66 -12 -111 -14 -45 -2 -88 -9 -95 -14 -7 -6 -31
-14 -53 -17 -37 -7 -93 -22 -172 -47 -71 -22 -223 -56 -223 -49 0 4 18 13 40
20 22 7 40 17 40 22 0 4 3 7 8 6 4 -1 54 14 112 34 58 20 132 44 165 53 33 10
71 21 85 25 14 4 61 16 105 25 44 9 90 21 103 26 13 5 49 9 80 10 31 1 68 5
82 9 22 7 21 8 -10 7 -19 0 -57 -2 -85 -4z m-58 -109 c-3 -3 -12 -4 -19 -1 -8
3 -5 6 6 6 11 1 17 -2 13 -5z m-867 -221 c-8 -3 -17 -9 -20 -12 -3 -3 -39 -23
-80 -44 -81 -40 -123 -64 -165 -91 -30 -20 -45 -15 -25 9 24 29 244 145 275
144 17 0 23 -3 15 -6z m-940 -723 c0 -5 -4 -10 -10 -10 -5 0 -10 5 -10 10 0 6
5 10 10 10 6 0 10 -4 10 -10z m-40 -45 c-13 -14 -28 -25 -33 -25 -6 0 0 11 13
25 13 14 28 25 33 25 6 0 0 -11 -13 -25z"/>
<path d="M7330 8798 c85 -17 169 -36 185 -43 29 -13 139 -52 220 -80 22 -7 51
-12 64 -12 13 1 26 -3 28 -9 8 -22 -127 0 -287 47 -142 42 -637 102 -679 82
-9 -4 46 -10 129 -14 142 -7 295 -27 375 -48 22 -6 58 -15 80 -20 67 -15 195
-51 213 -60 9 -5 44 -16 77 -26 33 -9 71 -22 85 -27 14 -6 34 -14 45 -19 83
-34 157 -70 153 -74 -3 -3 -32 5 -64 19 -78 32 -197 76 -208 76 -4 0 -22 6
-39 14 -94 43 -532 127 -645 124 l-67 -1 75 -7 c385 -37 790 -170 1135 -374
86 -50 271 -171 306 -200 14 -12 38 -30 53 -41 16 -11 33 -25 40 -31 6 -5 43
-37 81 -69 89 -75 175 -157 175 -168 0 -4 -17 9 -39 30 -41 41 -116 106 -228
198 -7 6 -19 16 -27 23 -13 10 -175 116 -261 169 -76 47 -216 119 -300 154
-55 23 -114 47 -132 55 -17 8 -37 14 -45 14 -8 0 -18 4 -24 8 -5 5 -43 19 -84
32 -41 12 -93 28 -115 35 -22 7 -76 20 -120 30 -44 9 -91 21 -105 25 -37 12
-134 29 -241 42 -128 15 -593 16 -699 1 -47 -6 -123 -17 -170 -23 -47 -6 -93
-16 -102 -21 -10 -5 -27 -9 -38 -9 -11 0 -53 -9 -93 -21 -39 -11 -85 -24 -102
-29 -99 -28 -136 -40 -183 -59 -29 -11 -62 -21 -72 -21 -11 0 -20 -4 -20 -9 0
-5 -13 -12 -30 -16 -16 -4 -32 -11 -35 -16 -4 -5 -16 -9 -28 -8 -14 0 -16 2
-7 6 8 2 38 15 65 28 28 13 78 34 113 46 34 12 62 26 62 30 0 5 10 8 23 7 12
0 49 8 82 19 118 39 259 73 304 73 16 0 32 4 35 9 3 5 29 11 58 14 107 11 323
38 333 42 6 2 -23 4 -64 4 -70 1 -246 -18 -356 -39 -124 -23 -212 -42 -235
-50 -14 -4 -52 -16 -85 -26 -33 -9 -67 -20 -75 -24 -8 -4 -60 -22 -115 -40
-285 -94 -633 -297 -865 -505 -84 -76 -286 -280 -351 -355 -238 -276 -452
-655 -558 -985 -59 -187 -58 -184 -74 -255 -42 -183 -48 -219 -44 -256 l4 -39
1 42 c1 23 7 45 12 48 6 3 10 21 10 38 1 43 59 290 73 303 4 4 7 17 7 29 0 11
4 25 8 31 4 5 16 34 26 64 20 62 27 79 50 133 9 21 16 44 16 52 0 8 5 15 10
15 6 0 10 6 10 13 0 15 79 175 115 232 14 22 28 48 31 58 4 9 10 17 15 17 5 0
9 5 9 10 0 6 14 31 31 58 17 26 29 43 27 37 -7 -19 -33 -70 -38 -75 -3 -3 -14
-22 -25 -42 -11 -21 -23 -38 -27 -38 -5 0 -8 -9 -8 -19 0 -11 -3 -21 -8 -23
-7 -3 -92 -171 -92 -182 0 -3 -11 -29 -24 -58 -64 -143 -82 -194 -141 -408
-83 -303 -119 -668 -96 -977 7 -87 16 -178 21 -203 5 -25 14 -76 20 -115 27
-174 79 -354 174 -607 101 -270 336 -644 555 -883 302 -329 575 -526 953 -688
128 -55 126 -54 109 -34 -7 9 -20 17 -27 17 -8 0 -14 5 -14 10 0 6 -7 10 -16
10 -23 0 -264 126 -375 195 -50 32 -251 175 -259 185 -3 3 -15 13 -28 22 -35
24 -179 155 -250 228 -163 168 -317 363 -421 535 -51 85 -160 299 -191 375
-12 30 -28 69 -35 85 -7 17 -18 48 -25 70 -7 22 -16 49 -21 60 -4 11 -15 47
-25 80 -9 33 -20 69 -24 80 -8 18 -23 86 -49 210 -19 91 -40 258 -47 375 -13
194 -1 540 18 540 6 0 7 -20 2 -52 -11 -84 -8 -485 5 -594 13 -103 17 -131 51
-299 129 -655 524 -1302 1034 -1695 39 -30 73 -57 76 -60 22 -24 185 -129 295
-190 389 -217 703 -316 1209 -382 86 -11 95 -14 61 -19 -100 -16 -525 41 -675
91 -14 4 -59 18 -100 30 -191 57 -449 173 -618 278 -46 29 -86 52 -88 52 -3 0
-10 5 -17 10 -7 6 -55 40 -107 76 -52 37 -97 69 -100 73 -3 4 -41 36 -85 71
-109 88 -314 295 -406 410 -85 107 -169 224 -169 235 0 4 -15 29 -34 55 -29
40 -55 85 -110 185 -6 11 -13 22 -16 25 -3 3 -18 33 -35 67 -18 37 -33 56 -37
50 -4 -7 -8 4 -8 23 0 28 -3 32 -11 20 -8 -11 -9 -8 -4 14 5 23 3 27 -10 23
-12 -5 -14 -1 -9 20 5 18 4 24 -5 19 -7 -5 -11 2 -11 19 0 15 -4 24 -10 20 -6
-4 -10 7 -10 24 0 17 -5 31 -11 31 -5 0 -7 5 -4 10 7 12 -15 80 -27 80 -4 0
-5 7 -1 15 3 9 -3 23 -13 31 -11 9 -14 13 -8 10 7 -3 9 6 6 26 -3 20 -7 26
-13 17 -6 -10 -9 -9 -14 6 -4 11 -11 30 -17 41 -6 12 -7 32 -3 45 6 20 5 22
-6 12 -11 -11 -10 -24 3 -75 30 -114 41 -153 47 -158 3 -3 6 -9 6 -15 1 -18
37 -130 56 -172 10 -23 19 -46 19 -51 0 -4 11 -32 25 -60 14 -29 25 -56 25
-62 0 -6 4 -18 10 -28 5 -9 21 -42 34 -72 114 -248 309 -522 536 -751 319
-321 623 -521 1042 -685 142 -55 270 -97 348 -113 25 -5 87 -19 138 -30 50
-11 109 -21 130 -22 20 -2 42 -6 47 -10 14 -10 135 -16 135 -6 0 4 -26 7 -58
7 -32 0 -62 4 -68 8 -5 5 -43 15 -84 22 -140 23 -410 103 -410 121 0 5 -9 9
-20 9 -11 0 -20 7 -20 15 0 11 -8 13 -32 10 l-33 -5 29 11 c29 12 50 8 166
-32 84 -29 341 -78 520 -100 124 -15 519 -15 640 1 223 28 406 67 590 126 58
19 110 34 115 34 36 -1 -151 -68 -312 -111 -110 -29 -148 -38 -263 -60 -37 -6
-33 -7 20 -2 87 7 102 9 120 16 8 3 33 8 55 10 58 6 195 36 235 51 48 19 140
34 140 24 0 -4 -7 -8 -15 -8 -9 0 -44 -9 -78 -21 -152 -52 -379 -102 -555
-124 -63 -8 -117 -17 -120 -20 -19 -19 347 27 444 56 17 5 39 9 50 9 32 0 201
45 329 89 66 22 121 38 124 36 9 -10 -228 -99 -339 -129 -30 -8 -98 -26 -150
-40 -52 -14 -160 -35 -240 -48 -131 -21 -179 -23 -488 -23 -227 0 -345 4 -350
10 -4 6 -18 12 -32 13 -28 2 -205 37 -260 51 -19 5 -60 16 -90 25 -30 8 -66
18 -80 22 -14 3 -34 9 -45 14 -11 5 -49 19 -85 31 -83 28 -212 78 -225 88 -5
4 -26 14 -45 21 -67 26 -308 148 -357 180 -121 82 -342 253 -428 330 -63 57
-250 244 -290 290 -46 53 -163 203 -236 300 -61 82 -167 267 -249 435 -45 93
-110 253 -110 272 0 7 -10 34 -21 60 -34 74 -36 80 -68 213 -53 220 -95 506
-90 609 2 25 1 123 0 216 -3 147 -5 162 -13 115 -13 -75 -3 -480 16 -615 30
-215 102 -506 166 -670 4 -11 14 -38 23 -60 61 -161 136 -311 262 -524 61
-103 187 -277 279 -386 81 -96 263 -274 366 -359 52 -43 104 -86 115 -95 26
-21 154 -109 225 -153 299 -187 673 -338 1000 -402 8 -2 22 -5 30 -8 27 -10
224 -38 280 -40 30 -1 61 -6 68 -12 20 -14 605 -12 610 3 2 6 27 11 58 11 54
0 202 20 304 41 160 33 462 125 550 168 24 12 47 21 52 21 13 0 198 92 204
101 3 5 12 9 19 9 8 0 70 35 137 77 225 141 396 271 376 285 -9 6 -6 7 8 4 17
-5 48 21 161 131 149 148 201 203 276 298 69 86 68 84 117 155 24 36 50 71 57
78 7 7 13 27 13 43 0 19 6 32 18 36 19 7 32 22 32 38 0 6 -5 3 -10 -5 -17 -27
-11 -5 11 35 19 36 20 37 15 10 -5 -22 -4 -26 4 -15 5 8 10 26 10 40 0 14 5
32 10 40 9 13 11 13 20 0 8 -11 9 -8 4 13 -5 21 2 43 25 86 17 32 31 66 31 75
0 9 3 16 8 16 4 0 13 15 21 32 7 18 20 48 27 66 8 17 21 48 30 67 8 20 13 43
11 53 -4 15 -5 15 -6 -1 -3 -55 -168 -370 -307 -587 -90 -140 -394 -497 -394
-461 0 9 89 113 119 141 12 11 129 158 165 207 149 207 286 454 371 668 15 39
31 79 36 90 56 130 129 417 165 645 25 161 27 199 27 465 1 223 -3 315 -16
400 -24 155 -54 305 -77 380 -5 17 -16 59 -25 95 -17 68 -26 94 -74 228 -36
98 -46 120 -120 271 -70 144 -76 154 -117 218 -19 28 -34 60 -33 70 0 14 2 15
7 3 4 -8 28 -46 53 -85 76 -114 152 -272 229 -470 23 -60 46 -119 51 -130 4
-11 15 -40 23 -65 8 -25 15 -37 16 -27 0 23 -53 191 -86 272 -13 33 -24 70
-24 83 0 12 -4 22 -9 22 -5 0 -12 20 -15 45 -4 25 -11 45 -17 45 -5 0 -9 8 -9
19 0 26 -89 197 -172 328 -77 124 -109 168 -243 332 -41 51 -214 237 -241 260
-16 14 -63 54 -104 91 -290 255 -686 480 -1045 592 -147 46 -349 97 -451 112
-167 26 -170 16 -4 -16z m-670 -158 c-30 -4 -59 -3 -64 1 -6 5 18 8 55 8 l64
-2 -55 -7z m168 3 c-21 -2 -55 -2 -75 0 -21 2 -4 4 37 4 41 0 58 -2 38 -4z
m115 -4 c-7 -7 -21 -7 -44 -1 l-34 10 45 1 c31 1 41 -2 33 -10z m37 7 c0 -3
-4 -8 -10 -11 -5 -3 -10 -1 -10 4 0 6 5 11 10 11 6 0 10 -2 10 -4z m-467 -23
c-18 -2 -48 -2 -65 0 -18 2 -4 4 32 4 36 0 50 -2 33 -4z m605 0 c-21 -2 -55
-2 -75 0 -21 2 -4 4 37 4 41 0 58 -2 38 -4z m-775 -20 c-13 -2 -33 -2 -45 0
-13 2 -3 4 22 4 25 0 35 -2 23 -4z m900 0 c-13 -2 -33 -2 -45 0 -13 2 -3 4 22
4 25 0 35 -2 23 -4z m-996 -9 c-3 -3 -12 -4 -19 -1 -8 3 -5 6 6 6 11 1 17 -2
13 -5z m1076 -1 c-7 -2 -21 -2 -30 0 -10 3 -4 5 12 5 17 0 24 -2 18 -5z m-223
-22 c30 -6 102 -18 160 -27 251 -39 552 -137 805 -263 72 -35 149 -77 172 -93
23 -15 44 -28 47 -28 16 0 255 -172 361 -260 71 -59 262 -251 323 -325 37 -44
69 -82 72 -85 20 -19 105 -142 172 -249 204 -325 356 -728 402 -1072 9 -63 20
-142 26 -175 13 -78 13 -490 0 -563 -5 -31 -17 -112 -26 -181 -28 -214 -114
-511 -203 -705 -173 -376 -338 -614 -625 -900 -166 -165 -316 -286 -494 -397
-150 -93 -347 -192 -480 -239 -31 -11 -64 -24 -72 -28 -8 -4 -42 -16 -75 -25
-33 -10 -79 -24 -102 -33 -23 -8 -53 -12 -65 -10 -18 3 -16 5 8 6 17 0 33 4
37 7 3 3 52 21 109 40 57 19 112 38 123 43 11 5 36 15 55 22 64 23 264 119
335 161 118 70 305 197 390 266 166 134 471 462 549 590 24 40 -29 -9 -84 -78
-19 -24 -39 -48 -45 -54 -5 -6 -25 -28 -42 -49 -46 -53 -41 -33 5 22 20 25 57
73 82 106 57 76 102 126 108 121 6 -7 32 20 32 33 0 6 4 11 9 11 5 0 13 10 17
23 4 12 10 24 14 27 22 15 149 251 191 355 4 11 14 36 22 55 8 19 23 58 32 85
9 28 21 59 26 70 17 42 39 116 39 135 0 10 5 22 10 25 6 3 9 21 9 38 -1 20 -3
24 -6 12 -2 -11 -8 -29 -12 -40 -5 -11 -21 -60 -36 -110 -16 -49 -31 -94 -35
-100 -3 -5 -15 -38 -26 -72 -10 -35 -22 -63 -26 -63 -5 0 -8 -5 -8 -12 0 -15
-103 -225 -124 -253 -31 -42 -25 -5 9 55 19 34 35 63 35 65 0 2 16 39 36 82
68 146 122 304 168 488 41 165 47 181 41 115 -2 -30 -7 -73 -11 -94 -5 -26 -4
-37 3 -33 6 4 14 28 18 54 3 27 10 64 15 83 16 67 30 166 41 285 56 661 -106
1315 -460 1855 -226 346 -565 670 -919 879 -460 271 -987 404 -1536 388 -183
-5 -228 -10 -431 -43 -414 -69 -904 -288 -1230 -549 -170 -136 -339 -302 -457
-449 -329 -409 -543 -907 -622 -1442 -18 -120 -20 -397 -5 -461 9 -33 9 -47 0
-56 -13 -13 -15 -160 -2 -220 5 -23 17 -96 27 -162 9 -66 21 -124 26 -130 4
-5 8 -20 8 -35 1 -24 1 -25 16 -5 15 19 16 18 9 -14 -5 -23 -4 -31 4 -27 7 4
11 -1 11 -14 0 -11 4 -28 9 -38 21 -40 40 -126 31 -137 -13 -15 -1 -54 60
-200 65 -154 179 -379 200 -395 4 -3 10 -12 13 -20 4 -13 6 -12 6 1 1 9 -6 22
-14 29 -8 7 -15 20 -15 29 0 9 -7 27 -16 39 -8 12 -13 28 -11 35 3 7 6 5 6 -5
1 -10 6 -18 11 -18 6 0 10 -5 10 -11 0 -11 97 -166 117 -187 16 -17 17 -23 1
-16 -7 3 -28 23 -45 46 -18 22 -33 36 -33 31 0 -8 20 -40 42 -68 5 -5 38 -50
75 -100 267 -361 625 -665 1003 -851 115 -56 302 -130 459 -180 8 -2 12 -7 9
-9 -6 -7 -127 31 -244 76 -56 21 -107 39 -113 39 -6 0 -11 5 -11 10 0 6 -6 10
-14 10 -13 0 -210 96 -246 120 -8 5 -59 36 -112 69 -420 258 -791 661 -1025
1116 -152 295 -260 648 -297 975 -21 179 -21 511 0 694 31 271 119 589 230
835 49 108 59 127 114 226 353 633 943 1123 1620 1345 98 33 263 77 334 91 83
16 327 49 391 53 99 6 446 -3 505 -13z m-932 2 c-10 -2 -26 -2 -35 0 -10 3 -2
5 17 5 19 0 27 -2 18 -5z m1240 0 c-10 -2 -26 -2 -35 0 -10 3 -2 5 17 5 19 0
27 -2 18 -5z m-1321 -19 c-3 -3 -12 -4 -19 -1 -8 3 -5 6 6 6 11 1 17 -2 13 -5z
m1406 -1 c-7 -2 -19 -2 -25 0 -7 3 -2 5 12 5 14 0 19 -2 13 -5z m-1526 -29
c-3 -3 -12 -4 -19 -1 -8 3 -5 6 6 6 11 1 17 -2 13 -5z m782 2 c-8 -8 -88 -10
-95 -3 -4 4 17 7 46 7 29 0 51 -2 49 -4z m104 -3 c-7 -2 -19 -2 -25 0 -7 3 -2
5 12 5 14 0 19 -2 13 -5z m70 0 c-7 -2 -21 -2 -30 0 -10 3 -4 5 12 5 17 0 24
-2 18 -5z m680 0 c-7 -2 -19 -2 -25 0 -7 3 -2 5 12 5 14 0 19 -2 13 -5z m-605
-10 c-10 -2 -28 -2 -40 0 -13 2 -5 4 17 4 22 1 32 -1 23 -4z m669 -9 c-3 -3
-12 -4 -19 -1 -8 3 -5 6 6 6 11 1 17 -2 13 -5z m388 -32 c-3 -3 -11 0 -18 7
-9 10 -8 11 6 5 10 -3 15 -9 12 -12z m-2242 1 c-7 -2 -19 -2 -25 0 -7 3 -2 5
12 5 14 0 19 -2 13 -5z m1950 0 c-7 -2 -19 -2 -25 0 -7 3 -2 5 12 5 14 0 19
-2 13 -5z m-1996 -19 c-3 -3 -12 -4 -19 -1 -8 3 -5 6 6 6 11 1 17 -2 13 -5z
m2050 0 c-3 -3 -12 -4 -19 -1 -8 3 -5 6 6 6 11 1 17 -2 13 -5z m-910 -20 l102
-6 -4 -76 c-3 -43 -7 -165 -10 -272 -9 -289 -15 -443 -20 -458 -3 -8 -20 -12
-47 -11 -81 3 -78 -2 -71 112 6 103 9 198 15 476 2 117 0 155 -9 158 -10 4
-13 -36 -14 -174 -1 -98 -3 -200 -5 -228 -1 -27 -5 -112 -7 -188 -3 -76 -8
-141 -11 -144 -3 -4 -6 0 -6 7 0 10 -5 9 -18 -3 -10 -10 -29 -17 -41 -17 l-22
0 7 380 c5 262 4 380 -3 380 -7 0 -12 -33 -13 -82 -1 -46 -3 -123 -5 -173 -1
-49 -4 -171 -5 -270 -2 -237 1 -226 -66 -222 -66 4 -82 16 -66 52 6 14 8 25 3
25 -12 0 -3 92 10 101 8 5 7 8 -2 11 -11 4 -12 9 -2 26 7 12 9 23 4 26 -4 3
-7 25 -5 48 2 24 5 92 6 151 1 60 6 111 10 113 5 3 4 12 -2 19 -7 8 -8 20 -4
27 5 7 9 58 10 113 1 55 3 103 3 106 1 5 113 3 288 -7z m990 -10 c-3 -3 -12
-4 -19 -1 -8 3 -5 6 6 6 11 1 17 -2 13 -5z m40 -20 c-3 -3 -12 -4 -19 -1 -8 3
-5 6 6 6 11 1 17 -2 13 -5z m-1395 -49 c2 -16 -1 -32 -7 -35 -6 -3 -11 14 -13
40 -4 50 14 46 20 -5z m560 -9 c-2 -20 -8 -36 -13 -36 -10 0 -12 63 -3 73 13
13 20 -3 16 -37z m-1625 28 c-3 -3 -12 -4 -19 -1 -8 3 -5 6 6 6 11 1 17 -2 13
-5z m2568 -14 c3 -5 -1 -10 -10 -10 -9 0 -13 5 -10 10 3 6 8 10 10 10 2 0 7
-4 10 -10z m-2608 -6 c-3 -3 -12 -4 -19 -1 -8 3 -5 6 6 6 11 1 17 -2 13 -5z
m90 0 c-3 -3 -12 -4 -19 -1 -8 3 -5 6 6 6 11 1 17 -2 13 -5z m738 -41 c9 -45
-12 -51 -24 -7 -10 37 -5 63 9 47 4 -4 11 -22 15 -40z m1117 -5 c-7 -7 -12
-22 -12 -35 0 -13 -5 -23 -11 -23 -8 0 -9 12 -4 37 9 48 15 57 28 44 8 -8 8
-14 -1 -23z m1078 16 c0 -2 -7 -4 -15 -4 -8 0 -15 4 -15 10 0 5 7 7 15 4 8 -4
15 -8 15 -10z m-343 0 c-3 -3 -12 -4 -19 -1 -8 3 -5 6 6 6 11 1 17 -2 13 -5z
m-2787 -24 c-8 -5 -19 -10 -25 -10 -5 0 -3 5 5 10 8 5 20 10 25 10 6 0 3 -5
-5 -10z m2834 1 c4 -5 -3 -7 -14 -4 -23 6 -26 13 -6 13 8 0 17 -4 20 -9z m370
-30 c-2 -3 -12 3 -22 13 -16 17 -16 18 5 5 12 -7 20 -15 17 -18z m-2544 -17
c12 -31 13 -54 2 -54 -7 0 -32 57 -32 73 0 18 22 4 30 -19z m2217 20 c-3 -3
-12 -4 -19 -1 -8 3 -5 6 6 6 11 1 17 -2 13 -5z m-2947 -18 c0 -2 -9 -6 -20 -9
-11 -3 -18 -1 -14 4 5 9 34 13 34 5z m2392 -28 c-7 -7 -12 -20 -12 -30 0 -10
-4 -18 -10 -18 -13 0 -13 10 1 49 8 23 15 29 22 22 8 -8 8 -14 -1 -23z m858
-8 c0 -5 8 -10 18 -12 14 -3 13 -5 -5 -10 -15 -4 -32 1 -48 14 -34 26 -32 39
5 27 17 -6 30 -15 30 -19z m-3070 -46 c-36 -20 -77 -45 -92 -55 -31 -22 -57
-26 -36 -6 7 7 20 16 28 20 8 3 42 22 75 41 33 19 67 35 75 35 8 1 -14 -15
-50 -35z m2900 21 c7 -8 9 -15 6 -15 -4 0 -14 7 -22 15 -9 8 -11 15 -6 15 5 0
15 -7 22 -15z m-2614 -41 c15 -36 12 -56 -6 -38 -12 12 -25 74 -16 74 4 0 14
-16 22 -36z m2949 16 c3 -5 1 -10 -4 -10 -6 0 -11 5 -11 10 0 6 2 10 4 10 3 0
8 -4 11 -10z m-268 -16 c-3 -3 -12 -4 -19 -1 -8 3 -5 6 6 6 11 1 17 -2 13 -5z
m-487 -10 c0 -14 -33 -74 -41 -74 -12 0 -12 4 8 45 15 30 33 47 33 29z m-2343
-31 c4 -10 17 -32 30 -49 13 -17 23 -34 23 -38 0 -4 17 -38 39 -74 21 -37 60
-107 86 -157 27 -49 77 -140 112 -202 35 -62 63 -119 63 -128 0 -21 -27 -19
-61 5 l-28 21 -38 -24 c-21 -13 -48 -27 -60 -31 -18 -6 -23 -15 -23 -41 0 -66
-19 -83 -42 -37 -8 15 -28 52 -45 82 -96 174 -253 462 -275 506 l-26 52 106
66 c59 36 113 65 120 66 7 0 16 -8 19 -17z m-572 -23 c-10 -11 -22 -20 -28
-20 -5 0 1 9 14 20 31 25 37 25 14 0z m3480 10 c3 -6 -1 -7 -9 -4 -18 7 -21
14 -7 14 6 0 13 -4 16 -10z m-346 -70 c44 -27 84 -50 88 -50 5 -1 19 -10 32
-21 23 -19 23 -20 6 -39 -10 -11 -21 -17 -25 -15 -5 3 -6 -3 -4 -12 3 -11 -22
-60 -58 -118 -35 -55 -115 -184 -178 -287 -63 -104 -119 -188 -125 -188 -13 0
-186 100 -209 121 -18 17 -17 20 26 91 128 207 217 352 265 428 29 47 61 97
71 112 9 16 20 28 24 28 3 0 43 -22 87 -50z m416 20 c3 -5 2 -10 -4 -10 -5 0
-13 5 -16 10 -3 6 -2 10 4 10 5 0 13 -4 16 -10z m-3636 -29 c-13 -11 -28 -20
-32 -21 -4 0 5 11 20 24 15 13 30 23 32 20 2 -2 -7 -12 -20 -23z m3696 -21 c3
-6 -1 -7 -9 -4 -18 7 -21 14 -7 14 6 0 13 -4 16 -10z m65 -46 c0 -2 -7 -4 -15
-4 -8 0 -15 4 -15 10 0 5 7 7 15 4 8 -4 15 -8 15 -10z m36 -39 c15 -13 26 -26
24 -28 -3 -3 -18 8 -35 24 -37 35 -29 38 11 4z m-3481 -31 c9 -14 14 -29 10
-32 -7 -7 -45 34 -45 49 0 17 18 9 35 -17z m3575 -54 c19 -16 32 -31 29 -34
-2 -2 -22 11 -43 30 -47 42 -35 46 14 4z m-410 12 c0 -14 -40 -56 -46 -49 -3
3 2 17 13 31 18 25 33 33 33 18z m515 -60 c-5 -5 -45 36 -45 46 0 3 11 -5 25
-18 14 -13 23 -26 20 -28z m75 -147 c0 -11 -139 136 -140 148 0 4 31 -25 70
-65 38 -40 70 -77 70 -83z m-45 117 c-3 -3 -11 0 -18 7 -9 10 -8 11 6 5 10 -3
15 -9 12 -12z m-3918 -68 c-10 -10 -47 26 -47 45 0 11 7 8 27 -11 15 -15 24
-31 20 -34z m3948 36 c10 -11 14 -20 9 -20 -5 0 -15 9 -22 20 -7 11 -11 20 -9
20 2 0 12 -9 22 -20z m65 -85 c0 -4 -9 4 -20 18 -11 14 -20 28 -20 32 0 4 9
-4 20 -18 11 -14 20 -28 20 -32z m-420 27 c0 -14 -49 -56 -57 -49 -3 4 4 18
17 32 24 25 40 32 40 17z m467 -142 c13 -14 23 -28 23 -33 0 -4 -25 21 -55 57
-30 35 -55 70 -55 77 0 7 15 -7 32 -32 18 -24 43 -55 55 -69z m-4277 -5 c13
-14 20 -28 17 -32 -8 -7 -57 35 -57 49 0 15 16 8 40 -17z m-417 -40 c-3 -9 -8
-14 -10 -11 -3 3 -2 9 2 15 9 16 15 13 8 -4z m31 -20 c-9 -14 -20 -25 -25 -25
-5 0 1 11 13 25 12 14 23 25 25 25 2 0 -4 -11 -13 -25z m4367 -27 c-18 -16
-36 -27 -39 -24 -9 10 50 66 61 59 6 -3 -4 -19 -22 -35z m372 -10 c15 -20 27
-40 27 -44 0 -9 -47 52 -62 81 -13 25 0 11 35 -37z m-3293 23 c0 -10 -62 -42
-69 -36 -3 4 2 11 12 16 9 6 17 16 17 24 0 8 7 11 20 8 11 -3 20 -8 20 -12z
m-1500 -1 c0 -5 -5 -10 -11 -10 -5 0 -7 5 -4 10 3 6 8 10 11 10 2 0 4 -4 4
-10z m1420 -48 c0 -4 -14 -13 -31 -19 -31 -12 -31 -12 -14 7 18 20 45 27 45
12z m3060 -61 c-19 -14 -145 -113 -280 -219 -135 -106 -281 -221 -325 -255
-44 -34 -100 -82 -125 -107 -25 -24 -94 -89 -155 -144 -60 -54 -142 -129 -181
-165 -38 -36 -90 -84 -115 -105 -24 -22 -73 -67 -109 -100 -36 -34 -133 -122
-215 -196 -82 -74 -163 -149 -180 -167 -21 -22 -48 -36 -91 -47 -75 -19 -74
-19 -74 -2 0 7 -6 19 -14 25 -10 8 -19 6 -39 -11 -81 -72 -116 -84 -153 -55
-50 39 -123 17 -149 -47 -8 -18 -20 -38 -28 -44 -13 -11 -431 -152 -647 -218
-47 -15 -96 -30 -110 -35 -14 -4 -119 -38 -235 -74 -115 -36 -221 -70 -235
-75 -14 -5 -52 -16 -85 -26 -73 -21 -185 -55 -325 -99 -58 -18 -145 -45 -195
-59 -104 -31 -400 -123 -582 -181 -7 -3 -13 -11 -13 -19 0 -15 -37 -32 -47
-23 -3 3 6 17 18 31 25 26 81 47 329 125 74 24 146 47 160 51 14 5 77 24 140
44 390 119 535 164 860 266 85 27 209 65 275 85 66 20 152 47 190 60 39 13
112 36 163 51 50 15 92 32 92 36 0 5 -14 21 -32 36 -41 35 -297 261 -363 321
-28 25 -66 59 -85 75 -32 27 -177 156 -225 200 -55 50 -411 364 -436 384 -32
26 -36 44 -14 62 13 11 14 10 10 -2 -4 -10 56 -54 207 -153 117 -76 216 -142
219 -147 3 -5 13 -6 21 -3 9 4 114 -41 244 -103 438 -210 664 -321 664 -328 0
-3 -16 -33 -37 -65 -35 -58 -36 -60 -17 -74 27 -20 33 -19 46 11 11 23 116
102 191 144 15 8 72 45 127 82 99 68 418 279 795 526 110 72 279 182 375 245
96 63 263 172 370 242 107 70 249 162 314 205 66 44 124 76 130 73 5 -4 -6
-18 -24 -32z m457 -13 c-3 -8 -6 -5 -6 6 -1 11 2 17 5 13 3 -3 4 -12 1 -19z
m-4657 -39 c0 -14 -9 -11 -41 12 -16 11 -27 25 -23 30 6 10 64 -27 64 -42z
m4590 16 c0 -5 -5 -3 -10 5 -5 8 -10 20 -10 25 0 6 5 3 10 -5 5 -8 10 -19 10
-25z m-4930 -9 c0 -3 -4 -8 -10 -11 -5 -3 -10 -1 -10 4 0 6 5 11 10 11 6 0 10
-2 10 -4z m4971 -51 c7 -13 3 -12 -10 5 -11 14 -21 30 -21 35 0 11 14 -7 31
-40z m124 -72 c33 -59 64 -116 68 -127 13 -32 80 -140 97 -156 16 -15 32 -45
35 -65 1 -5 14 -36 28 -68 15 -32 27 -66 27 -77 0 -10 5 -22 10 -25 6 -3 10
-15 10 -26 0 -10 4 -27 9 -37 40 -73 106 -403 116 -577 13 -211 12 -253 -2
-248 -17 7 -22 31 -26 123 -2 41 -4 -19 -6 -135 -1 -115 -4 -221 -6 -235 -2
-14 -8 -63 -14 -110 -26 -218 -119 -584 -187 -740 -8 -19 -19 -44 -23 -55 -34
-82 -50 -119 -83 -185 -21 -41 -38 -69 -38 -62 0 8 6 26 14 40 8 15 23 47 34
72 11 25 30 66 41 92 12 26 21 52 21 58 0 5 4 18 10 28 40 72 132 407 159 577
27 169 33 222 40 355 11 188 -17 567 -53 715 -3 11 -12 54 -21 95 -45 210
-138 480 -230 670 -80 165 -90 185 -97 188 -10 5 -10 22 0 22 4 0 34 -48 67
-107z m-4988 65 c-3 -8 -6 -5 -6 6 -1 11 2 17 5 13 3 -3 4 -12 1 -19z m4548
-13 c-16 -13 -32 -21 -35 -18 -3 3 1 8 8 10 7 3 18 11 25 19 7 7 17 13 22 13
6 0 -3 -11 -20 -24z m-4586 -45 c-19 -37 -39 -60 -39 -45 0 8 49 85 55 85 3 0
-5 -18 -16 -40z m145 21 c21 -19 126 -86 281 -178 44 -26 133 -80 198 -120 64
-40 122 -73 127 -73 16 0 12 -15 -22 -73 -108 -185 -103 -178 -123 -158 -6 6
-84 54 -175 109 -91 54 -225 136 -299 180 -74 45 -138 82 -143 82 -4 0 -8 4
-8 10 0 11 133 240 139 240 3 0 14 -9 25 -19z m4816 -56 c0 -5 -9 5 -20 23
-26 42 -26 56 0 17 11 -16 20 -34 20 -40z m-5013 -50 c-7 -13 -14 -20 -15 -14
-2 5 2 16 8 24 18 21 20 18 7 -10z m4804 -75 c27 -51 54 -99 59 -104 18 -18
10 -34 -19 -41 -16 -3 -35 -13 -42 -21 -6 -8 -15 -14 -19 -14 -4 0 -43 -20
-86 -43 -435 -240 -485 -267 -502 -267 -5 0 -15 12 -23 27 -8 16 -33 63 -57
106 -24 44 -42 83 -40 89 2 5 28 23 58 40 30 16 152 83 270 148 118 65 240
131 270 148 30 16 61 29 69 29 7 -1 36 -45 62 -97z m-4954 50 c-7 -17 -13 -26
-15 -21 -3 10 15 51 22 51 3 0 -1 -14 -7 -30z m2126 10 c37 0 37 0 37 -39 0
-21 -6 -44 -14 -50 -16 -13 -46 -4 -46 13 0 27 -87 50 -136 37 -22 -6 -29 -13
-29 -32 0 -23 4 -25 87 -35 99 -12 138 -36 138 -85 0 -34 11 -42 45 -33 24 6
25 9 25 89 0 76 -2 84 -21 90 -12 4 -19 14 -17 23 3 15 21 17 143 17 77 1 146
-1 153 -3 19 -6 15 -79 -5 -91 -25 -13 -53 4 -46 29 5 19 1 20 -71 20 -72 0
-76 -1 -82 -24 -3 -14 -3 -30 1 -35 11 -18 54 -12 65 9 6 11 20 20 30 20 17 0
20 -7 20 -54 0 -40 -4 -55 -16 -60 -20 -8 -34 1 -34 20 0 11 -9 14 -32 12 -29
-3 -33 -6 -33 -33 l0 -30 68 -3 c64 -3 68 -2 77 23 7 18 17 25 35 25 21 0 25
-5 25 -31 0 -30 1 -31 32 -25 17 3 33 8 36 11 2 2 6 42 9 89 4 79 3 86 -15 86
-24 0 -32 8 -25 26 8 21 143 20 143 -1 0 -9 -11 -20 -25 -25 -24 -9 -25 -13
-25 -94 l0 -84 39 -7 c69 -11 81 3 81 95 0 64 -3 80 -15 80 -9 0 -15 9 -15 25
0 24 2 25 65 25 57 0 65 -2 65 -19 0 -10 -9 -21 -20 -24 -15 -4 -20 -14 -20
-41 0 -44 12 -45 59 -4 24 21 36 41 36 57 0 25 3 26 59 29 39 2 62 -1 67 -9
10 -17 0 -39 -18 -39 -21 0 -93 -52 -93 -68 0 -7 19 -36 42 -63 34 -41 47 -49
75 -49 38 0 39 2 17 36 -34 51 6 153 72 180 70 29 138 12 187 -46 39 -46 44
-90 16 -141 -41 -72 -64 -78 -262 -72 -95 3 -174 7 -176 9 -2 2 4 12 13 23 17
18 16 21 -6 55 -13 20 -28 36 -34 36 -17 0 -67 -57 -60 -69 4 -6 16 -11 27
-11 14 0 19 -6 17 -17 -3 -17 -26 -18 -353 -14 -193 3 -388 6 -435 8 -47 1
-104 3 -127 3 -26 1 -43 6 -44 13 -3 28 3 73 10 80 11 12 39 -2 46 -23 13 -40
121 -54 155 -20 39 39 19 53 -94 64 -79 8 -104 18 -115 48 -13 35 0 69 33 90
26 16 42 18 101 13 39 -3 87 -5 108 -5z m3108 -50 c14 0 80 -144 129 -281 40
-111 67 -203 96 -324 8 -33 19 -76 24 -95 8 -33 26 -156 50 -335 14 -107 12
-410 -3 -512 -14 -93 -33 -127 -24 -43 39 358 -6 791 -120 1160 -34 110 -124
341 -157 405 -9 17 -15 37 -15 45 1 11 3 10 6 -2 2 -10 9 -18 14 -18z m-5270
-27 c-12 -20 -14 -14 -5 12 4 9 9 14 11 11 3 -2 0 -13 -6 -23z m-24 -55 c-3
-8 -6 -5 -6 6 -1 11 2 17 5 13 3 -3 4 -12 1 -19z m-50 -110 c-3 -8 -6 -5 -6 6
-1 11 2 17 5 13 3 -3 4 -12 1 -19z m271 -4 c18 -8 32 -20 32 -25 0 -12 -1 -12
-44 6 -20 8 -36 20 -36 25 0 14 12 12 48 -6z m-291 -36 c-3 -8 -6 -5 -6 6 -1
11 2 17 5 13 3 -3 4 -12 1 -19z m5213 -57 c0 -7 -51 -31 -66 -31 -13 0 0 17
19 26 28 15 47 16 47 5z m-5243 -43 c-3 -7 -5 -2 -5 12 0 14 2 19 5 13 2 -7 2
-19 0 -25z m-31 -79 c-9 -21 -16 -48 -16 -59 0 -11 -4 -20 -9 -20 -10 0 7 80
20 95 5 5 9 18 10 30 0 11 3 14 6 7 3 -7 -2 -31 -11 -53z m250 -45 c26 -7 33
-24 9 -24 -21 0 -65 22 -65 33 0 5 7 6 16 3 9 -3 27 -9 40 -12z m-289 -76 c-3
-7 -5 -2 -5 12 0 14 2 19 5 13 2 -7 2 -19 0 -25z m5408 -27 c-6 -4 -25 -13
-42 -19 -38 -13 -47 3 -10 18 29 12 64 13 52 1z m-5418 -23 c-3 -8 -6 -5 -6 6
-1 11 2 17 5 13 3 -3 4 -12 1 -19z m-20 -85 c-3 -10 -5 -2 -5 17 0 19 2 27 5
18 2 -10 2 -26 0 -35z m5610 -35 c-3 -8 -6 -5 -6 6 -1 11 2 17 5 13 3 -3 4
-12 1 -19z m-5630 -45 c-3 -10 -5 -2 -5 17 0 19 2 27 5 18 2 -10 2 -26 0 -35z
m283 4 c0 -5 -15 -5 -32 -2 -41 9 -50 14 -43 24 6 10 75 -11 75 -22z m-299
-89 c-3 -21 -6 -26 -9 -15 -3 17 3 47 11 47 2 0 1 -15 -2 -32z m5676 -40 c-2
-13 -4 -5 -4 17 -1 22 1 32 4 23 2 -10 2 -28 0 -40z m-142 33 c-9 -9 -46 -15
-70 -12 -5 1 -3 6 5 11 19 13 77 13 65 1z m-5548 -108 c-2 -16 -4 -3 -4 27 0
30 2 43 4 28 2 -16 2 -40 0 -55z m150 5 c-3 -7 -5 -2 -5 12 0 14 2 19 5 13 2
-7 2 -19 0 -25z m5560 -50 c-2 -13 -4 -5 -4 17 -1 22 1 32 4 23 2 -10 2 -28 0
-40z m-5471 -8 c13 0 24 -4 24 -10 0 -5 -18 -10 -40 -10 -30 0 -40 4 -40 16 0
11 5 14 16 10 9 -3 27 -6 40 -6z m-109 -122 c-2 -24 -4 -7 -4 37 0 44 2 63 4
43 2 -21 2 -57 0 -80z m5463 1 c0 -5 -21 -9 -47 -9 -51 0 -52 8 -1 20 35 7 48
5 48 -11z m-2130 2 c0 -4 -21 -14 -47 -20 -27 -7 -64 -19 -83 -28 l-35 -15 19
21 c27 30 146 64 146 42z m40 -12 c0 -5 -4 -9 -10 -9 -5 0 -10 7 -10 16 0 8 5
12 10 9 6 -3 10 -10 10 -16z m1525 -17 l230 -7 2 -220 c2 -121 1 -230 -2 -242
-7 -29 -20 -29 -57 2 -16 14 -25 25 -20 25 6 0 13 12 16 28 8 41 11 324 3 347
-7 20 -13 20 -274 15 l-267 -5 -9 -40 c-8 -39 -5 -330 4 -339 7 -8 165 -15
344 -16 154 0 211 -8 193 -25 -12 -12 -579 -15 -601 -4 -19 11 -20 17 -13 238
6 166 11 230 21 241 11 12 34 14 107 12 51 -2 197 -6 323 -10z m-4467 -4 c200
-2 368 -6 374 -9 6 -4 7 -52 1 -134 l-8 -127 -285 3 c-414 5 -422 5 -456 -3
l-31 -7 2 87 c2 48 3 113 4 145 1 51 3 58 19 53 9 -2 181 -6 380 -8z m-441
-60 c-3 -7 -5 -2 -5 12 0 14 2 19 5 13 2 -7 2 -19 0 -25z m2983 -12 c0 -2 -9
-6 -20 -9 -11 -3 -18 -1 -14 4 5 9 34 13 34 5z m-2981 -168 c-1 -102 -4 -140
-9 -113 -16 82 -12 265 6 265 2 0 3 -69 3 -152z m5496 -6 l0 -152 -117 0 -118
0 0 35 0 35 75 0 75 0 0 93 0 92 -75 -3 c-74 -4 -75 -4 -75 20 0 14 2 27 5 30
3 3 56 5 118 4 l112 -1 0 -153z m-562 123 c18 -5 27 -14 27 -27 0 -17 -4 -19
-27 -13 -54 13 -190 17 -212 6 -24 -13 -57 -59 -48 -67 3 -3 20 2 38 11 25 14
51 16 113 13 93 -5 139 -25 154 -65 27 -80 -59 -128 -199 -113 -61 7 -75 12
-105 41 -74 71 -46 190 51 218 32 10 163 7 208 -4z m-2220 -43 c-5 -34 -8 -40
-19 -31 -19 15 -18 44 2 64 22 21 24 17 17 -33z m3100 -46 c1 -36 -1 -66 -5
-66 -5 0 -8 32 -8 72 0 89 11 84 13 -6z m-3025 45 c3 -8 -1 -12 -9 -9 -7 2
-15 10 -17 17 -3 8 1 12 9 9 7 -2 15 -10 17 -17z m2479 -38 c-3 -10 -5 -4 -5
12 0 17 2 24 5 18 2 -7 2 -21 0 -30z m-2593 -48 c11 -8 38 -15 60 -16 37 0 39
-1 18 -11 -16 -8 -33 -8 -62 1 -39 12 -42 11 -83 -23 -238 -200 -269 -213
-213 -93 14 29 29 64 34 78 8 20 21 28 66 38 31 7 58 12 61 12 2 0 19 6 37 14
42 18 58 18 82 0z m2593 -7 c-3 -8 -6 -5 -6 6 -1 11 2 17 5 13 3 -3 4 -12 1
-19z m550 -80 c-3 -7 -5 -2 -5 12 0 14 2 19 5 13 2 -7 2 -19 0 -25z m-2752
-44 c39 -25 72 -49 73 -55 2 -5 -28 -9 -70 -8 -102 1 -336 24 -318 32 8 3 53
15 100 26 46 12 91 28 99 36 24 23 42 18 116 -31z m-3057 -91 l-1 -68 -6 60
c-4 33 -5 63 -3 68 9 20 12 1 10 -60z m122 57 c0 -5 -18 -10 -40 -10 -22 0
-40 5 -40 10 0 6 18 10 40 10 22 0 40 -4 40 -10z m5672 -57 c5 -7 7 -16 4 -21
-3 -5 -10 -60 -16 -123 -17 -168 -100 -494 -166 -649 -9 -19 -19 -44 -24 -55
-43 -104 -110 -249 -118 -255 -4 -3 -13 -17 -19 -32 -7 -16 -17 -28 -23 -28
-15 0 -12 12 10 40 11 14 20 29 20 33 0 5 17 46 39 90 47 99 91 210 91 229 0
8 4 18 9 24 9 9 18 36 66 199 47 160 103 457 106 562 1 22 3 29 6 18 3 -11 10
-25 15 -32z m-346 -55 c5 -8 -28 -8 -84 1 -2 1 -1 5 2 9 6 11 75 2 82 -10z
m-5426 -68 c0 -11 -2 -20 -4 -20 -2 0 -6 9 -9 20 -3 11 -1 20 4 20 5 0 9 -9 9
-20z m135 -90 c7 -11 -7 -18 -45 -22 -14 -2 -27 1 -30 7 -4 8 16 16 62 24 4 0
10 -4 13 -9z m5239 -121 c8 -9 1 -10 -28 -6 -22 4 -44 12 -50 18 -8 9 -1 10
28 6 22 -4 44 -12 50 -18z m183 -221 c-3 -8 -6 -5 -6 6 -1 11 2 17 5 13 3 -3
4 -12 1 -19z m-4563 -69 c25 -45 46 -83 46 -86 0 -3 9 -18 20 -33 l20 -28
-197 -108 c-109 -59 -240 -132 -291 -161 -51 -29 -95 -53 -98 -53 -3 0 -20
-11 -38 -25 -18 -14 -35 -25 -38 -25 -12 0 -139 233 -131 241 7 7 288 164 508
284 50 28 99 55 110 61 35 21 43 15 89 -67z m4299 21 c19 -18 -11 -17 -48 1
l-40 19 40 -6 c22 -3 44 -9 48 -14z m-814 -23 c9 -8 140 -87 291 -177 151 -90
280 -168 285 -175 6 -6 18 -14 28 -18 34 -13 29 -36 -30 -126 -32 -49 -63 -98
-69 -108 -11 -17 -13 -17 -35 3 -13 12 -71 49 -129 83 -58 34 -112 66 -120 71
-131 80 -163 100 -167 100 -2 0 -24 14 -48 30 -24 17 -48 30 -53 30 -5 0 -21
11 -36 25 -15 14 -36 25 -47 25 -11 0 -22 7 -25 15 -5 13 120 235 133 235 4 0
14 -6 22 -13z m-2606 -83 c11 -4 14 -16 9 -46 l-5 -41 37 28 c20 15 40 34 45
42 4 9 19 13 34 11 26 -3 25 -5 -29 -46 l-56 -43 55 -62 c30 -34 72 -72 93
-84 30 -17 35 -23 22 -28 -26 -10 -70 19 -137 92 l-63 68 4 -52 c5 -51 4 -53
-19 -53 l-24 0 5 108 c3 59 6 108 6 110 0 3 7 2 23 -4z m231 -21 c-9 -42 -11
-159 -2 -175 7 -15 4 -18 -23 -18 -24 0 -30 3 -25 16 3 9 6 56 6 105 0 87 0
89 24 89 18 0 23 -5 20 -17z m148 -65 l78 -83 0 83 c0 72 2 83 16 80 14 -3 17
-17 15 -103 -1 -55 -6 -104 -11 -109 -4 -4 -24 9 -43 30 -19 22 -51 57 -71 79
-19 22 -36 43 -36 48 0 4 -5 7 -11 7 -6 0 -9 -30 -8 -82 2 -76 0 -83 -17 -83
-13 0 -19 7 -18 23 0 12 1 60 2 107 1 60 6 85 15 85 6 1 47 -37 89 -82z m306
66 c12 -8 22 -22 22 -30 0 -18 -8 -18 -26 1 -22 21 -87 19 -107 -3 -59 -65 4
-179 88 -158 33 8 49 40 35 66 -9 16 -8 22 5 26 24 10 51 -4 37 -18 -7 -7 -12
-24 -12 -40 0 -29 -17 -43 -73 -59 -85 -24 -170 90 -126 172 27 50 113 74 157
43z m303 -4 c10 -6 19 -17 19 -25 0 -19 -14 -19 -30 0 -15 18 -42 19 -58 3
-10 -10 -1 -23 39 -64 57 -58 61 -84 18 -117 -21 -15 -33 -17 -55 -10 -30 10
-53 37 -41 49 4 4 16 -1 26 -10 24 -22 65 -17 69 8 3 13 -12 34 -42 63 -49 46
-55 66 -29 95 18 20 54 23 84 8z m-2561 -10 c0 -8 -61 -40 -76 -40 -14 0 1 22
24 34 32 18 52 20 52 6z m2740 -5 c0 -10 -10 -14 -32 -13 -54 1 -58 -1 -58
-27 0 -22 4 -25 34 -25 21 0 36 -6 40 -15 3 -8 0 -15 -7 -16 -7 -1 -23 -2 -37
-2 -22 -2 -25 -7 -25 -37 0 -31 3 -35 28 -38 16 -2 35 2 43 9 8 6 18 9 21 5
10 -9 -11 -41 -26 -40 -6 1 -34 2 -62 3 -50 1 -50 2 -45 29 13 65 16 155 5
168 -10 12 0 14 55 14 52 0 66 -3 66 -15z m85 -95 c0 -105 -1 -111 -20 -108
-18 3 -20 11 -21 103 -1 111 0 115 24 115 15 0 17 -13 17 -110z m87 60 l-3
-45 40 41 c42 44 81 62 81 38 0 -8 -4 -14 -10 -14 -5 0 -26 -16 -46 -35 l-36
-35 33 -39 c19 -21 46 -46 61 -57 33 -22 36 -34 9 -34 -10 0 -42 25 -72 55
-29 30 -56 55 -60 55 -8 0 -5 -67 4 -76 10 -11 -2 -24 -24 -24 -18 0 -19 7
-16 110 2 104 3 111 22 108 17 -3 20 -9 17 -48z m292 35 c40 -19 66 -62 66
-108 0 -27 -9 -45 -34 -71 -29 -31 -40 -36 -79 -36 -34 0 -53 6 -75 25 -66 55
-63 133 6 180 42 29 71 31 116 10z m1978 -17 c-8 -8 -9 -4 -5 13 4 13 8 18 11
10 2 -7 -1 -18 -6 -23z m-5335 -30 c-3 -8 -6 -5 -6 6 -1 11 2 17 5 13 3 -3 4
-12 1 -19z m5008 -55 c19 -9 35 -23 35 -30 0 -10 -10 -8 -40 7 -22 11 -40 25
-40 30 0 13 4 13 45 -7z m-4958 -55 c-3 -8 -6 -5 -6 6 -1 11 2 17 5 13 3 -3 4
-12 1 -19z m5190 -170 c-3 -8 -6 -5 -6 6 -1 11 2 17 5 13 3 -3 4 -12 1 -19z
m-3476 -59 c28 -76 31 -99 14 -99 -8 0 -15 9 -15 20 0 15 -7 20 -29 20 -21 0
-32 -6 -36 -20 -7 -23 -25 -27 -25 -5 0 8 5 27 11 42 45 109 54 114 80 42z
m71 -19 c2 -41 7 -56 19 -58 19 -3 29 17 35 72 2 22 8 44 14 50 11 11 13 3 10
-63 -2 -60 -17 -81 -58 -81 -38 0 -52 25 -52 94 0 82 27 70 32 -14z m203 49
c5 -5 0 -9 -13 -9 -12 0 -23 -4 -23 -10 -1 -5 -3 -14 -4 -20 -1 -5 -3 -28 -4
-50 -1 -30 -5 -40 -17 -40 -14 0 -16 9 -12 56 4 49 2 57 -14 62 -10 2 -18 11
-18 19 0 11 10 13 48 7 26 -3 51 -10 57 -15z m117 -6 c11 -10 18 -30 18 -52 0
-42 -7 -54 -38 -70 -31 -17 -75 1 -91 35 -16 35 -14 48 10 78 24 31 72 35 101
9z m88 -38 l16 -48 23 52 c12 29 27 51 34 48 17 -5 16 -139 0 -144 -8 -3 -13
5 -13 21 0 34 -16 34 -24 0 -10 -37 -29 -24 -42 26 -9 40 -11 42 -17 20 -4
-14 -7 -35 -7 -47 0 -13 -4 -23 -9 -23 -6 0 -8 32 -7 73 4 85 3 80 18 75 6 -2
19 -26 28 -53z m199 -13 c12 -29 21 -59 21 -67 0 -22 -18 -18 -25 5 -9 27 -49
26 -68 -2 -25 -39 -29 -13 -6 48 37 101 45 102 78 16z m124 43 c-2 -5 -9 -10
-15 -10 -8 0 -16 -23 -22 -57 -4 -32 -12 -58 -17 -58 -4 0 -9 26 -11 58 -2 35
-7 57 -15 57 -16 0 -26 12 -20 22 8 12 103 0 100 -12z m47 -61 c0 -56 -3 -75
-12 -72 -27 9 -19 148 8 148 2 0 4 -34 4 -76z m134 54 c13 -22 1 -35 -18 -19
-8 7 -25 11 -38 9 -20 -3 -23 -9 -23 -42 0 -52 28 -71 55 -38 10 12 21 22 24
22 13 0 5 -34 -11 -46 -65 -49 -139 54 -82 115 25 26 76 26 93 -1z m151 6 c9
-10 14 -26 11 -37 -2 -10 1 -28 7 -39 10 -16 8 -23 -16 -44 -15 -13 -32 -24
-38 -24 -12 0 -49 37 -49 50 0 15 16 12 30 -5 16 -20 36 -19 44 1 4 11 -1 18
-14 21 -24 6 -26 21 -5 29 18 7 20 34 3 34 -6 0 -20 -7 -30 -17 -17 -15 -18
-15 -18 5 0 37 47 53 75 26z m-2975 -24 c0 -10 3 -20 8 -22 4 -1 17 -23 29
-48 12 -25 36 -59 53 -77 16 -18 30 -37 30 -42 0 -14 40 -90 51 -97 5 -3 9
-13 9 -22 0 -21 -66 70 -121 168 -103 184 -98 173 -74 164 8 -4 15 -14 15 -24z
m3148 5 c17 -21 19 -32 11 -58 -13 -46 -41 -66 -81 -58 -26 5 -33 12 -32 29 0
12 1 42 2 67 l2 45 39 0 c30 0 44 -6 59 -25z m115 -39 c9 -29 17 -61 17 -72
-1 -16 -4 -15 -21 9 -24 32 -55 35 -64 7 -3 -11 -10 -20 -14 -20 -15 0 -20 12
-12 29 5 9 18 37 29 63 27 59 43 55 65 -16z m52 23 c9 -26 24 -24 35 5 11 29
26 40 35 26 3 -6 -3 -23 -14 -39 -12 -16 -21 -43 -21 -59 0 -17 -5 -34 -11
-38 -14 -9 -29 14 -29 46 0 14 -9 38 -19 54 -11 17 -17 34 -15 38 8 12 32 -9
39 -33z m166 22 c28 -23 20 -38 -11 -21 -29 15 -57 5 -40 -15 6 -7 21 -15 32
-17 30 -4 46 -33 32 -55 -15 -24 -83 -24 -98 -1 -15 25 1 34 23 14 21 -19 52
-18 58 1 3 7 -8 15 -24 19 -37 9 -53 22 -53 46 0 45 42 61 81 29z m-2993 -103
c-3 -7 -19 -21 -36 -31 -41 -24 -45 0 -4 25 32 21 45 22 40 6z m4307 -102 c17
-13 27 -27 23 -31 -7 -8 -68 34 -68 47 0 14 14 9 45 -16z m-3255 -30 c0 -47 3
-50 87 -97 24 -13 39 -17 41 -10 5 15 32 14 28 -1 -1 -7 -1 -10 1 -5 3 4 10 4
16 0 8 -4 7 -1 -1 9 -13 17 -56 32 -46 17 8 -13 -8 -10 -29 5 -14 11 -15 15
-5 19 7 2 3 2 -9 1 -23 -4 -41 12 -21 18 7 3 5 7 -6 11 -10 4 -15 3 -11 -3 3
-6 -1 -10 -9 -10 -11 0 -16 9 -16 29 l0 30 95 -56 c95 -55 96 -56 80 -80 -21
-31 -137 -221 -156 -253 -8 -14 -17 -27 -20 -30 -3 -3 -18 -26 -32 -52 -15
-26 -53 -91 -87 -143 -33 -53 -63 -107 -66 -120 -3 -14 -10 -25 -15 -25 -4 0
-54 29 -111 65 -56 36 -105 65 -110 65 -14 0 -9 27 7 40 8 7 15 18 15 26 0 15
53 105 226 381 63 100 117 189 120 197 3 9 12 16 20 16 10 0 14 -13 14 -44z
m2238 -113 c63 -119 100 -188 186 -343 26 -47 56 -105 68 -130 11 -25 25 -53
30 -63 5 -11 7 -21 5 -24 -10 -9 -218 -123 -226 -123 -4 0 -13 10 -19 23 -6
12 -25 47 -43 77 -17 30 -45 80 -61 110 -37 67 -105 189 -187 333 -33 60 -61
115 -61 122 0 7 8 15 18 18 22 7 184 96 197 108 20 19 32 5 93 -108z m1400 33
c-23 -30 -45 -52 -47 -50 -3 3 5 17 17 32 12 15 32 41 45 59 12 18 24 28 25
22 2 -5 -16 -34 -40 -63z m-77 18 c-12 -15 -21 -22 -21 -17 0 6 7 16 15 23 8
7 15 20 16 29 0 10 2 11 6 4 2 -7 -5 -25 -16 -39z m-4441 -22 c0 -16 -49 -54
-60 -47 -8 5 -5 14 11 31 24 23 49 31 49 16z m4366 -77 c-9 -9 -16 -13 -16 -8
0 12 22 34 28 28 2 -2 -3 -11 -12 -20z m91 3 c-3 -8 -6 -5 -6 6 -1 11 2 17 5
13 3 -3 4 -12 1 -19z m-497 -33 c35 -37 14 -44 -23 -7 -22 22 -27 32 -16 32 9
0 26 -11 39 -25z m461 -11 c-11 -15 -21 -23 -21 -17 0 11 33 53 38 48 3 -2 -5
-16 -17 -31z m-300 -27 l-24 -22 19 27 c10 14 21 24 23 22 3 -3 -6 -15 -18
-27z m-3931 -54 c-1 -13 -38 -53 -49 -53 -17 0 -13 11 11 37 21 23 38 30 38
16z m1894 -39 c3 -8 1 -165 -6 -347 -6 -183 -10 -349 -10 -370 l2 -38 -135 2
c-75 1 -137 5 -140 9 -6 10 -5 285 1 533 5 168 3 207 -8 208 -7 0 -4 4 7 9 11
5 79 9 151 9 111 1 133 -1 138 -15z m1674 -65 c18 -22 20 -29 8 -29 -13 0 -56
49 -56 64 0 12 26 -7 48 -35z m-1981 -1 c-3 -8 -6 -5 -6 6 -1 11 2 17 5 13 3
-3 4 -12 1 -19z m0 -50 c-3 -8 -6 -5 -6 6 -1 11 2 17 5 13 3 -3 4 -12 1 -19z
m2443 -2 c0 -3 -4 -8 -10 -11 -5 -3 -10 -1 -10 4 0 6 5 11 10 11 6 0 10 -2 10
-4z m-3820 -25 c0 -6 -11 -22 -23 -37 -30 -35 -45 -16 -16 20 21 26 39 34 39
17z m3136 -103 c8 -16 11 -28 6 -28 -14 0 -53 60 -46 71 7 12 13 5 40 -43z
m-1759 10 c-3 -7 -5 -2 -5 12 0 14 2 19 5 13 2 -7 2 -19 0 -25z m-1203 -206
c54 -34 95 -66 92 -69 -3 -3 -14 1 -23 9 -10 9 -34 23 -53 33 -53 26 -129 78
-135 93 -6 15 -12 19 119 -66z m289 -17 c-9 -19 -20 -35 -25 -35 -13 0 -9 34
8 58 23 33 36 16 17 -23z m2173 -40 c16 -40 17 -45 6 -45 -10 0 -32 45 -32 65
0 25 10 17 26 -20z m-2614 -87 c43 -26 82 -48 88 -48 5 0 10 -4 10 -8 0 -4 14
-13 31 -19 17 -7 28 -16 25 -22 -4 -5 4 -17 16 -25 48 -34 3 -14 -80 36 -144
85 -192 119 -192 135 0 9 5 11 13 7 6 -4 47 -29 89 -56z m704 35 c-4 -16 -14
-34 -23 -40 -15 -11 -15 -13 0 -19 28 -10 19 -31 -13 -31 -32 0 -39 17 -15 37
8 7 15 16 15 21 0 4 4 19 10 33 13 36 34 34 26 -1z m-155 -37 c-7 -8 -19 -12
-27 -9 -12 4 -10 8 8 18 28 14 35 11 19 -9z m1799 15 c0 -5 3 -23 6 -40 8 -37
-11 -43 -20 -7 -3 13 -9 31 -12 40 -4 11 -1 16 10 16 9 0 16 -4 16 -9z m-1737
-32 c5 -18 2 -20 -21 -14 -35 9 -40 14 -22 25 24 15 37 12 43 -11z m367 -9 c0
-17 -23 -60 -33 -60 -5 0 -7 10 -3 23 3 12 6 28 6 35 0 6 7 12 15 12 8 0 15
-4 15 -10z m1101 -51 c8 -35 2 -57 -11 -42 -4 4 -11 25 -14 47 -9 50 15 46 25
-5z m1084 31 c-3 -5 -14 -10 -23 -10 -15 0 -15 2 -2 10 20 13 33 13 25 0z
m-2406 -19 c17 -32 -2 -33 -49 -3 -5 4 21 22 32 22 4 0 12 -8 17 -19z m486
-34 c-11 -50 -25 -56 -25 -11 0 43 7 57 22 48 5 -3 6 -20 3 -37z m-421 17 c4
-9 13 -14 21 -10 10 4 15 -1 15 -14 0 -24 -18 -27 -27 -4 -4 11 -13 14 -30 9
-22 -5 -23 -4 -13 15 13 24 26 26 34 4z m976 -34 c0 -22 -4 -40 -10 -40 -5 0
-10 18 -10 40 0 22 5 40 10 40 6 0 10 -18 10 -40z m1390 25 c-7 -8 -20 -15
-28 -15 -13 0 -12 3 4 15 25 19 40 19 24 0z m-120 -9 c0 -2 -9 -6 -20 -9 -11
-3 -18 -1 -14 4 5 9 34 13 34 5z m-2072 -39 c18 7 45 -5 38 -16 -4 -5 -23 -5
-48 1 -49 11 -52 13 -43 28 5 8 12 7 23 -3 10 -8 23 -12 30 -10z m1310 11 c-6
-18 -28 -21 -28 -4 0 9 7 16 16 16 9 0 14 -5 12 -12z m-121 -25 c4 -11 -26
-27 -35 -19 -2 3 -2 12 2 21 6 18 27 16 33 -2z m783 8 c0 -5 -8 -11 -17 -15
-10 -3 -25 -9 -33 -13 -13 -5 -13 -4 0 9 13 12 28 21 48 27 1 1 2 -3 2 -8z
m-1876 -16 c4 -10 -1 -15 -14 -15 -11 0 -20 7 -20 15 0 8 6 15 14 15 8 0 16
-7 20 -15z m56 -10 c10 -13 9 -15 -8 -15 -22 0 -36 13 -25 24 10 10 20 7 33
-9z m-830 -5 c0 -5 -4 -10 -9 -10 -6 0 -13 5 -16 10 -3 6 1 10 9 10 9 0 16 -4
16 -10z m1745 0 c3 -5 1 -10 -4 -10 -6 0 -11 5 -11 10 0 6 2 10 4 10 3 0 8 -4
11 -10z m-85 -10 c0 -5 -5 -10 -11 -10 -5 0 -7 5 -4 10 3 6 8 10 11 10 2 0 4
-4 4 -10z m50 0 c0 -5 -7 -10 -15 -10 -8 0 -15 5 -15 10 0 6 7 10 15 10 8 0
15 -4 15 -10z m710 1 c-8 -5 -26 -12 -40 -15 l-25 -7 25 15 c14 9 32 15 40 15
13 0 13 -1 0 -8z m-820 -11 c0 -5 -10 -10 -22 -9 -22 0 -22 1 -3 9 11 5 21 9
23 9 1 1 2 -3 2 -9z m-982 -21 c34 -6 62 -16 62 -21 0 -5 -8 -7 -17 -4 -10 3
-38 10 -63 15 -25 6 -61 15 -80 20 l-35 10 35 -4 c19 -2 63 -9 98 -16z m922
11 c0 -5 -2 -10 -4 -10 -3 0 -8 5 -11 10 -3 6 -1 10 4 10 6 0 11 -4 11 -10z
m1106 -5 c-36 -19 -56 -19 -30 0 10 8 28 14 39 15 16 0 14 -3 -9 -15z m-683
-12 c-7 -2 -21 -2 -30 0 -10 3 -4 5 12 5 17 0 24 -2 18 -5z m342 -8 c-21 -8
-41 -12 -44 -10 -6 6 40 24 64 24 11 0 2 -6 -20 -14z m130 -6 c-10 -15 -25
-10 -19 6 4 8 10 12 15 9 5 -3 7 -10 4 -15z m-2235 -19 c-8 -5 -22 -9 -30 -9
-10 0 -8 3 5 9 27 12 43 12 25 0z m563 3 c-13 -2 -33 -2 -45 0 -13 2 -3 4 22
4 25 0 35 -2 23 -4z m355 -4 c-12 -7 -24 -7 -35 0 -15 9 -12 10 17 10 29 0 32
-1 18 -10z m700 4 c-10 -2 -26 -2 -35 0 -10 3 -2 5 17 5 19 0 27 -2 18 -5z
m-548 -13 c0 -5 -16 -10 -35 -10 -19 0 -35 5 -35 10 0 6 16 10 35 10 19 0 35
-4 35 -10z m-397 -7 c-13 -2 -35 -2 -50 0 -16 2 -5 4 22 4 28 0 40 -2 28 -4z
m840 0 c-13 -2 -33 -2 -45 0 -13 2 -3 4 22 4 25 0 35 -2 23 -4z m-766 -9 c-3
-3 -12 -4 -19 -1 -8 3 -5 6 6 6 11 1 17 -2 13 -5z m1373 -4 c-8 -5 -19 -10
-25 -10 -5 0 -3 5 5 10 8 5 20 10 25 10 6 0 3 -5 -5 -10z m-967 -17 c-51 -2
-135 -2 -185 0 -51 1 -10 3 92 3 102 0 143 -2 93 -3z"/>
<path d="M6822 8258 c1 -107 6 -95 10 30 2 39 0 72 -4 72 -5 0 -7 -46 -6 -102z"/>
<path d="M6812 7880 c0 -14 2 -19 5 -12 2 6 2 18 0 25 -3 6 -5 1 -5 -13z"/>
<path d="M6813 7810 c0 -25 2 -35 4 -22 2 12 2 32 0 45 -2 12 -4 2 -4 -23z"/>
<path d="M7700 7445 c-15 -8 -19 -14 -10 -14 18 -1 46 16 40 23 -3 2 -16 -2
-30 -9z"/>
<path d="M4700 6971 c-15 -4 -26 -15 -28 -29 -4 -28 12 -28 32 0 l16 22 0 -22
c0 -12 -9 -31 -20 -42 -11 -11 -20 -24 -20 -29 0 -7 65 -56 95 -71 11 -5 70
-43 145 -92 l44 -29 18 23 c10 13 18 27 18 31 0 5 9 21 19 36 22 30 18 40 -19
59 -14 6 -32 16 -40 21 -80 52 -200 118 -204 113 -3 -3 -6 0 -6 6 0 13 -12 14
-50 3z"/>
<path d="M8900 6968 c-69 -45 -187 -115 -262 -156 -76 -40 -138 -76 -138 -78
0 -3 17 -37 37 -77 34 -65 38 -69 41 -44 3 23 6 26 18 16 11 -9 14 -9 14 1 0
7 6 10 14 7 8 -3 16 -2 18 2 3 9 103 64 303 166 72 37 137 73 146 81 12 11 18
11 29 1 8 -7 7 -1 -3 13 -9 14 -33 53 -53 88 -20 34 -36 62 -37 62 -1 0 -58
-37 -127 -82z"/>
<path d="M8555 6569 c-4 -6 -5 -12 -2 -15 2 -3 7 2 10 11 7 17 1 20 -8 4z"/>
<path d="M7319 7005 c-33 -18 -62 -76 -53 -109 8 -32 48 -72 79 -80 30 -8 77
15 99 46 9 12 16 40 16 61 0 31 -7 45 -31 68 -34 32 -69 36 -110 14z"/>
<path d="M4110 5739 l0 -74 273 -3 c149 -2 285 -5 300 -8 l28 -6 -3 77 -3 78
-297 4 -298 5 0 -73z"/>
<path d="M8724 5628 c-33 -11 -57 -47 -45 -66 23 -38 157 -55 211 -27 38 20
40 58 5 81 -30 20 -129 27 -171 12z"/>
<path d="M4895 4743 c-18 -14 -18 -15 -2 -9 10 3 23 6 28 6 5 0 9 5 9 10 0 14
-12 12 -35 -7z"/>
<path d="M4576 4606 c-71 -28 -131 -57 -134 -64 -6 -18 8 -15 102 23 102 41
162 71 171 85 10 15 -1 12 -139 -44z"/>
<path d="M4970 4640 c0 -5 5 -10 11 -10 5 0 7 5 4 10 -3 6 -8 10 -11 10 -2 0
-4 -4 -4 -10z"/>
<path d="M8480 4621 c-36 -58 -38 -67 -24 -76 9 -5 42 -27 73 -47 31 -21 60
-38 64 -38 5 0 47 -25 93 -55 47 -30 87 -55 89 -55 5 0 94 -55 147 -92 37 -25
41 -24 63 20 10 20 27 49 37 64 18 27 18 27 -4 41 -13 8 -108 67 -213 130
-104 64 -211 129 -237 145 l-47 30 -41 -67z"/>
<path d="M7412 4607 c-67 -71 24 -190 107 -141 50 30 55 91 12 135 -37 37 -88
40 -119 6z"/>
<path d="M5890 4245 c0 -8 5 -15 10 -15 6 0 10 7 10 15 0 8 -4 15 -10 15 -5 0
-10 -7 -10 -15z"/>
<path d="M6245 4260 c-15 -16 -17 -26 -9 -48 13 -37 60 -44 73 -10 21 57 -26
100 -64 58z"/>
<path d="M6567 4236 c-3 -8 -2 -18 3 -21 13 -8 20 9 11 24 -6 10 -10 9 -14 -3z"/>
<path d="M7164 4246 c-12 -30 1 -81 20 -85 22 -4 46 23 46 50 0 37 -54 66 -66
35z"/>
<path d="M7307 4225 c-8 -20 -4 -29 11 -24 5 2 6 13 2 23 -6 19 -7 19 -13 1z"/>
<path d="M5737 3838 c-10 -17 -16 -32 -14 -35 6 -6 39 47 35 57 -2 5 -11 -4
-21 -22z"/>
<path d="M5662 3720 c-7 -11 -12 -25 -12 -32 1 -7 8 0 16 15 18 33 14 46 -4
17z"/>
<path d="M5620 3649 c0 -5 5 -7 10 -4 6 3 10 8 10 11 0 2 -4 4 -10 4 -5 0 -10
-5 -10 -11z"/>
<path d="M5578 3583 c-16 -24 -28 -48 -28 -54 0 -5 -3 -9 -8 -9 -4 0 -16 -17
-27 -37 -11 -21 -26 -44 -32 -51 -7 -7 -13 -19 -13 -25 1 -22 94 113 126 182
22 48 13 46 -18 -6z"/>
<path d="M5446 3375 c-3 -8 -1 -15 3 -15 5 0 11 7 15 15 3 8 1 15 -3 15 -5 0
-11 -7 -15 -15z"/>
<path d="M6784 3693 c-8 -13 -25 -16 -85 -15 -51 1 -68 -2 -54 -8 35 -15 145
-12 151 5 9 23 0 37 -12 18z"/>
<path d="M6590 3688 c0 -18 18 -34 28 -24 3 4 -2 14 -11 23 -16 16 -17 16 -17
1z"/>
<path d="M6675 8785 l-120 -12 137 1 c108 1 134 4 126 14 -6 6 -13 11 -17 10
-3 0 -60 -7 -126 -13z"/>
<path d="M6968 8733 c7 -3 16 -2 19 1 4 3 -2 6 -13 5 -11 0 -14 -3 -6 -6z"/>
<path d="M6858 8693 c12 -2 30 -2 40 0 9 3 -1 5 -23 4 -22 0 -30 -2 -17 -4z"/>
<path d="M4235 7450 c-3 -5 1 -10 10 -10 9 0 13 5 10 10 -3 6 -8 10 -10 10 -2
0 -7 -4 -10 -10z"/>
<path d="M9752 6570 c0 -14 2 -19 5 -12 2 6 2 18 0 25 -3 6 -5 1 -5 -13z"/>
<path d="M9772 6510 c0 -19 2 -27 5 -17 2 9 2 25 0 35 -3 9 -5 1 -5 -18z"/>
<path d="M9791 6434 c0 -11 3 -14 6 -6 3 7 2 16 -1 19 -3 4 -6 -2 -5 -13z"/>
<path d="M9822 6285 c0 -16 2 -22 5 -12 2 9 2 23 0 30 -3 6 -5 -1 -5 -18z"/>
<path d="M3756 6256 c-4 -16 -18 -95 -32 -175 -32 -190 -43 -570 -21 -696 l15
-80 1 83 c1 54 -3 82 -10 82 -7 0 -9 8 -4 23 4 12 10 122 15 245 9 241 25 425
42 483 6 20 8 43 6 50 -3 8 -8 1 -12 -15z"/>
<path d="M9842 6200 c0 -14 2 -19 5 -12 2 6 2 18 0 25 -3 6 -5 1 -5 -13z"/>
<path d="M9851 6089 c0 -13 4 -33 9 -44 7 -14 8 -8 3 20 -7 46 -13 59 -12 24z"/>
<path d="M3793 6025 c0 -38 2 -53 4 -32 2 20 2 52 0 70 -2 17 -4 1 -4 -38z"/>
<path d="M9874 5700 c0 -146 2 -205 3 -132 2 72 2 192 0 265 -1 72 -3 13 -3
-133z"/>
<path d="M3781 5874 c0 -11 3 -14 6 -6 3 7 2 16 -1 19 -3 4 -6 -2 -5 -13z"/>
<path d="M3781 5784 c0 -11 3 -14 6 -6 3 7 2 16 -1 19 -3 4 -6 -2 -5 -13z"/>
<path d="M3771 5523 c-1 -72 3 -124 9 -128 6 -4 10 29 9 92 -2 151 -16 180
-18 36z"/>
<path d="M9851 5398 c0 -28 2 -30 9 -13 12 28 12 45 0 45 -5 0 -10 -15 -9 -32z"/>
<path d="M3793 5320 c0 -36 2 -50 4 -32 2 17 2 47 0 65 -2 17 -4 3 -4 -33z"/>
<path d="M9851 5324 c0 -11 3 -14 6 -6 3 7 2 16 -1 19 -3 4 -6 -2 -5 -13z"/>
<path d="M9842 5260 c0 -19 2 -27 5 -17 2 9 2 25 0 35 -3 9 -5 1 -5 -18z"/>
<path d="M3725 5239 c-4 -12 -2 -26 4 -32 8 -8 11 -2 11 21 0 37 -6 41 -15 11z"/>
<path d="M3813 5195 c0 -22 2 -30 4 -17 2 12 2 30 0 40 -3 9 -5 -1 -4 -23z"/>
<path d="M3737 5148 c3 -24 12 -68 19 -98 8 -30 14 -62 14 -72 0 -10 5 -18 11
-18 7 0 9 11 6 29 -4 18 -2 31 5 33 8 3 8 10 -1 25 -6 12 -11 33 -11 48 0 15
-4 24 -10 20 -6 -4 -10 6 -10 23 0 16 -6 35 -14 41 -12 10 -13 5 -9 -31z"/>
<path d="M9822 5150 c0 -14 2 -19 5 -12 2 6 2 18 0 25 -3 6 -5 1 -5 -13z"/>
<path d="M3821 5114 c0 -11 3 -14 6 -6 3 7 2 16 -1 19 -3 4 -6 -2 -5 -13z"/>
<path d="M9772 4910 c0 -14 2 -19 5 -12 2 6 2 18 0 25 -3 6 -5 1 -5 -13z"/>
<path d="M9741 4794 c0 -11 3 -14 6 -6 3 7 2 16 -1 19 -3 4 -6 -2 -5 -13z"/>
<path d="M9722 4740 c0 -14 2 -19 5 -12 2 6 2 18 0 25 -3 6 -5 1 -5 -13z"/>
<path d="M9671 4594 c0 -11 3 -14 6 -6 3 7 2 16 -1 19 -3 4 -6 -2 -5 -13z"/>
<path d="M9401 3984 c0 -11 3 -14 6 -6 3 7 2 16 -1 19 -3 4 -6 -2 -5 -13z"/>
<path d="M6648 2663 c46 -2 118 -2 160 0 42 1 5 3 -83 3 -88 0 -123 -2 -77 -3z"/>
<path d="M6523 2623 c9 -2 23 -2 30 0 6 3 -1 5 -18 5 -16 0 -22 -2 -12 -5z"/>
<path d="M6708 2613 c34 -2 88 -2 120 0 31 2 3 3 -63 3 -66 0 -92 -1 -57 -3z"/>
<path d="M5180 9034 c-30 -13 -73 -32 -95 -41 -90 -38 -417 -206 -433 -222 -9
-10 -46 -42 -82 -72 -221 -182 -516 -475 -656 -654 -17 -22 -51 -65 -75 -95
-71 -89 -93 -120 -155 -220 -75 -121 -99 -168 -91 -177 4 -3 7 1 7 10 0 10 4
17 8 17 5 0 14 10 20 23 100 193 338 493 578 727 193 188 343 301 447 338 52
18 77 37 117 91 34 46 168 133 344 223 144 73 183 105 66 52z"/>
<path d="M8515 8954 c28 -15 71 -39 98 -55 26 -16 50 -29 53 -29 3 0 39 -26
81 -57 42 -32 113 -81 158 -108 147 -92 281 -204 507 -425 65 -64 118 -113
118 -110 0 4 -66 75 -146 158 -143 148 -291 285 -425 390 -37 28 -74 63 -83
77 -19 29 -33 32 -38 9 -3 -14 -6 -13 -28 4 -14 10 -63 40 -110 64 -47 25
-111 59 -142 77 -32 17 -66 31 -75 31 -10 0 5 -12 32 -26z"/>
<path d="M9620 8053 c0 -6 3 -13 8 -15 4 -1 23 -23 42 -48 19 -25 40 -51 47
-58 7 -7 13 -16 13 -20 0 -4 11 -20 25 -36 14 -16 25 -32 25 -36 0 -3 9 -15
19 -27 11 -11 33 -42 50 -69 17 -27 31 -46 31 -42 0 19 -104 180 -145 224 -5
6 -23 28 -40 49 -53 68 -74 90 -75 78z"/>
<path d="M9725 7270 c4 -14 11 -32 16 -40 7 -12 8 -11 8 5 0 11 -7 29 -15 40
-16 19 -16 19 -9 -5z"/>
<path d="M9770 7170 c0 -5 5 -10 11 -10 5 0 7 5 4 10 -3 6 -8 10 -11 10 -2 0
-4 -4 -4 -10z"/>
<path d="M9917 7123 c-4 -6 2 -18 13 -28 23 -21 27 -8 7 20 -8 11 -16 14 -20
8z"/>
<path d="M9820 7071 c0 -25 6 -27 13 -6 4 8 2 17 -3 20 -6 4 -10 -3 -10 -14z"/>
<path d="M10126 4701 c-4 -7 -5 -15 -2 -18 9 -9 19 4 14 18 -4 11 -6 11 -12 0z"/>
<path d="M9955 4249 c-10 -30 -2 -32 12 -3 6 13 7 24 3 24 -5 0 -12 -9 -15
-21z"/>
<path d="M9902 4119 c-13 -22 -22 -43 -19 -45 6 -7 49 66 45 77 -2 5 -13 -10
-26 -32z"/>
<path d="M9856 4038 c-9 -12 -16 -29 -16 -37 0 -17 22 10 33 42 9 23 1 21 -17
-5z"/>
<path d="M9817 3973 c-10 -9 -9 -23 2 -23 5 0 11 7 15 15 5 15 -5 20 -17 8z"/>
<path d="M9623 3878 c-12 -16 -24 -48 -18 -48 2 0 11 14 20 30 16 31 15 40 -2
18z"/>
<path d="M9561 3776 c-7 -8 -8 -17 -3 -20 6 -3 12 3 15 14 6 24 4 25 -12 6z"/>
<path d="M9437 3705 c-21 -31 -33 -56 -27 -60 5 -3 10 1 10 10 0 9 11 27 24
40 21 21 44 66 34 65 -2 -1 -20 -25 -41 -55z"/>
<path d="M9500 3732 c0 -4 7 -16 15 -26 15 -19 15 -19 15 1 0 11 -7 23 -15 27
-8 3 -15 2 -15 -2z"/>
<path d="M4390 2762 c0 -9 25 -33 48 -46 21 -12 13 -1 -18 27 -16 15 -30 23
-30 19z"/>
<path d="M4491 2670 c19 -16 38 -30 43 -30 5 0 -7 13 -25 30 -19 16 -38 30
-43 30 -5 0 7 -13 25 -30z"/>
<path d="M4230 1738 c0 -19 2 -20 10 -8 13 19 13 30 0 30 -5 0 -10 -10 -10
-22z"/>
<path d="M4195 1657 c-4 -10 -5 -21 -1 -24 10 -10 18 4 13 24 -4 17 -4 17 -12
0z"/>
<path d="M4320 1627 c0 -15 5 -27 10 -27 6 0 10 -9 10 -20 0 -11 4 -28 9 -38
5 -9 14 -36 21 -60 6 -23 15 -40 20 -37 4 3 -1 29 -11 58 -11 28 -27 72 -36
97 -19 56 -23 60 -23 27z"/>
<path d="M4216 1619 c-18 -17 -18 -19 -2 -19 9 0 19 7 23 15 8 23 0 25 -21 4z"/>
<path d="M5872 1570 c0 -19 2 -27 5 -17 2 9 2 25 0 35 -3 9 -5 1 -5 -18z"/>
<path d="M4327 1519 c7 -7 15 -10 18 -7 3 3 -2 9 -12 12 -14 6 -15 5 -6 -5z"/>
<path d="M8012 1518 c-9 -4 74 -7 186 -7 131 -1 202 3 202 9 0 12 -358 10
-388 -2z"/>
<path d="M5867 1513 c-3 -5 -1 -26 3 -48 l8 -40 1 48 c1 45 -2 56 -12 40z"/>
<path d="M6266 1513 c-3 -3 -3 -10 0 -14 7 -12 34 -11 34 0 0 11 -26 22 -34
14z"/>
<path d="M6993 1505 c-3 -9 -3 -18 0 -21 9 -9 27 6 27 22 0 19 -19 18 -27 -1z"/>
<path d="M5037 1503 c-5 -8 414 -6 422 2 2 3 -91 5 -207 5 -116 0 -213 -3
-215 -7z"/>
<path d="M5528 1503 c6 -2 18 -2 25 0 6 3 1 5 -13 5 -14 0 -19 -2 -12 -5z"/>
<path d="M5618 1503 c7 -3 16 -2 19 1 4 3 -2 6 -13 5 -11 0 -14 -3 -6 -6z"/>
<path d="M6338 1503 c12 -2 32 -2 45 0 12 2 2 4 -23 4 -25 0 -35 -2 -22 -4z"/>
<path d="M6433 1503 c9 -2 25 -2 35 0 9 3 1 5 -18 5 -19 0 -27 -2 -17 -5z"/>
<path d="M6498 1503 c6 -2 18 -2 25 0 6 3 1 5 -13 5 -14 0 -19 -2 -12 -5z"/>
<path d="M7103 1503 c37 -2 96 -2 130 0 34 2 4 3 -68 3 -71 0 -99 -1 -62 -3z"/>
<path d="M4330 1450 c0 -5 5 -10 10 -10 6 0 10 5 10 10 0 6 -4 10 -10 10 -5 0
-10 -4 -10 -10z"/>
<path d="M4363 1423 c9 -2 23 -2 30 0 6 3 -1 5 -18 5 -16 0 -22 -2 -12 -5z"/>
<path d="M7732 1390 c0 -14 2 -19 5 -12 2 6 2 18 0 25 -3 6 -5 1 -5 -13z"/>
<path d="M4411 1384 c0 -11 3 -14 6 -6 3 7 2 16 -1 19 -3 4 -6 -2 -5 -13z"/>
<path d="M7013 1325 c0 -33 2 -45 4 -27 2 18 2 45 0 60 -2 15 -4 0 -4 -33z"/>
<path d="M5882 1270 c0 -14 2 -19 5 -12 2 6 2 18 0 25 -3 6 -5 1 -5 -13z"/>
<path d="M7741 1264 c0 -11 3 -14 6 -6 3 7 2 16 -1 19 -3 4 -6 -2 -5 -13z"/>
<path d="M7024 1125 c0 -49 1 -71 3 -48 2 23 2 64 0 90 -2 26 -3 8 -3 -42z"/>
<path d="M7343 1075 c0 -44 2 -61 4 -37 2 23 2 59 0 80 -2 20 -4 1 -4 -43z"/>
<path d="M5901 1084 c0 -11 3 -14 6 -6 3 7 2 16 -1 19 -3 4 -6 -2 -5 -13z"/>
<path d="M6623 1025 c0 -27 2 -38 4 -22 2 15 2 37 0 50 -2 12 -4 0 -4 -28z"/>
<path d="M5903 960 c0 -47 2 -66 4 -42 2 23 2 61 0 85 -2 23 -4 4 -4 -43z"/>
<path d="M7761 924 c0 -11 3 -14 6 -6 3 7 2 16 -1 19 -3 4 -6 -2 -5 -13z"/>
<path d="M8338 673 c6 -2 18 -2 25 0 6 3 1 5 -13 5 -14 0 -19 -2 -12 -5z"/>
<path d="M8388 673 c7 -3 16 -2 19 1 4 3 -2 6 -13 5 -11 0 -14 -3 -6 -6z"/>
<path d="M5880 590 c0 -16 4 -30 8 -30 5 0 7 14 4 30 -2 17 -6 30 -8 30 -2 0
-4 -13 -4 -30z"/>
<path d="M5115 600 c3 -5 8 -10 11 -10 2 0 4 5 4 10 0 6 -5 10 -11 10 -5 0 -7
-4 -4 -10z"/>
<path d="M7812 175 c2 -47 7 -70 17 -73 11 -4 12 2 6 24 -4 16 -9 47 -12 69
-8 66 -14 54 -11 -20z"/>
<path d="M7824 40 c0 -31 5 -40 18 -40 21 0 25 49 6 68 -20 20 -25 14 -24 -28z"/>
</g>
</svg>
