<?xml version="1.0" encoding="UTF-8"?>
<svg id="Warstwa_1" xmlns="http://www.w3.org/2000/svg" version="1.1" viewBox="0 0 595.28 841.89">
  <!-- Generator: Adobe Illustrator 29.4.0, SVG Export Plug-In . SVG Version: 2.1.0 Build 152)  -->
  <defs>
    <style>
      .st0 {
        fill: #231f20;
      }
    </style>
  </defs>
  <polygon class="st0" points="347.36 590.34 330.1 599.09 322.81 583.78 339.58 575.03 347.6 590.34 347.36 590.34"/>
  <polygon class="st0" points="301.65 549.32 284.39 558.07 277.1 542.76 293.87 534.01 301.89 549.32 301.65 549.32"/>
  <polygon class="st0" points="228.2 480.56 210.94 489.31 203.65 474 220.42 465.25 228.44 480.56 228.2 480.56"/>
  <polygon class="st0" points="160.61 347.34 143.35 356.09 136.06 340.77 152.83 332.02 160.86 347.34 160.61 347.34"/>
  <polygon class="st0" points="56.69 325.46 39.43 334.21 32.14 318.89 48.91 310.14 56.93 325.46 56.69 325.46"/>
  <polygon class="st0" points="71.93 390.7 54.67 399.45 47.37 384.14 64.15 375.39 72.17 390.7 71.93 390.7"/>
  <polygon class="st0" points="133.86 609.13 116.6 617.88 109.31 602.57 126.09 593.82 134.11 609.13 133.86 609.13"/>
  <polygon class="st0" points="169.42 647.81 152.16 656.56 144.86 641.25 161.64 632.49 169.66 647.81 169.42 647.81"/>
  <polygon class="st0" points="169.85 693.91 152.59 702.66 145.3 687.35 162.08 678.6 170.1 693.91 169.85 693.91"/>
  <polygon class="st0" points="105.78 696.64 88.52 705.4 81.23 690.08 98 681.33 106.02 696.64 105.78 696.64"/>
  <polygon class="st0" points="546.12 167.44 538.34 152.37 555.11 143.37 563.14 158.44 546.12 167.44"/>
  <polygon class="st0" points="482.89 418.48 475.11 403.41 491.88 394.42 499.9 409.49 482.89 418.48"/>
  <polygon class="st0" points="513.15 246.29 505.37 231.21 522.15 222.22 530.17 237.29 513.15 246.29"/>
  <polygon class="st0" points="398.11 575.03 390.33 559.96 407.11 550.96 415.13 566.03 398.11 575.03"/>
  <g>
    <path class="st0" d="M126.96,157.01c0,5.24-3.84,8.28-11.04,8.28-3,0-5.72-.48-7.6-1.36v-6.96h4.16v3.08l.88.92c.8.16,1.72.28,2.8.28,3.64,0,5.44-1.36,5.44-3.76,0-1.68-1.08-2.88-3.48-3.8l-3.88-1.48c-3.88-1.52-5.88-3.92-5.88-7.56,0-5.16,4.28-8.16,10.68-8.16,2.4,0,4.96.44,6.92,1.32v6.68h-4.16v-2.84l-1.04-1c-.52-.08-1.04-.12-1.64-.12-3.6,0-5.32,1.44-5.32,3.6,0,1.6,1,2.84,3.44,3.8l3.96,1.56c3.76,1.44,5.76,3.76,5.76,7.52Z"/>
    <path class="st0" d="M142.88,150.89c0-10,4.16-14.4,10.76-14.4s10.76,4.4,10.76,14.4-4.16,14.4-10.76,14.4-10.76-4.36-10.76-14.4ZM158.88,150.89c0-7.4-2.08-10.2-5.24-10.2s-5.24,2.8-5.24,10.2,2.08,10.2,5.24,10.2,5.24-2.8,5.24-10.2Z"/>
    <path class="st0" d="M181.72,164.49v-4.32c1.52.48,2.88.72,4.08.72,3.36,0,4.88-1.24,4.88-4.88v-14.64l-.88-.84h-6.16v-3.64h15.04v3.64h-1.8l-.84.84v14.92c0,6.24-3.16,9-9.08,9-2,0-4.04-.36-5.24-.8Z"/>
    <path class="st0" d="M228.32,141.37v19.04l.84.84h4.76v3.64h-16.56v-3.64h4.76l.84-.84v-19.04l-.84-.84h-4.76v-3.64h16.56v3.64h-4.76l-.84.84Z"/>
    <path class="st0" d="M257.48,148.41c1-3.36,1.48-6.68,1.48-9.84v-1.68h5.8v.84c0,3.48-1.28,7.8-3.16,10.68h-4.12Z"/>
    <path class="st0" d="M306.96,157.01c0,5.24-3.84,8.28-11.04,8.28-3,0-5.72-.48-7.6-1.36v-6.96h4.16v3.08l.88.92c.8.16,1.72.28,2.8.28,3.64,0,5.44-1.36,5.44-3.76,0-1.68-1.08-2.88-3.48-3.8l-3.88-1.48c-3.88-1.52-5.88-3.92-5.88-7.56,0-5.16,4.28-8.16,10.68-8.16,2.4,0,4.96.44,6.92,1.32v6.68h-4.16v-2.84l-1.04-1c-.52-.08-1.04-.12-1.64-.12-3.6,0-5.32,1.44-5.32,3.6,0,1.6,1,2.84,3.44,3.8l3.96,1.56c3.76,1.44,5.76,3.76,5.76,7.52Z"/>
    <path class="st0" d="M379.47,140.53l-7.16,12.36v7.52l.84.84h2.68v3.64h-12.4v-3.64h2.68l.84-.84v-7.44l-7.16-12.44h-1.4v-3.64h9.6v3.64h-1.48l-.72.76,2.84,5.04c.4.68.76,1.48,1.12,2.24h.36c.32-.76.76-1.52,1.16-2.24l2.84-5.08-.64-.72h-1.48v-3.64h8.88v3.64h-1.4Z"/>
    <path class="st0" d="M395.12,161.25h1.68l.88-.84v-19.04l-.88-.84h-1.84v-3.64h20v7.64h-4.12v-2.68l-.84-.88h-7v7.32h7.68v4.16h-7.68v8.36h7.08l.88-.88v-2.84h4.08v7.8h-19.92v-3.64Z"/>
    <path class="st0" d="M453.47,161.25v3.64h-9.36v-3.64h2.16l.6-.72-.88-3.4h-8.8l-.92,3.36.64.76h2.16v3.64h-9.28v-3.64h.56l.84-.84,7.2-23.52h6.64l7.2,23.64.68.72h.56ZM438.24,153.29h6.76l-1.88-7.28c-.52-2-1.08-3.68-1.32-4.96h-.32c-.28,1.28-.76,3-1.28,4.96l-1.96,7.28Z"/>
    <path class="st0" d="M480.84,161.25l.44-.56-4.8-7.36h-2.28v7.08l.8.84h1.36v3.64h-9.92v-3.64h1.6l.84-.84v-19.04l-.84-.84h-1.76v-3.64h10.28c6.8,0,10.48,2.48,10.48,8.2,0,3.56-1.84,6.32-5.36,7.52l5.96,8.64h1.36v3.64h-9.48v-3.64h1.32ZM474.2,149.57h2.2c3.48,0,5.2-1.36,5.2-4.44s-1.72-4.48-4.96-4.48h-2.44v8.92Z"/>
    <path class="st0" d="M206.51,214.5v-2.83h1.51v1.3l.48.48c.5.12,1.22.22,2.09.22,2.18,0,3.67-.74,3.67-2.18,0-1.08-.82-1.61-2.54-1.99l-1.85-.41c-2.16-.48-3.48-1.54-3.48-3.36,0-2.23,1.97-3.55,5.4-3.55,1.46,0,2.69.24,3.65.53v2.78h-1.51v-1.18l-.46-.46c-.43-.12-1.13-.19-1.85-.19-2.33,0-3.43.74-3.43,2.02,0,.79.43,1.51,2.54,1.99l2.11.48c1.73.38,3.22,1.3,3.22,3.29,0,2.35-2.09,3.7-5.69,3.7-1.37,0-2.78-.19-3.86-.62Z"/>
    <path class="st0" d="M227.08,208.65c0-4.49,2.54-6.48,5.76-6.48s5.76,1.99,5.76,6.48-2.54,6.48-5.76,6.48-5.76-1.99-5.76-6.48ZM236.8,208.65c0-3.7-1.8-5.02-3.96-5.02s-3.96,1.32-3.96,5.02,1.8,5.02,3.96,5.02,3.96-1.32,3.96-5.02Z"/>
    <path class="st0" d="M249.9,219.54v-1.49c.62.19,1.58.34,2.23.34,1.8,0,2.78-.72,2.78-2.69v-11.5l-.41-.41h-4.56v-1.39h6.67v13.32c0,2.86-1.66,4.2-4.35,4.2-.86,0-1.75-.17-2.38-.38ZM254.56,197.49h2.45v2.54h-2.45v-2.54Z"/>
    <path class="st0" d="M281.22,213.5v1.39h-9.7v-1.39h3.7l.41-.41v-8.88l-.41-.41h-3.34v-1.39h5.45v10.68l.41.41h3.48ZM275.27,197.49h2.45v2.54h-2.45v-2.54Z"/>
    <path class="st0" d="M296.29,212.34h2.66v2.54h-2.66v-2.54Z"/>
    <path class="st0" d="M324.28,202.84v3.14h-1.51v-1.56l-.67-.62c-.36-.1-.81-.14-1.44-.14-2.74,0-4.75,1.27-4.75,4.99s2.06,4.94,4.82,4.94c1.54,0,2.52-.36,3.17-.67h.36v1.54c-.72.31-1.87.67-3.6.67-3.84,0-6.58-1.87-6.58-6.48,0-4.34,2.62-6.48,6.6-6.48,1.87,0,2.98.36,3.6.67Z"/>
    <path class="st0" d="M345.78,213.5v1.39h-9.72v-1.39h3.6l.41-.41v-14.04l-.41-.41h-3.34v-1.39h5.45v15.84l.41.41h3.6Z"/>
    <path class="st0" d="M355.86,203.8v-1.39h3.43v8.21c0,2.16,1.18,2.98,2.74,2.98,1.37,0,2.62-.58,3.55-1.73v-7.66l-.41-.41h-1.54v-1.39h3.65v10.68l.41.41h1.32v1.39h-3.19l-.24-1.3-.1-.07c-.94.98-2.28,1.61-3.84,1.61-1.99,0-4.05-1.1-4.05-4.32v-6.6l-.41-.41h-1.32Z"/>
    <path class="st0" d="M381.01,213.54l-.1.07-.1,1.27h-1.61v-15.84l-.41-.41h-1.44v-1.39h3.55v6.43l.1.07c.94-1.06,2.26-1.58,3.7-1.58,2.38,0,5.09,1.61,5.09,6.48s-2.71,6.48-5.09,6.48c-1.44,0-2.76-.53-3.7-1.58ZM387.99,208.65c0-3.79-1.85-4.97-3.7-4.97-1.37,0-2.4.6-3.38,1.7v6.53c.98,1.1,1.99,1.7,3.38,1.7,1.85,0,3.7-1.18,3.7-4.97Z"/>
  </g>
</svg>