<?xml version="1.0" encoding="UTF-8"?>
<svg id="Warstwa_2" xmlns="http://www.w3.org/2000/svg" version="1.1" viewBox="0 0 771.37 245.57">
  <!-- Generator: Adobe Illustrator 29.4.0, SVG Export Plug-In . SVG Version: 2.1.0 Build 152)  -->
  <defs>
    <style>
      .st0 {
        fill: #fff;
      }
    </style>
  </defs>
  <path class="st0" d="M156.8,165.86c6.63,0,9.94,2.7,9.94,8.1,0,4.05-3.07,7.12-9.2,9.2-10.56,3.8-15.83,10.62-15.83,20.43,0,7.85,3.07,13.99,9.2,18.41,5.27,3.68,11.97,5.52,20.07,5.52,16.2,0,30.37-4.72,42.52-14.17,7.61-6.01,11.41-13.62,11.41-22.83,0-5.64-1.1-10.74-3.31-15.28-2.33-4.66-5.89-10.55-10.68-17.67-7.36-11.05-13.56-21.11-18.59-30.19-5.65-10.06-8.47-19.94-8.47-29.64,0-22.95,11.35-44.43,34.06-64.43,12.03-10.43,25.28-18.9,39.76-25.4,12.03-5.27,23.62-7.92,34.79-7.92,7.24,0,13.37,1.9,18.41,5.71,6.14,4.54,9.2,10.74,9.2,18.59,0,12.27-6.63,25.53-19.88,39.76-12.52,13.38-27.12,24.3-43.81,32.77-8.35,4.17-14.67,6.26-18.96,6.26-2.83,0-5.34-1.17-7.55-3.5-1.47-1.59-2.21-3.37-2.21-5.34,0-4.54,4.05-8.22,12.15-11.05,14.85-5.27,27.98-12.7,39.39-22.27,14.73-12.27,22.09-23.01,22.09-32.21,0-3.56-1.47-6.44-4.42-8.65-2.33-1.72-5.09-2.58-8.28-2.58-8.47,0-19.08,3.25-31.85,9.76-17.18,8.72-30.68,19.95-40.5,33.69-8.59,11.9-12.89,23.5-12.89,34.79,0,8.22,2.27,16.69,6.81,25.4,3.8,7,8.65,14.91,14.54,23.75,5.64,8.47,10.43,16.32,14.36,23.56,4.54,8.59,6.81,16.63,6.81,24.12,0,14.48-8.28,27.31-24.85,38.47-14.11,9.33-30.07,13.99-47.86,13.99s-31.29-4.85-41.24-14.54c-7.48-7.36-11.23-15.83-11.23-25.4,0-10.68,3.56-19.63,10.68-26.88,4.3-4.42,9.39-7.73,15.28-9.94,4.05-1.59,7.42-2.39,10.12-2.39Z"/>
  <path class="st0" d="M341.99,158.13c-7.98,19.76-11.97,34.79-11.97,45.1,0,5.03.98,9.2,2.95,12.52,2.45,4.17,5.71,6.26,9.76,6.26,8.35,0,17.98-5.58,28.9-16.75,7.24-7.12,13.32-14.36,18.22-21.72,3.19-4.91,6.19-7.36,9.02-7.36s4.24,1.41,4.24,4.23c0,4.67-5.65,14.24-16.94,28.72-16.69,21.48-32.89,32.21-48.6,32.21-9.45,0-16.14-4.6-20.07-13.81-2.95-6.75-4.42-13.87-4.42-21.35,0-6.26,1.47-15.52,4.42-27.8-7.98,6.63-20.07,22.83-36.26,48.6-4.3,7-8.22,10.49-11.78,10.49-1.84,0-3.43-.8-4.79-2.39-1.35-1.72-2.02-3.43-2.02-5.15,0-4.91,6.44-21.29,19.33-49.15,22.7-48.72,47-89.71,72.9-122.97,13.99-18.16,26.57-31.41,37.74-39.76,10.06-7.61,18.1-11.41,24.12-11.41,2.7,0,5.09,1.1,7.18,3.31,2.7,2.7,4.05,6.01,4.05,9.94,0,10.43-5.46,23.81-16.38,40.13-11.42,16.82-30.81,37.12-58.17,60.93-15.34,13.25-29.15,23.69-41.42,31.29-1.6,3.19-6.07,12.52-13.44,27.98,15.34-16.57,27.49-27.98,36.45-34.24,5.77-3.93,13.56-8.04,23.38-12.33,6.63-2.82,11.41-4.23,14.36-4.23,1.59,0,3.01.62,4.23,1.84,1.35,1.1,2.02,2.58,2.02,4.42,0,4.05-2.76,6.88-8.28,8.47-9.33,2.83-18.9,7.49-28.72,13.99ZM326.16,126.47c20.13-13.25,38.9-30.13,56.33-50.62,8.71-10.19,15.71-20,20.99-29.45,3.68-6.63,5.52-11.35,5.52-14.17s-1.29-4.23-3.87-4.23c-6.88,0-18.72,10.56-35.53,31.66-13.87,17.55-28.35,39.83-43.44,66.82Z"/>
  <path class="st0" d="M448.76,126.65c2.09,0,3.8.8,5.15,2.39.98,1.35,1.47,2.7,1.47,4.05,0,2.21-1.78,5.89-5.34,11.05-12.76,19.76-21.84,36.02-27.24,48.78-5.77,13.13-10.86,26.63-15.28,40.5-1.96,6.14-5.03,9.2-9.2,9.2-2.45,0-4.42-.98-5.89-2.95-1.35-1.59-2.02-3.31-2.02-5.15,0-3.68,3.93-15.95,11.78-36.82,6.14-16.44,16.08-34.61,29.82-54.49,4.42-6.5,7.73-10.86,9.94-13.07,2.21-2.33,4.48-3.5,6.81-3.5ZM483.74,58.36c5.52,0,8.28,2.83,8.28,8.47,0,5.15-2.7,10.86-8.1,17.12-5.15,6.01-10.12,9.02-14.91,9.02-2.33,0-4.23-.86-5.71-2.58-1.47-1.59-2.21-3.56-2.21-5.89,0-5.89,3.25-12.15,9.76-18.78,4.79-4.91,9.08-7.36,12.89-7.36Z"/>
  <path class="st0" d="M503.07,140.27c10.43-8.84,19.82-13.25,28.17-13.25,5.15,0,9.39,2.15,12.7,6.44,3.07,3.8,4.6,8.22,4.6,13.25,0,9.57-3.13,21.17-9.39,34.79-7,15.1-17.12,29.15-30.37,42.16-10.92,10.8-21.35,16.2-31.29,16.2-3.68,0-7.03-.67-10.03-2.02-3.01-1.35-5.68-3.37-8.01-6.07-.98,1.72-1.6,2.83-1.84,3.31-2.09,4.54-3.53,7.3-4.33,8.28-.8.98-2.06,1.47-3.77,1.47-2.21,0-4.3-1.29-6.26-3.87-1.35-1.72-2.02-3.56-2.02-5.52,0-3.43,7.06-20.8,21.17-52.1,19.76-43.69,42.65-87.13,68.66-130.33,10.55-17.67,17-28.04,19.33-31.11,2.58-3.68,4.97-5.52,7.18-5.52,2.7,0,5.09,1.35,7.18,4.05,1.35,1.72,2.02,3.75,2.02,6.07,0,2.58-1.17,5.83-3.5,9.76-.49.86-4.36,7.18-11.6,18.96-22.21,34.36-38.41,62.71-48.6,85.05ZM472.05,219.98c1.9,1.23,3.9,1.84,5.98,1.84,10.68,0,21.97-9.27,33.87-27.8,5.52-8.35,9.88-16.63,13.07-24.85,2.82-7.36,4.23-12.82,4.23-16.38,0-2.45-.55-4.26-1.66-5.43-1.1-1.17-2.82-1.75-5.15-1.75-5.65,0-12.46,3.87-20.43,11.6-7.98,7.61-15.83,18.59-23.56,32.95-3.68,6.88-6.87,13.32-9.57,19.33l-2.39,4.97c1.84,2.46,3.71,4.3,5.61,5.52Z"/>
  <path class="st0" d="M609.28,206.54c-4.05,7.12-8.04,13.13-11.97,18.04-7.73,9.57-15.4,14.36-23.01,14.36-6.63,0-11.78-3.13-15.46-9.39-2.33-4.05-3.5-8.84-3.5-14.36,0-13.62,4.3-28.65,12.89-45.1,9.57-18.29,21.11-32.34,34.61-42.16,8.84-6.38,17.37-9.57,25.59-9.57,5.15,0,9.45,1.6,12.89,4.79,2.95,2.83,4.42,6.01,4.42,9.57,0,2.7-1.04,6.44-3.13,11.23,1.84,2.58,2.76,4.85,2.76,6.81,0,2.58-1.72,6.81-5.15,12.7-3.56,6.01-7.12,13.99-10.68,23.93-3.8,10.56-5.71,19.02-5.71,25.4,0,5.15,1.53,9.39,4.6,12.7.86.86,3.37,2.27,7.55,4.23,3.07,1.47,4.6,4.05,4.6,7.73,0,2.33-.86,4.23-2.58,5.71-1.84,1.6-3.99,2.39-6.44,2.39-6.63,0-12.33-2.95-17.12-8.84-3.93-4.79-5.89-10.8-5.89-18.04,0-2.45.25-6.5.74-12.15ZM632.29,145.98c-1.47-2.7-3.07-4.69-4.79-5.98s-3.56-1.93-5.52-1.93c-9.33,0-19.45,8.16-30.37,24.48-12.03,18.04-18.04,33.32-18.04,45.84,0,3.07.58,5.4,1.75,7,1.17,1.6,2.91,2.39,5.25,2.39,5.89,0,12.76-6.26,20.62-18.78,4.42-6.87,9.88-17,16.38-30.37,4.3-8.71,7.42-14.48,9.39-17.3.98-1.47,2.76-3.25,5.34-5.34Z"/>
</svg>