<?xml version="1.0" encoding="UTF-8"?>
<svg id="OBJECTS" xmlns="http://www.w3.org/2000/svg" version="1.1" xmlns:xlink="http://www.w3.org/1999/xlink" viewBox="0 0 688 284.63">
  <!-- Generator: Adobe Illustrator 29.5.1, SVG Export Plug-In . SVG Version: 2.1.0 Build 141)  -->
  <defs>
    <style>
      .st0 {
        fill: #ffd93a;
      }

      .st1 {
        fill: #3f3f3f;
      }

      .st2 {
        fill: #2d2d2d;
      }

      .st3 {
        fill: #fff;
      }

      .st4, .st5, .st6 {
        fill: none;
      }

      .st4, .st6 {
        stroke: #fff;
        stroke-miterlimit: 10;
      }

      .st7 {
        fill: #308985;
      }

      .st8 {
        fill: #ea540a;
      }

      .st9 {
        fill: #111010;
      }

      .st10 {
        fill: #f08819;
      }

      .st11 {
        fill: #f8b83d;
      }

      .st12 {
        fill: #efa31d;
      }

      .st13 {
        fill: #ffc81a;
      }

      .st14 {
        fill: #f6ae1c;
      }

      .st15 {
        fill: #a9aaaa;
      }

      .st6 {
        stroke-width: 2px;
      }

      .st16 {
        fill: #3ca5a2;
      }

      .st17 {
        fill: #5f6666;
      }

      .st18 {
        clip-path: url(#clippath);
      }
    </style>
    <clipPath id="clippath">
      <path class="st5" d="M646.07,210.68c-.63-.95-1.09-2.65-2.07-3.22l-3.5-4.5-12.15-.38s-.83-6.37.42-12.63c.1-.48.21-.95.34-1.4,1.18-4.06,5.2-2.92,7.95-1.57-3.83-3.34-2.39-14.36-41.72-19.02l-52.82-7.37-3.94,1.21-49.05-29.43,2.02-2.16c-3.02-1.56-4.11-1.32-6.11-2.13-16.55-6.74-115.27-7.97-134.28-1.23-1.58.56-3.27,1.31-5.02,2.18-.16.16-.32.31-.5.47-17.98,16.76-25.75,31.47-25.75,31.47,0,0-14.31-.41-15.58-.41h-25.39c-3.29,0-6.24,4.76-8.18,9.93-1.47,3.93-2.36,8.11-2.36,10.61v21.89c-.26.03-7.17,5.12-7.36,11.72v-.59s1.97-.02,3.07-.02h37.42c5.89-11.98,18.22-20.23,32.48-20.23s26.58,8.25,32.48,20.23h175.4c5.89-11.98,18.22-20.23,32.48-20.23s26.58,8.25,32.48,20.23h40.46c-.11-1.26-.53-2.42-1.2-3.42ZM470.79,131.17c-1.79-.4-3.51-.75-5.15-1.03,2.14.31,3.67.63,5.15,1.03ZM426.13,173.41l-87.17-.36c-3.01-.01-4.96-3.2-3.58-5.88.69-1.34,1.44-2.72,2.22-4.13l88.53.37c1.99,0,3.69-1.17,4.47-2.85l.44,7.54c.24,2.87-2.03,5.32-4.9,5.31ZM509.51,173.38l-59.12-.32c-3.8-.02-6.99-2.86-7.44-6.64l-2.55-31.19,2.55,21.19c.45,3.77,3.64,6.62,7.44,6.64l59.12.32c.29,0,.56-.03.83-.08.87.99,1.67,1.88,2.39,2.64,2.67,2.82.67,7.46-3.21,7.44Z"/>
    </clipPath>
  </defs>
  <rect class="st16" width="688" height="284.63"/>
  <rect class="st7" y="222.46" width="688" height="62.17"/>
  <g>
    <rect class="st9" x="285.55" y="186.51" width="345.81" height="42.92" rx="12" ry="12"/>
    <polygon class="st10" points="417.74 123.2 426.75 109.17 448.48 109.17 457 123.78 417.74 123.2"/>
    <circle class="st1" cx="333.99" cy="230.05" r="25.75" transform="translate(-66.64 167.04) rotate(-25.62)"/>
    <circle class="st15" cx="333.99" cy="230.05" r="15.33" transform="translate(-64.84 303.54) rotate(-45)"/>
    <circle class="st17" cx="333.99" cy="230.05" r="12.67" transform="translate(-64.84 303.54) rotate(-45)"/>
    <circle class="st1" cx="574.95" cy="230.05" r="25.75" transform="translate(-9.84 433.79) rotate(-41.02)"/>
    <path class="st5" d="M481.75,133.59c-14.3-4.23-28.04-4.83-35.74-4.76-3.41.03-6.03,3.02-5.62,6.4l2.55,21.19c.45,3.77,3.64,6.62,7.44,6.64l59.12.32c3.88.02,5.89-4.62,3.21-7.44-7.28-7.67-19.46-18.94-30.97-22.35Z"/>
    <path class="st5" d="M429.14,135.45c-.3-3.57-3.32-6.3-6.91-6.24l-56.76,1.04c-2.33.04-4.57.85-6.39,2.29-6.24,4.95-20.81,17.47-26.52,30.47l93.57.39c2.88.01,5.14-2.44,4.9-5.31l-1.89-22.65Z"/>
    <path class="st0" d="M642.8,218.81h-8.99c-1.12,0-2.04-.92-2.04-2.04h0c0-1.12.92-2.04,2.04-2.04h8.99c1.12,0,2.04.92,2.04,2.04h0c0,1.12-.92,2.04-2.04,2.04Z"/>
    <path class="st11" d="M463.97,184.88h-15.94c-1.01,0-1.84-.83-1.84-1.84h0c0-1.01.83-1.84,1.84-1.84h15.94c1.01,0,1.84.83,1.84,1.84h0c0,1.01-.83,1.84-1.84,1.84Z"/>
    <path class="st11" d="M367.91,184.88h-15.94c-1.01,0-1.84-.83-1.84-1.84h0c0-1.01.83-1.84,1.84-1.84h15.94c1.01,0,1.84.83,1.84,1.84h0c0,1.01-.83,1.84-1.84,1.84Z"/>
    <path class="st5" d="M431.03,158.1l-1.89-22.65c-.3-3.57-3.32-6.3-6.91-6.24l-56.76,1.04c-2.33.04-4.57.85-6.39,2.29-6.24,4.95-20.81,17.47-26.52,30.47l93.57.39c2.88.01,5.14-2.44,4.9-5.31Z"/>
    <path class="st5" d="M442.94,156.43c.45,3.77,3.64,6.62,7.44,6.64l59.12.32c3.88.02,5.89-4.62,3.21-7.44-7.28-7.67-19.46-18.94-30.97-22.35-14.3-4.23-28.04-4.83-35.74-4.76-3.41.03-6.03,3.02-5.62,6.4l2.55,21.19Z"/>
    <g>
      <path class="st14" d="M333.99,193.87c-14.26,0-26.58,8.25-32.48,20.23-2.37,4.81-3.7,10.22-3.7,15.94,0,.83.04,1.64.09,2.45h8.61c-.07-.81-.11-1.63-.11-2.45,0-5.94,1.88-11.44,5.08-15.94,5-7.05,13.22-11.65,22.51-11.65s17.51,4.6,22.51,11.65c3.19,4.5,5.08,10,5.08,15.94,0,.83-.04,1.64-.11,2.45h8.61c.05-.81.09-1.63.09-2.45,0-5.72-1.33-11.13-3.7-15.94-5.89-11.98-18.22-20.23-32.48-20.23Z"/>
      <path class="st14" d="M606.81,214.1c-5.89-11.98-18.22-20.23-32.48-20.23s-26.58,8.25-32.48,20.23c-2.37,4.81-3.7,10.22-3.7,15.94,0,.83.04,1.64.09,2.45h9.22c-.07-.81-.11-1.63-.11-2.45,0-5.94,1.88-11.44,5.08-15.94,5-7.05,13.22-11.65,22.51-11.65s17.51,4.6,22.51,11.65c3.19,4.5,5.08,10,5.08,15.94,0,.83-.04,1.64-.11,2.45h7.99c.05-.81.09-1.63.09-2.45,0-5.72-1.33-11.13-3.7-15.94Z"/>
      <path class="st14" d="M541.86,214.1h-175.4c2.37,4.81,3.7,10.22,3.7,15.94,0,.83-.04,1.64-.09,2.45h168.18c-.05-.81-.09-1.63-.09-2.45,0-5.72,1.33-11.13,3.7-15.94Z"/>
      <path class="st14" d="M647.27,214.1h-40.46c2.37,4.81,3.7,10.22,3.7,15.94,0,.83-.04,1.64-.09,2.45h29.52c4.05,0,7.36-3.31,7.36-7.36v-10.42c0-.21-.01-.41-.03-.61Z"/>
      <path class="st14" d="M301.51,214.1h-37.42c-1.09,0-2.13.25-3.07.68v10.35c0,4.05,3.31,7.36,7.36,7.36h29.52c-.05-.81-.09-1.63-.09-2.45,0-5.72,1.33-11.13,3.7-15.94Z"/>
      <path class="st14" d="M606.81,214.1c-5.89-11.98-18.22-20.23-32.48-20.23s-26.58,8.25-32.48,20.23c-2.37,4.81-3.7,10.22-3.7,15.94,0,.83.04,1.64.09,2.45h9.22c-.07-.81-.11-1.63-.11-2.45,0-5.94,1.88-11.44,5.08-15.94,5-7.05,13.22-11.65,22.51-11.65s17.51,4.6,22.51,11.65c3.19,4.5,5.08,10,5.08,15.94,0,.83-.04,1.64-.11,2.45h7.99c.05-.81.09-1.63.09-2.45,0-5.72-1.33-11.13-3.7-15.94Z"/>
    </g>
    <path class="st14" d="M541.86,214.1h-175.4c2.37,4.81,3.7,10.22,3.7,15.94,0,.83-.04,1.64-.09,2.45h168.18c-.05-.81-.09-1.63-.09-2.45,0-5.72,1.33-11.13,3.7-15.94Z"/>
    <path class="st14" d="M647.27,214.1h-40.46c2.37,4.81,3.7,10.22,3.7,15.94,0,.83-.04,1.64-.09,2.45h29.52c4.05,0,7.36-3.31,7.36-7.36v-10.42c0-.21-.01-.41-.03-.61Z"/>
    <path class="st14" d="M301.51,214.1h-37.42c-1.09,0-2.13.25-3.07.68v10.35c0,4.05,3.31,7.36,7.36,7.36h29.52c-.05-.81-.09-1.63-.09-2.45,0-5.72,1.33-11.13,3.7-15.94Z"/>
    <path class="st11" d="M367.71,187.13h-17.78c-1.69,0-3.07-1.37-3.07-3.07h0c0-1.69,1.37-3.07,3.07-3.07h17.78c1.69,0,3.07,1.37,3.07,3.07h0c0,1.69-1.37,3.07-3.07,3.07Z"/>
    <path class="st11" d="M462.13,187.13h-17.78c-1.69,0-3.07-1.37-3.07-3.07h0c0-1.69,1.37-3.07,3.07-3.07h17.78c1.69,0,3.07,1.37,3.07,3.07h0c0,1.69-1.37,3.07-3.07,3.07Z"/>
    <path class="st5" d="M481.75,133.59c-14.3-4.23-28.04-4.83-35.74-4.76-3.41.03-6.03,3.02-5.62,6.4l2.55,21.19c.45,3.77,3.64,6.62,7.44,6.64l59.12.32c3.88.02,5.89-4.62,3.21-7.44-7.28-7.67-19.46-18.94-30.97-22.35Z"/>
    <path class="st5" d="M429.14,135.45c-.3-3.57-3.32-6.3-6.91-6.24l-56.76,1.04c-2.33.04-4.57.85-6.39,2.29-6.24,4.95-20.81,17.47-26.52,30.47l93.57.39c2.88.01,5.14-2.44,4.9-5.31l-1.89-22.65Z"/>
    <circle class="st15" cx="574.95" cy="230.05" r="15.33" transform="translate(5.73 473.93) rotate(-45)"/>
    <circle class="st17" cx="574.95" cy="230.05" r="12.67" transform="translate(5.73 473.93) rotate(-45)"/>
    <path class="st8" d="M640.5,217.78h-7.66c-1.69,0-3.07-1.37-3.07-3.07h0c0-1.69,1.37-3.07,3.07-3.07h7.66c1.69,0,3.07,1.37,3.07,3.07h0c0,1.69-1.37,3.07-3.07,3.07Z"/>
    <g>
      <path class="st17" d="M345.64,129.51c.18-.16.33-.32.5-.47-14.12,7.08-32.83,23.34-41.82,31.54,1.27,0,15.58.41,15.58.41,0,0,7.77-14.72,25.75-31.47Z"/>
      <path class="st17" d="M542.33,160.57c-14.8-9.15-34.32-23.39-47.53-30.24l-5.27,2.03,49.05,29.43,3.94-1.21h-.19Z"/>
      <g>
        <path class="st17" d="M512.72,165.94c-7.28-7.67-23.04-32.08-34.56-35.48-14.3-4.23-24.45-2.7-32.16-2.62-3.21.03-5.71,3.68-5.66,6.81,0,.2.02.39.04.59l2.55,31.19c.45,3.77,3.64,6.62,7.44,6.64l47.54.26,11.58.06c3.88.02,5.89-4.62,3.21-7.44Z"/>
        <path class="st17" d="M429.14,135.45c-.3-3.57-3.32-6.3-6.91-6.24l-56.76,1.04c-2.33.04-4.57.85-6.39,2.29-.42.33-.87.7-1.36,1.09-5.78,4.71-16.08,21.12-22.31,33.39-1.4,2.75.61,6,3.69,6.01l78.31.32,8.71.04c2.88.01,5.14-2.44,4.9-5.31l-1.89-32.65Z"/>
      </g>
    </g>
    <g>
      <g>
        <rect class="st2" x="462.12" y="187.45" width="5.63" height="5.5"/>
        <rect class="st2" x="467.76" y="192.95" width="5.63" height="5.5"/>
      </g>
      <g>
        <rect class="st2" x="473.39" y="187.45" width="5.63" height="5.5"/>
        <rect class="st2" x="479.02" y="192.95" width="5.63" height="5.5"/>
      </g>
      <g>
        <rect class="st2" x="484.66" y="187.45" width="5.63" height="5.5"/>
        <rect class="st2" x="490.29" y="192.95" width="5.63" height="5.5"/>
      </g>
      <rect class="st2" x="495.92" y="187.45" width="5.63" height="5.5"/>
    </g>
    <g>
      <g>
        <rect class="st2" x="366.39" y="187.45" width="5.63" height="5.5"/>
        <rect class="st2" x="372.02" y="192.95" width="5.63" height="5.5"/>
      </g>
      <g>
        <rect class="st2" x="377.66" y="187.45" width="5.63" height="5.5"/>
        <rect class="st2" x="383.29" y="192.95" width="5.63" height="5.5"/>
      </g>
      <g>
        <rect class="st2" x="388.92" y="187.45" width="5.63" height="5.5"/>
        <rect class="st2" x="394.56" y="192.95" width="5.63" height="5.5"/>
      </g>
      <rect class="st2" x="400.19" y="187.45" width="5.63" height="5.5"/>
    </g>
    <path class="st14" d="M520.84,166.98l-10.67-5.68c-1.69-.9-2.33-2.99-1.43-4.68h0c.9-1.69,2.99-2.33,4.68-1.43l10.67,5.68c1.69.9,2.33,2.99,1.43,4.68h0c-.9,1.69-2.99,2.33-4.68,1.43Z"/>
    <g>
      <path class="st5" d="M465.64,130.14c-8.06-1.37-14.33-1.35-19.63-1.3,4.71-.05,11.67.17,19.63,1.3Z"/>
      <path class="st5" d="M477.77,132.98c-4.46-1.32-8.47-2.22-12.12-2.84-7.96-1.13-14.92-1.35-19.63-1.3-3.41.03-6.03,3.02-5.62,6.4l2.55,21.19c.45,3.77,3.64,6.62,7.44,6.64l59.12.32c3.88.02,5.89-4.62,3.21-7.44-7.28-7.67-23.44-19.56-34.95-22.96Z"/>
      <path class="st5" d="M429.14,135.45c-.3-3.57-3.32-6.3-6.91-6.24l-56.76,1.04c-2.33.04-4.57.85-6.39,2.29-6.24,4.95-20.81,17.47-26.52,30.47l93.57.39c2.88.01,5.14-2.44,4.9-5.31l-1.89-22.65Z"/>
      <path class="st0" d="M646.07,210.68v3.42h1.2c-.11-1.26-.53-2.42-1.2-3.42Z"/>
      <path class="st13" d="M268.56,206.43c-.06,0-.12,0-.18,0v.02h.25s-.04,0-.07,0Z"/>
      <path class="st13" d="M643.62,208.36l-3-3.3-11.51-.56s-1.59-8.29-.34-14.54c.1-.48.21-.95.34-1.4,1.18-4.06,5.2-2.92,7.95-1.57-3.83-3.34-2.39-14.36-41.72-19.02l-52.82-7.37-3.94,1.21-49.05-29.43,3.52-1.33c-3.02-1.56-5.61-2.15-7.61-2.97-16.55-6.74-115.27-7.97-134.28-1.23-1.58.56-3.27,1.31-5.02,2.18-.16.16-.32.31-.5.47-17.98,16.76-25.75,31.47-25.75,31.47,0,0-14.31-.41-15.58-.41h-25.39c-3.29,0-6.24,4.76-8.18,9.93h5.03c3.25,0,5.91,5.04,5.91,11.2v13.54c0,6.16-2.66,11.2-5.91,11.2h-7.39v.92c-4.05,0-7.36,3.31-7.36,7.36v.07c.94-.43,1.97-.68,3.07-.68h37.42c5.89-11.98,18.22-20.23,32.48-20.23s26.58,8.25,32.48,20.23h175.4c5.89-11.98,18.22-20.23,32.48-20.23s26.58,8.25,32.48,20.23h39.26v-3.42c-.63-.95-1.47-1.75-2.45-2.32ZM426.13,173.41l-93.57-.39c5.71-13.01,20.28-35.52,26.52-40.47,1.82-1.45,4.07-2.25,6.39-2.29l56.76-1.04c3.59-.07,6.61,2.66,6.91,6.24l1.89,32.65c.24,2.87-2.03,5.32-4.9,5.31ZM509.51,173.38l-59.12-.32c-3.8-.02-6.99-2.86-7.44-6.64l-2.55-31.19c-.41-3.38,2.21-6.37,5.62-6.4,5.3-.05,11.93-1.58,19.99-.21,5.07.72,6.94.52,12.5,2.17,11.51,3.4,26.94,27.47,34.22,35.15,2.67,2.82.67,7.46-3.21,7.44Z"/>
      <path class="st13" d="M268.56,206.43c-.06,0-.12-.01-.18-.02v-.02c-.26.03-.53.05-.8.05h.8v-.02c.06,0,.12,0,.18,0Z"/>
      <path class="st8" d="M274.94,199.08v-8.89c0-4.05,6.69-7.36,2.64-7.36h-8.89c-.1,0-.2.01-.31.02v23.54c3.67-.4,6.55-3.54,6.55-7.31Z"/>
      <path class="st8" d="M268.56,206.43s.08,0,.13,0h7.08c3.25,0,5.91-5.04,5.91-11.2v-13.54c0-6.16-2.66-11.2-5.91-11.2h-5.03c-1.47,3.93-2.36,8.11-2.36,10.61v1.74c.1,0,.2-.02.31-.02h8.89c4.05,0-2.64,3.31-2.64,7.36v8.89c0,3.78-2.88,6.91-6.55,7.31v.02c.06,0,.12.01.18.02Z"/>
      <path class="st8" d="M268.63,206.44h.06s-.08,0-.13,0c.02,0,.04,0,.07,0Z"/>
    </g>
    <g>
      <path class="st5" d="M465.64,130.14c-8.06-1.37-14.33-1.35-19.63-1.3,4.71-.05,11.67.17,19.63,1.3Z"/>
      <path class="st5" d="M477.77,132.98c-4.46-1.32-8.47-2.22-12.12-2.84-7.96-1.13-14.92-1.35-19.63-1.3-3.41.03-6.03,3.02-5.62,6.4l2.55,21.19c.45,3.77,3.64,6.62,7.44,6.64l59.12.32c3.88.02,5.89-4.62,3.21-7.44-7.28-7.67-23.44-19.56-34.95-22.96Z"/>
      <path class="st5" d="M429.14,135.45c-.3-3.57-3.32-6.3-6.91-6.24l-56.76,1.04c-2.33.04-4.57.85-6.39,2.29-6.24,4.95-20.81,17.47-26.52,30.47l93.57.39c2.88.01,5.14-2.44,4.9-5.31l-1.89-22.65Z"/>
      <path class="st0" d="M646.07,210.68v3.42h1.2c-.11-1.26-.53-2.42-1.2-3.42Z"/>
      <path class="st13" d="M268.56,206.43c-.06,0-.12,0-.18,0v.02h.25s-.04,0-.07,0Z"/>
      <path class="st13" d="M643.62,208.36l-3-3.3-11.51-.56s-1.59-8.29-.34-14.54c.1-.48.21-.95.34-1.4,1.18-4.06,5.2-2.92,7.95-1.57-3.83-3.34-2.39-14.36-41.72-19.02l-52.82-7.37-3.94,1.21-49.05-29.43,5.27-2.03c-.26,0-7.36-4.44-9.36-5.26-16.55-6.74-115.27-4.97-134.28,1.77-1.58.56-3.27,1.31-5.02,2.18-.16.16-.32.31-.5.47-12.12,11.3-19.6,21.67-23.19,27.22-1.7,2.63-4.64,4.19-7.77,4.1-4.23-.12-9.61-.26-10.36-.26h-25.39c-3.29,0-6.24,4.76-8.18,9.93h5.03c3.25,0,5.91,5.04,5.91,11.2v13.54c0,6.16-2.66,11.2-5.91,11.2h-7.39v.92c-4.05,0-7.36,3.31-7.36,7.36v.07c.94-.43,1.97-.68,3.07-.68h37.42c5.89-11.98,18.22-20.23,32.48-20.23s26.58,8.25,32.48,20.23h175.4c5.89-11.98,18.22-20.23,32.48-20.23s26.58,8.25,32.48,20.23h39.26v-3.42c-.63-.95-1.47-1.75-2.45-2.32ZM426.13,173.41l-86.68-.36c-3.24-.01-5.34-3.45-3.83-6.33,6.78-12.97,18.15-29.95,23.47-34.17,1.82-1.45,4.07-2.25,6.39-2.29l56.76-1.04c3.59-.07,6.61,2.66,6.91,6.24l1.89,32.65c.24,2.87-2.03,5.32-4.9,5.31ZM509.51,173.38l-59.12-.32c-3.8-.02-6.99-2.86-7.44-6.64l-2.55-31.19c-.41-3.38,2.21-6.37,5.62-6.4,5.3-.05,11.24-.88,19.32.04,5.09.58,7.27.94,12.83,2.58,11.51,3.4,27.28,26.81,34.56,34.48,2.67,2.82.67,7.46-3.21,7.44Z"/>
      <path class="st13" d="M268.56,206.43c-.06,0-.12-.01-.18-.02v-.02c-.26.03-.53.05-.8.05h.8v-.02c.06,0,.12,0,.18,0Z"/>
      <path class="st8" d="M274.94,199.08v-8.89c0-4.05,6.69-7.36,2.64-7.36h-8.89c-.1,0-.2.01-.31.02v23.54c3.67-.4,6.55-3.54,6.55-7.31Z"/>
      <path class="st8" d="M268.56,206.43s.08,0,.13,0h7.08c3.25,0,5.91-5.04,5.91-11.2v-13.54c0-6.16-2.66-11.2-5.91-11.2h-5.03c-1.47,3.93-2.36,8.11-2.36,10.61v1.74c.1,0,.2-.02.31-.02h8.89c4.05,0-2.64,3.31-2.64,7.36v8.89c0,3.78-2.88,6.91-6.55,7.31v.02c.06,0,.12.01.18.02Z"/>
      <path class="st8" d="M268.63,206.44h.06s-.08,0-.13,0c.02,0,.04,0,.07,0Z"/>
    </g>
    <g>
      <path class="st12" d="M333.99,193.87c-14.26,0-26.58,8.25-32.48,20.23-2.37,4.81-3.7,10.22-3.7,15.94,0,.83.04,1.64.09,2.45h8.61c-.07-.81-.11-1.63-.11-2.45,0-5.94,1.88-11.44,5.08-15.94,5-7.05,13.22-11.65,22.51-11.65s17.51,4.6,22.51,11.65c3.19,4.5,5.08,10,5.08,15.94,0,.83-.04,1.64-.11,2.45h8.61c.05-.81.09-1.63.09-2.45,0-5.72-1.33-11.13-3.7-15.94-5.89-11.98-18.22-20.23-32.48-20.23Z"/>
      <path class="st12" d="M606.81,214.1c-5.89-11.98-18.22-20.23-32.48-20.23s-26.58,8.25-32.48,20.23c-2.37,4.81-3.7,10.22-3.7,15.94,0,.83.04,1.64.09,2.45h9.22c-.07-.81-.11-1.63-.11-2.45,0-5.94,1.88-11.44,5.08-15.94,5-7.05,13.22-11.65,22.51-11.65s17.51,4.6,22.51,11.65c3.19,4.5,5.08,10,5.08,15.94,0,.83-.04,1.64-.11,2.45h7.99c.05-.81.09-1.63.09-2.45,0-5.72-1.33-11.13-3.7-15.94Z"/>
      <path class="st12" d="M541.86,214.1h-175.4c2.37,4.81,3.7,10.22,3.7,15.94,0,.83-.04,1.64-.09,2.45h168.18c-.05-.81-.09-1.63-.09-2.45,0-5.72,1.33-11.13,3.7-15.94Z"/>
      <path class="st12" d="M647.27,214.1h-40.46c2.37,4.81,3.7,10.22,3.7,15.94,0,.83-.04,1.64-.09,2.45h29.52c4.05,0,7.36-3.31,7.36-7.36v-10.42c0-.21-.01-.41-.03-.61Z"/>
      <path class="st12" d="M301.51,214.1h-37.42c-1.09,0-2.13-.41-3.07.02v11.01c0,4.05,3.31,7.36,7.36,7.36h29.52c-.05-.81-.09-1.63-.09-2.45,0-5.72,1.33-11.13,3.7-15.94Z"/>
      <path class="st12" d="M606.81,214.1c-5.89-11.98-18.22-20.23-32.48-20.23s-26.58,8.25-32.48,20.23c-2.37,4.81-3.7,10.22-3.7,15.94,0,.83.04,1.64.09,2.45h9.22c-.07-.81-.11-1.63-.11-2.45,0-5.94,1.88-11.44,5.08-15.94,5-7.05,13.22-11.65,22.51-11.65s17.51,4.6,22.51,11.65c3.19,4.5,5.08,10,5.08,15.94,0,.83-.04,1.64-.11,2.45h7.99c.05-.81.09-1.63.09-2.45,0-5.72-1.33-11.13-3.7-15.94Z"/>
    </g>
    <path class="st12" d="M541.86,214.1h-175.4c2.37,4.81,3.7,10.22,3.7,15.94,0,.83-.04,1.64-.09,2.45h168.18c-.05-.81-.09-1.63-.09-2.45,0-5.72,1.33-11.13,3.7-15.94Z"/>
    <path class="st14" d="M647.27,214.1h-40.46c2.37,4.81,3.7,10.22,3.7,15.94,0,.83-.04,1.64-.09,2.45h29.52c4.05,0,7.36-3.31,7.36-7.36v-10.42c0-.21-.01-.41-.03-.61Z"/>
    <g class="st18">
      <g>
        <g>
          <rect x="260.79" y="202.99" width="6.23" height="6.3"/>
          <rect class="st3" x="267.02" y="202.99" width="6.23" height="6.3"/>
          <rect class="st3" x="260.79" y="209.29" width="6.23" height="6.3"/>
          <rect x="267.02" y="209.29" width="6.23" height="6.3"/>
        </g>
        <g>
          <rect x="273.25" y="202.99" width="6.23" height="6.3"/>
          <rect class="st3" x="279.48" y="202.99" width="6.23" height="6.3"/>
          <rect class="st3" x="273.25" y="209.29" width="6.23" height="6.3"/>
          <rect x="279.48" y="209.29" width="6.23" height="6.3"/>
        </g>
        <g>
          <rect x="285.71" y="202.99" width="6.23" height="6.3"/>
          <rect class="st3" x="291.94" y="202.99" width="6.23" height="6.3"/>
          <rect class="st3" x="285.71" y="209.29" width="6.23" height="6.3"/>
          <rect x="291.94" y="209.29" width="6.23" height="6.3"/>
        </g>
        <g>
          <rect x="298.17" y="202.99" width="6.23" height="6.3"/>
          <rect class="st3" x="304.4" y="202.99" width="6.23" height="6.3"/>
          <rect class="st3" x="298.17" y="209.29" width="6.23" height="6.3"/>
          <rect x="304.4" y="209.29" width="6.23" height="6.3"/>
        </g>
        <g>
          <rect x="310.62" y="202.99" width="6.23" height="6.3"/>
          <rect class="st3" x="316.86" y="202.99" width="6.23" height="6.3"/>
          <rect class="st3" x="310.62" y="209.29" width="6.23" height="6.3"/>
          <rect x="316.86" y="209.29" width="6.23" height="6.3"/>
        </g>
        <g>
          <rect x="323.08" y="202.99" width="6.23" height="6.3"/>
          <rect class="st3" x="329.31" y="202.99" width="6.23" height="6.3"/>
          <rect class="st3" x="323.08" y="209.29" width="6.23" height="6.3"/>
          <rect x="329.31" y="209.29" width="6.23" height="6.3"/>
        </g>
        <g>
          <rect x="335.54" y="202.99" width="6.23" height="6.3"/>
          <rect class="st3" x="341.77" y="202.99" width="6.23" height="6.3"/>
          <rect class="st3" x="335.54" y="209.29" width="6.23" height="6.3"/>
          <rect x="341.77" y="209.29" width="6.23" height="6.3"/>
        </g>
        <g>
          <rect x="348" y="202.99" width="6.23" height="6.3"/>
          <rect class="st3" x="354.23" y="202.99" width="6.23" height="6.3"/>
          <rect class="st3" x="348" y="209.29" width="6.23" height="6.3"/>
          <rect x="354.23" y="209.29" width="6.23" height="6.3"/>
        </g>
        <g>
          <rect x="360.46" y="202.99" width="6.23" height="6.3"/>
          <rect class="st3" x="366.69" y="202.99" width="6.23" height="6.3"/>
          <rect class="st3" x="360.46" y="209.29" width="6.23" height="6.3"/>
          <rect x="366.69" y="209.29" width="6.23" height="6.3"/>
        </g>
        <g>
          <rect x="372.92" y="202.99" width="6.23" height="6.3"/>
          <rect class="st3" x="379.15" y="202.99" width="6.23" height="6.3"/>
          <rect class="st3" x="372.92" y="209.29" width="6.23" height="6.3"/>
          <rect x="379.15" y="209.29" width="6.23" height="6.3"/>
        </g>
        <g>
          <rect x="385.37" y="202.99" width="6.23" height="6.3"/>
          <rect class="st3" x="391.61" y="202.99" width="6.23" height="6.3"/>
          <rect class="st3" x="385.37" y="209.29" width="6.23" height="6.3"/>
          <rect x="391.61" y="209.29" width="6.23" height="6.3"/>
        </g>
        <g>
          <rect x="397.83" y="202.99" width="6.23" height="6.3"/>
          <rect class="st3" x="404.06" y="202.99" width="6.23" height="6.3"/>
          <rect class="st3" x="397.83" y="209.29" width="6.23" height="6.3"/>
          <rect x="404.06" y="209.29" width="6.23" height="6.3"/>
        </g>
        <g>
          <rect x="410.29" y="202.99" width="6.23" height="6.3"/>
          <rect class="st3" x="416.52" y="202.99" width="6.23" height="6.3"/>
          <rect class="st3" x="410.29" y="209.29" width="6.23" height="6.3"/>
          <rect x="416.52" y="209.29" width="6.23" height="6.3"/>
        </g>
        <g>
          <rect x="422.75" y="202.99" width="6.23" height="6.3"/>
          <rect class="st3" x="428.98" y="202.99" width="6.23" height="6.3"/>
          <rect class="st3" x="422.75" y="209.29" width="6.23" height="6.3"/>
          <rect x="428.98" y="209.29" width="6.23" height="6.3"/>
        </g>
        <g>
          <rect x="435.21" y="202.99" width="6.23" height="6.3"/>
          <rect class="st3" x="441.44" y="202.99" width="6.23" height="6.3"/>
          <rect class="st3" x="435.21" y="209.29" width="6.23" height="6.3"/>
          <rect x="441.44" y="209.29" width="6.23" height="6.3"/>
        </g>
        <g>
          <rect x="447.67" y="202.99" width="6.23" height="6.3"/>
          <rect class="st3" x="453.9" y="202.99" width="6.23" height="6.3"/>
          <rect class="st3" x="447.67" y="209.29" width="6.23" height="6.3"/>
          <rect x="453.9" y="209.29" width="6.23" height="6.3"/>
        </g>
        <g>
          <rect x="460.12" y="202.99" width="6.23" height="6.3"/>
          <rect class="st3" x="466.36" y="202.99" width="6.23" height="6.3"/>
          <rect class="st3" x="460.12" y="209.29" width="6.23" height="6.3"/>
          <rect x="466.36" y="209.29" width="6.23" height="6.3"/>
        </g>
        <g>
          <rect x="472.58" y="202.99" width="6.23" height="6.3"/>
          <rect class="st3" x="478.81" y="202.99" width="6.23" height="6.3"/>
          <rect class="st3" x="472.58" y="209.29" width="6.23" height="6.3"/>
          <rect x="478.81" y="209.29" width="6.23" height="6.3"/>
        </g>
        <g>
          <rect x="485.04" y="202.99" width="6.23" height="6.3"/>
          <rect class="st3" x="491.27" y="202.99" width="6.23" height="6.3"/>
          <rect class="st3" x="485.04" y="209.29" width="6.23" height="6.3"/>
          <rect x="491.27" y="209.29" width="6.23" height="6.3"/>
        </g>
        <g>
          <rect x="497.5" y="202.99" width="6.23" height="6.3"/>
          <rect class="st3" x="503.73" y="202.99" width="6.23" height="6.3"/>
          <rect class="st3" x="497.5" y="209.29" width="6.23" height="6.3"/>
          <rect x="503.73" y="209.29" width="6.23" height="6.3"/>
        </g>
        <g>
          <rect x="509.96" y="202.99" width="6.23" height="6.3"/>
          <rect class="st3" x="516.19" y="202.99" width="6.23" height="6.3"/>
          <rect class="st3" x="509.96" y="209.29" width="6.23" height="6.3"/>
          <rect x="516.19" y="209.29" width="6.23" height="6.3"/>
        </g>
        <g>
          <rect x="522.42" y="202.99" width="6.23" height="6.3"/>
          <rect class="st3" x="528.65" y="202.99" width="6.23" height="6.3"/>
          <rect class="st3" x="522.42" y="209.29" width="6.23" height="6.3"/>
          <rect x="528.65" y="209.29" width="6.23" height="6.3"/>
        </g>
        <g>
          <rect x="534.87" y="202.99" width="6.23" height="6.3"/>
          <rect class="st3" x="541.11" y="202.99" width="6.23" height="6.3"/>
          <rect class="st3" x="534.87" y="209.29" width="6.23" height="6.3"/>
          <rect x="541.11" y="209.29" width="6.23" height="6.3"/>
        </g>
        <g>
          <rect x="547.33" y="202.99" width="6.23" height="6.3"/>
          <rect class="st3" x="553.56" y="202.99" width="6.23" height="6.3"/>
          <rect class="st3" x="547.33" y="209.29" width="6.23" height="6.3"/>
          <rect x="553.56" y="209.29" width="6.23" height="6.3"/>
        </g>
        <g>
          <rect x="559.79" y="202.99" width="6.23" height="6.3"/>
          <rect class="st3" x="566.02" y="202.99" width="6.23" height="6.3"/>
          <rect class="st3" x="559.79" y="209.29" width="6.23" height="6.3"/>
          <rect x="566.02" y="209.29" width="6.23" height="6.3"/>
        </g>
        <g>
          <rect x="572.25" y="202.99" width="6.23" height="6.3"/>
          <rect class="st3" x="578.48" y="202.99" width="6.23" height="6.3"/>
          <rect class="st3" x="572.25" y="209.29" width="6.23" height="6.3"/>
          <rect x="578.48" y="209.29" width="6.23" height="6.3"/>
        </g>
        <g>
          <rect x="584.71" y="202.99" width="6.23" height="6.3"/>
          <rect class="st3" x="590.94" y="202.99" width="6.23" height="6.3"/>
          <rect class="st3" x="584.71" y="209.29" width="6.23" height="6.3"/>
          <rect x="590.94" y="209.29" width="6.23" height="6.3"/>
        </g>
        <g>
          <rect x="597.17" y="202.99" width="6.23" height="6.3"/>
          <rect class="st3" x="603.4" y="202.99" width="6.23" height="6.3"/>
          <rect class="st3" x="597.17" y="209.29" width="6.23" height="6.3"/>
          <rect x="603.4" y="209.29" width="6.23" height="6.3"/>
        </g>
        <g>
          <rect x="609.62" y="202.99" width="6.23" height="6.3"/>
          <rect class="st3" x="615.86" y="202.99" width="6.23" height="6.3"/>
          <rect class="st3" x="609.62" y="209.29" width="6.23" height="6.3"/>
          <rect x="615.86" y="209.29" width="6.23" height="6.3"/>
        </g>
        <g>
          <rect x="622.08" y="202.99" width="6.23" height="6.3"/>
          <rect class="st3" x="628.31" y="202.99" width="6.23" height="6.3"/>
          <rect class="st3" x="622.08" y="209.29" width="6.23" height="6.3"/>
          <rect x="628.31" y="209.29" width="6.23" height="6.3"/>
        </g>
        <g>
          <rect x="634.54" y="202.99" width="6.23" height="6.3"/>
          <rect class="st3" x="640.77" y="202.99" width="6.23" height="6.3"/>
          <rect class="st3" x="634.54" y="209.29" width="6.23" height="6.3"/>
          <rect x="640.77" y="209.29" width="6.23" height="6.3"/>
        </g>
      </g>
    </g>
    <path class="st3" d="M626.11,184.94c-1.84,9.45-.44,18.02-.44,18.02h14.83l-.17-3.67c0-9.82-1.99-11.13-6.28-16.7-2.74-2.01-6.77-3.71-7.95,2.35Z"/>
    <path class="st9" d="M520.4,169.04l-9.29-6.8c-1.62-1.18-1.97-3.48-.79-5.09h0c1.18-1.62,3.48-1.97,5.09-.79l9.29,6.8c1.62,1.18,1.97,3.48.79,5.09h0c-1.18,1.62-3.48,1.97-5.09.79Z"/>
    <rect class="st1" x="499.07" y="152.45" width="22.53" height="14.76" rx="6.59" ry="6.59"/>
    <rect class="st9" x="338.07" y="178.83" width="21.84" height="4.61" rx="2.12" ry="2.12"/>
    <rect class="st9" x="447.2" y="178.83" width="21.84" height="4.61" rx="2.12" ry="2.12"/>
  </g>
  <line class="st6" x1="241.74" y1="207.63" x2="26.67" y2="207.63"/>
  <line class="st4" x1="243.33" y1="193.63" x2="57.03" y2="193.63"/>
  <line class="st6" x1="244.27" y1="183.29" x2="89.08" y2="183.29"/>
  <line class="st4" x1="249.33" y1="170.29" x2="74.74" y2="170.29"/>
  <g>
    <path class="st3" d="M65.88,53.83c-1.17,0-2.22-.23-3.14-.69s-1.65-1.12-2.18-1.97-.8-1.88-.8-3.08v-9.75l-1.91-.33v-1.49h6.13v1.49l-1.91.33v9.75c0,.85.16,1.57.49,2.14s.78,1.01,1.35,1.31,1.25.44,2,.44,1.44-.14,2.03-.43,1.05-.72,1.38-1.3.5-1.3.5-2.16v-9.75l-1.91-.33v-1.49h6.13v1.49l-1.91.33v9.75c0,1.23-.26,2.28-.78,3.13s-1.25,1.5-2.19,1.95-2.04.66-3.29.66Z"/>
    <path class="st3" d="M80.87,53.83c-.85,0-1.65-.09-2.39-.26s-1.53-.44-2.37-.8l-.02-3.01h1.75l.43,1.82c.44.18.86.31,1.27.39s.85.12,1.33.12c.94,0,1.61-.18,2.02-.54s.61-.8.61-1.34c0-.5-.21-.92-.62-1.27s-1.15-.64-2.23-.88c-1.53-.35-2.66-.82-3.38-1.41s-1.08-1.38-1.08-2.36c0-.69.2-1.3.6-1.85s.95-.97,1.66-1.29,1.54-.48,2.48-.48,1.78.11,2.47.33,1.28.51,1.79.88l.12,2.89h-1.73l-.38-1.69c-.27-.2-.6-.36-.97-.47s-.8-.16-1.29-.16c-.72,0-1.3.17-1.75.5s-.67.76-.67,1.27c0,.3.06.55.19.77s.38.42.74.59.91.35,1.62.52c1.77.41,3,.94,3.7,1.58s1.05,1.43,1.05,2.37c0,1.07-.4,1.97-1.19,2.69s-2.04,1.08-3.74,1.08Z"/>
    <path class="st3" d="M87.59,53.58v-1.48l1.91-.33v-14.66l-1.91-.33v-1.49h4.22v16.48l1.91.33v1.48h-6.13ZM87.8,46.82v-1.93l5.74-2.19v1.93l-5.74,2.19Z"/>
    <path class="st3" d="M100.94,53.83c-1.38,0-2.45-.44-3.22-1.32s-1.16-2.26-1.16-4.12v-5.66l-1.45-.33v-1.49h3.76v7.5c0,1.35.2,2.28.6,2.79s1.02.76,1.86.76,1.5-.17,2.03-.5.94-.8,1.21-1.41v-7.32l-1.7-.33v-1.49h4.01v10.88l1.45.33v1.48h-3.53l-.15-1.88c-.4.68-.91,1.2-1.54,1.57s-1.35.55-2.17.55Z"/>
    <path class="st3" d="M115.52,58.7c-.61,0-1.27-.08-1.98-.25s-1.34-.4-1.88-.69l.6-1.79c.43.23.94.41,1.52.56s1.16.22,1.71.22c1.03,0,1.79-.29,2.27-.87s.72-1.4.72-2.47v-1.21c-.41.53-.91.93-1.49,1.21s-1.24.41-1.99.41c-1.03,0-1.92-.26-2.67-.77s-1.33-1.23-1.73-2.14-.6-1.98-.6-3.19v-.25c0-1.36.2-2.55.6-3.57s.98-1.82,1.73-2.38,1.65-.85,2.7-.85c.8,0,1.5.16,2.1.47s1.11.77,1.51,1.36l.21-1.59h1.95v12.52c0,1.09-.21,2.04-.62,2.82s-1.01,1.4-1.79,1.82-1.74.64-2.87.64ZM115.58,51.95c.7,0,1.28-.16,1.75-.47s.86-.76,1.16-1.34v-5.84c-.3-.54-.68-.97-1.16-1.28s-1.05-.47-1.72-.47c-.73,0-1.35.21-1.83.63s-.85,1-1.1,1.74-.36,1.59-.36,2.56v.25c0,1.27.27,2.3.81,3.07s1.36,1.16,2.46,1.16ZM120.44,42.79l-.9-1.89h2.82v1.48l-1.92.41Z"/>
    <path class="st3" d="M123.43,53.58v-1.48l1.91-.33v-9.06l-1.91-.33v-1.49h4.22v10.88l1.91.33v1.48h-6.13ZM125.22,37.77v-2.47h2.43v2.47h-2.43Z"/>
    <path class="st3" d="M141.41,53.58v-1.48l1.91-.33v-13.51h-3.87l-.34,2.37h-1.73v-4.11h14.18v4.11h-1.71l-.35-2.37h-3.87v13.51l1.91.33v1.48h-6.13Z"/>
    <path class="st3" d="M153.55,53.58v-1.48l1.27-.18,5.96-15.41h1.98l5.86,15.41,1.25.18v1.48h-4.9v-1.48l1.29-.22-1.12-3.14h-6.83l-1.16,3.14,1.29.22v1.48h-4.89ZM159.02,46.81h5.41l-2.51-6.94-.14-.39h-.07l-.14.39-2.55,6.94Z"/>
    <path class="st3" d="M171.63,53.58v-1.48l1.48-.26,5.29-6.93-4.9-6.66-1.49-.26v-1.49h5.53v1.49l-1.61.15,3.77,5.26,3.59-5.26-1.64-.15v-1.49h5.57v1.49l-1.56.26-4.63,6.66,5.13,6.93,1.51.26v1.48h-5.6v-1.48l1.65-.15-4.04-5.54-4.03,5.54,1.56.15v1.48h-5.58Z"/>
    <path class="st3" d="M189.56,53.58v-1.48l1.91-.33v-13.44l-1.91-.33v-1.49h6.13v1.49l-1.91.33v13.44l1.91.33v1.48h-6.13Z"/>
    <path class="st3" d="M58.13,79.08v-1.48l1.91-.33v-13.44l-1.91-.33v-1.49h4.99l5.5,12.95h.07l5.32-12.95h5.14v1.49l-1.91.33v13.44l1.91.33v1.48h-6.13v-1.48l2.02-.33v-12.11h-.06s-5.54,13.3-5.54,13.3h-1.54l-5.73-13.29h-.06s.08,7.15.08,7.15v4.95l2.06.33v1.48h-6.13Z"/>
    <path class="st3" d="M85.23,79.33c-1.32,0-2.32-.32-3.01-.97s-1.03-1.55-1.03-2.72.49-2.17,1.48-2.9,2.35-1.1,4.1-1.1h2.26v-1.24c0-.77-.23-1.36-.7-1.78s-1.12-.63-1.96-.63c-.53,0-.99.06-1.38.19s-.75.31-1.07.53l-.25,1.77h-1.78v-2.91c.57-.46,1.23-.81,1.99-1.05s1.6-.36,2.52-.36c1.54,0,2.75.37,3.62,1.1s1.31,1.79,1.31,3.15v6.11c0,.16,0,.32,0,.48s.01.31.03.47l1.23.13v1.48h-3.32c-.07-.34-.12-.65-.16-.93s-.07-.55-.08-.82c-.45.57-1,1.04-1.67,1.42s-1.38.57-2.14.57ZM85.57,77.39c.77,0,1.46-.18,2.1-.55s1.09-.81,1.36-1.32v-2.3h-2.34c-1.06,0-1.86.25-2.39.76s-.8,1.07-.8,1.7c0,.55.17.98.52,1.27s.86.44,1.56.44Z"/>
    <path class="st3" d="M94.37,79.08v-1.48l1.91-.33v-9.06l-1.91-.33v-1.49h3.97l.2,1.62.02.22c.36-.65.8-1.16,1.33-1.52s1.13-.55,1.81-.55c.24,0,.49.02.74.06s.44.08.54.12l-.3,2.14-1.61-.09c-.61-.04-1.12.1-1.54.42s-.73.74-.96,1.27v7.18l1.91.33v1.48h-6.13Z"/>
    <path class="st3" d="M110.13,79.33c-1.15,0-2.15-.27-3-.8s-1.51-1.28-1.98-2.23-.7-2.05-.7-3.3v-.49c0-1.2.23-2.28.68-3.23s1.11-1.71,1.96-2.26,1.87-.83,3.05-.83c1.02,0,1.92.17,2.69.5s1.42.8,1.94,1.38l.06,3.05h-1.8l-.4-2.21c-.27-.27-.6-.49-1-.66s-.87-.25-1.41-.25c-.69,0-1.29.2-1.81.61s-.92.95-1.21,1.63-.43,1.44-.43,2.27v.49c0,.92.13,1.72.4,2.4s.66,1.21,1.16,1.58,1.1.56,1.8.56c.78,0,1.43-.21,1.95-.64s.83-1.02.95-1.77h2.07l.02.07c-.04.73-.25,1.41-.64,2.04s-.95,1.14-1.67,1.53-1.61.58-2.67.58Z"/>
    <path class="st3" d="M116.82,79.08v-1.48l1.91-.33v-9.06l-1.91-.33v-1.49h4.22v10.88l1.91.33v1.48h-6.13ZM118.61,63.27v-2.47h2.43v2.47h-2.43Z"/>
    <path class="st3" d="M124.54,79.08v-1.48l1.91-.33v-9.06l-1.91-.33v-1.49h3.97l.16,1.89c.42-.67.95-1.19,1.59-1.56s1.36-.56,2.17-.56c1.37,0,2.43.4,3.18,1.2s1.12,2.04,1.12,3.71v6.2l1.91.33v1.48h-6.13v-1.48l1.91-.33v-6.15c0-1.12-.22-1.91-.66-2.38s-1.12-.7-2.02-.7c-.66,0-1.25.16-1.76.48s-.92.76-1.22,1.31v7.44l1.91.33v1.48h-6.13Z"/>
    <path class="st3" d="M146.33,79.08v-1.48l1.91-.33v-13.44l-1.91-.33v-1.49h6.13v1.49l-1.91.33v13.44l1.91.33v1.48h-6.13ZM150.38,74.15l-1.23-1.43,8.1-8.99.05-.06-1.28-.16v-1.49h5.47v1.49l-1.61.29-9.5,10.35ZM156.41,79.08v-1.48l1.41-.16h-.01s-4.72-6.56-4.72-6.56l1.29-1.82,6.16,8.25,1.57.29v1.48h-5.7Z"/>
    <path class="st3" d="M163.83,79.08v-1.48l1.91-.33v-9.06l-1.91-.33v-1.49h3.98l.15,1.65c.41-.6.93-1.07,1.57-1.39s1.38-.49,2.23-.49,1.57.2,2.17.59,1.06.98,1.37,1.76c.4-.72.93-1.29,1.58-1.71s1.42-.63,2.3-.63c1.3,0,2.32.44,3.07,1.33s1.12,2.22,1.12,4v5.78l1.91.33v1.48h-6.14v-1.48l1.91-.33v-5.8c0-1.25-.21-2.13-.64-2.65s-1.07-.78-1.91-.78-1.45.28-1.94.85-.77,1.28-.85,2.14v6.25l1.91.33v1.48h-6.13v-1.48l1.91-.33v-5.8c0-1.19-.22-2.06-.66-2.61s-1.08-.83-1.92-.83c-.7,0-1.28.14-1.73.43s-.8.7-1.04,1.22v7.58l1.91.33v1.48h-6.13Z"/>
    <path class="st3" d="M186.92,79.08v-1.48l1.91-.33v-9.06l-1.91-.33v-1.49h4.22v10.88l1.91.33v1.48h-6.13ZM188.71,63.27v-2.47h2.43v2.47h-2.43Z"/>
    <path class="st3" d="M200.42,79.33c-1.17,0-2.19-.27-3.06-.8s-1.54-1.28-2.01-2.23-.71-2.05-.71-3.3v-.52c0-1.2.25-2.28.74-3.23s1.16-1.7,1.98-2.25,1.72-.83,2.7-.83c1.14,0,2.1.23,2.87.7s1.35,1.13,1.74,1.97.59,1.85.59,2.99v1.44h-8.23l-.04.06c.02.81.16,1.53.43,2.16s.66,1.12,1.17,1.48,1.12.54,1.83.54c.78,0,1.47-.11,2.06-.33s1.1-.53,1.53-.92l.9,1.5c-.45.44-1.05.81-1.8,1.11s-1.64.45-2.69.45ZM197.1,71.48h5.85v-.3c0-.61-.11-1.15-.32-1.63s-.54-.86-.96-1.14-.96-.42-1.6-.42c-.52,0-.98.15-1.41.45s-.77.71-1.04,1.22-.45,1.1-.54,1.76l.02.06Z"/>
    <path class="st3" d="M212.78,79.33c-1.15,0-2.15-.27-3-.8s-1.51-1.28-1.98-2.23-.7-2.05-.7-3.3v-.49c0-1.2.23-2.28.68-3.23s1.11-1.71,1.96-2.26,1.87-.83,3.05-.83c1.02,0,1.92.17,2.69.5s1.42.8,1.94,1.38l.06,3.05h-1.8l-.4-2.21c-.27-.27-.6-.49-1-.66s-.87-.25-1.41-.25c-.69,0-1.29.2-1.81.61s-.92.95-1.21,1.63-.43,1.44-.43,2.27v.49c0,.92.13,1.72.4,2.4s.66,1.21,1.16,1.58,1.1.56,1.8.56c.78,0,1.43-.21,1.95-.64s.83-1.02.95-1.77h2.07l.02.07c-.04.73-.25,1.41-.64,2.04s-.95,1.14-1.67,1.53-1.61.58-2.67.58Z"/>
    <path class="st3" d="M219.48,79.08v-1.48l1.91-.33v-9.06l-1.91-.33v-1.49h4.22v10.88l1.91.33v1.48h-6.13ZM221.27,63.27v-2.47h2.43v2.47h-2.43Z"/>
    <path class="st3" d="M227.08,79.08v-1.48l1.91-.33v-14.66l-1.91-.33v-1.49h4.22v16.48l1.91.33v1.48h-6.13ZM231.14,75.41l-.86-1.82,5.51-5.48.06-.07-1.36-.15v-1.49h5.46v1.49l-1.63.3-7.18,7.22ZM235.23,79.08v-1.48l1.29-.15-.04-.05-3.67-4.73,1.2-1.84,5.12,6.49,1.83.28v1.48h-5.73Z"/>
    <path class="st3" d="M58,104.58v-1.48l1.91-.33v-13.44l-1.91-.33v-1.49h4.24l8.37,13.3.07-.02v-11.46l-2.1-.33v-1.49h6.13v1.49l-1.91.33v15.25h-2.11l-8.59-13.37-.07.02v11.54l2.1.33v1.48h-6.13Z"/>
    <path class="st3" d="M76.47,104.58v-1.48l1.91-.33v-9.06l-1.91-.33v-1.49h4.22v10.88l1.91.33v1.48h-6.13ZM78.26,88.77v-2.47h2.43v2.47h-2.43Z"/>
    <path class="st3" d="M89.97,104.83c-1.17,0-2.19-.27-3.06-.8s-1.54-1.28-2.01-2.23-.71-2.05-.71-3.3v-.52c0-1.2.25-2.28.74-3.23s1.16-1.7,1.98-2.25,1.72-.83,2.7-.83c1.14,0,2.1.23,2.87.7s1.35,1.13,1.74,1.97.59,1.85.59,2.99v1.44h-8.23l-.04.06c.02.81.16,1.53.43,2.16s.66,1.12,1.17,1.48,1.12.54,1.83.54c.78,0,1.47-.11,2.06-.33s1.1-.53,1.53-.92l.9,1.5c-.45.44-1.05.81-1.8,1.11s-1.64.45-2.69.45ZM86.66,96.98h5.85v-.3c0-.61-.11-1.15-.32-1.63s-.54-.86-.96-1.14-.96-.42-1.6-.42c-.52,0-.98.15-1.41.45s-.77.71-1.04,1.22-.45,1.1-.54,1.76l.02.06Z"/>
    <path class="st3" d="M101.58,104.83c-1.03,0-1.92-.26-2.65-.77s-1.3-1.22-1.69-2.14-.59-1.98-.59-3.2v-.25c0-1.36.2-2.55.59-3.57s.96-1.82,1.7-2.38,1.63-.85,2.67-.85c.75,0,1.41.14,1.99.42s1.06.68,1.47,1.2v-5.17l-1.91-.33v-1.49h4.22v16.48l1.91.33v1.48h-3.91l-.19-1.51c-.41.58-.92,1.02-1.52,1.31s-1.29.45-2.08.45ZM102.17,102.95c.69,0,1.27-.16,1.73-.47s.86-.75,1.16-1.32v-5.88c-.3-.53-.68-.95-1.16-1.27s-1.05-.47-1.71-.47c-.73,0-1.34.21-1.82.63s-.83,1-1.07,1.73-.35,1.6-.35,2.57v.25c0,1.27.26,2.3.79,3.07s1.33,1.16,2.43,1.16Z"/>
    <path class="st3" d="M111.04,104.58v-1.62l6.9-9.28h-4.72l-.29,2.13h-1.73v-3.91h9.61v1.57l-6.97,9.35h5.4l.3-2.14h1.72v3.9h-10.22ZM114.64,89.49l2.16-3.19h2.7l.02.07-3.15,3.12h-1.72Z"/>
    <path class="st3" d="M127.47,104.58l-3.34-11.03-1.42-.16v-1.49h5.24v1.49l-1.56.26,1.75,6.32.4,1.5h.07l.52-1.5,2.75-8.06h1.95l2.62,8.04.56,1.78h.07l.55-1.78,1.77-6.3-1.59-.25v-1.49h5.12v1.49l-1.41.2-3.28,10.99h-2.19l-2.57-7.62-.61-2.04h-.07s-.6,2.04-.6,2.04l-2.75,7.62h-1.98Z"/>
    <path class="st3" d="M144.25,104.58v-1.48l1.91-.33v-9.06l-1.91-.33v-1.49h4.22v10.88l1.91.33v1.48h-6.13ZM146.05,88.77v-2.47h2.43v2.47h-2.43Z"/>
    <path class="st3" d="M157.75,104.83c-1.17,0-2.19-.27-3.06-.8s-1.54-1.28-2.01-2.23-.71-2.05-.71-3.3v-.52c0-1.2.25-2.28.74-3.23s1.16-1.7,1.98-2.25,1.72-.83,2.7-.83c1.14,0,2.1.23,2.87.7s1.35,1.13,1.74,1.97.59,1.85.59,2.99v1.44h-8.23l-.04.06c.02.81.16,1.53.43,2.16s.66,1.12,1.17,1.48,1.12.54,1.83.54c.78,0,1.47-.11,2.06-.33s1.1-.53,1.53-.92l.9,1.5c-.45.44-1.05.81-1.8,1.11s-1.64.45-2.69.45ZM154.44,96.98h5.85v-.3c0-.61-.11-1.15-.32-1.63s-.54-.86-.96-1.14-.96-.42-1.6-.42c-.52,0-.98.15-1.41.45s-.77.71-1.04,1.22-.45,1.1-.54,1.76l.02.06Z"/>
    <path class="st3" d="M169.37,104.83c-1.03,0-1.92-.26-2.65-.77s-1.3-1.22-1.69-2.14-.59-1.98-.59-3.2v-.25c0-1.36.2-2.55.59-3.57s.96-1.82,1.7-2.38,1.63-.85,2.67-.85c.75,0,1.41.14,1.99.42s1.06.68,1.47,1.2v-5.17l-1.91-.33v-1.49h4.22v16.48l1.91.33v1.48h-3.91l-.19-1.51c-.41.58-.92,1.02-1.52,1.31s-1.29.45-2.08.45ZM169.95,102.95c.69,0,1.27-.16,1.73-.47s.86-.75,1.16-1.32v-5.88c-.3-.53-.68-.95-1.16-1.27s-1.05-.47-1.71-.47c-.73,0-1.34.21-1.82.63s-.83,1-1.07,1.73-.35,1.6-.35,2.57v.25c0,1.27.26,2.3.79,3.07s1.33,1.16,2.43,1.16Z"/>
    <path class="st3" d="M178.82,104.58v-1.62l6.9-9.28h-4.72l-.29,2.13h-1.73v-3.91h9.61v1.57l-6.97,9.35h5.4l.3-2.14h1.72v3.9h-10.22ZM182.42,89.49l2.16-3.19h2.7l.02.07-3.15,3.12h-1.72Z"/>
    <path class="st3" d="M200.03,104.58l.19-1.84c.22-1.8.57-3.46,1.07-4.98s1.13-2.97,1.91-4.35,1.72-2.73,2.81-4.08h-7.12l-.18,1.96h-1.97v-3.77h11.53v1.82c-1.03,1.23-1.88,2.37-2.55,3.42s-1.21,2.09-1.62,3.11-.73,2.08-.97,3.19-.43,2.34-.6,3.69l-.19,1.84h-2.31Z"/>
    <path class="st3" d="M215.06,104.83c-.59,0-1.2-.06-1.82-.17s-1.18-.29-1.67-.52l.35-1.75c.48.23.96.39,1.46.49s1.06.15,1.68.15c1.11,0,1.99-.42,2.63-1.27s.98-2.21,1-4.1l-.05-.06c-.31.52-.75.93-1.31,1.21s-1.2.42-1.9.42c-1.11,0-2.07-.23-2.87-.69s-1.42-1.13-1.86-2.01-.65-1.94-.65-3.17.24-2.24.71-3.15,1.11-1.63,1.91-2.15,1.69-.78,2.67-.78c1.19,0,2.21.25,3.07.74s1.52,1.23,1.99,2.21.7,2.2.7,3.65v3.08c0,1.77-.25,3.24-.75,4.41s-1.2,2.03-2.1,2.6-1.96.86-3.18.86ZM215.43,97.41c.85,0,1.56-.18,2.13-.55s.97-.84,1.22-1.41v-1.8c0-1.51-.29-2.64-.86-3.41s-1.41-1.15-2.51-1.15c-.56,0-1.07.18-1.54.54s-.83.87-1.1,1.51-.41,1.38-.41,2.21.12,1.52.37,2.13.6,1.08,1.06,1.42,1.01.5,1.64.5Z"/>
    <path class="st3" d="M64.23,130.33c-1.11,0-2.1-.27-2.97-.81s-1.56-1.33-2.06-2.37-.75-2.3-.75-3.77v-2.3c0-1.8.27-3.32.81-4.55s1.29-2.16,2.24-2.79,2.05-.95,3.3-.95c.58,0,1.15.07,1.73.2s1.05.3,1.42.5l-.45,1.72c-.37-.18-.77-.33-1.21-.44s-.94-.17-1.5-.17c-1.2,0-2.15.45-2.85,1.35s-1.08,2.26-1.13,4.08l.05.05c.44-.41.97-.73,1.61-.97s1.32-.36,2.05-.36c1.02,0,1.9.24,2.65.72s1.33,1.14,1.74,1.99.62,1.8.62,2.88c0,1.17-.22,2.21-.66,3.11s-1.05,1.61-1.85,2.12-1.73.76-2.81.76ZM64.23,128.52c.63,0,1.17-.18,1.62-.55s.79-.87,1.03-1.5.36-1.34.36-2.13c0-1.12-.28-2.05-.85-2.78s-1.35-1.09-2.35-1.09c-.52,0-1,.07-1.42.22s-.79.35-1.1.6-.56.57-.76.93v1.37c0,1.59.33,2.8.99,3.66s1.49,1.28,2.49,1.28Z"/>
    <path class="st3" d="M76.65,130.33c-1.04,0-1.97-.19-2.78-.57s-1.45-.92-1.9-1.62-.67-1.53-.64-2.49l.04-.07h2.2c0,.59.12,1.11.38,1.55s.61.78,1.07,1.03,1.01.36,1.65.36c.98,0,1.74-.27,2.3-.8s.83-1.32.83-2.36-.25-1.83-.74-2.33-1.27-.75-2.33-.75h-2.02v-1.8h2.02c.69,0,1.24-.12,1.65-.35s.71-.56.89-1,.28-.96.28-1.56c0-.98-.24-1.72-.73-2.23s-1.2-.76-2.14-.76c-.59,0-1.12.12-1.56.36s-.8.57-1.04,1.01-.37.94-.37,1.53h-2.21l-.02-.07c-.02-.86.18-1.64.62-2.34s1.05-1.26,1.84-1.68,1.71-.62,2.76-.62c1.58,0,2.84.42,3.77,1.26s1.41,2.04,1.41,3.59c0,.7-.21,1.4-.64,2.1s-1.06,1.23-1.92,1.6c1.02.34,1.75.86,2.17,1.58s.64,1.52.64,2.41c0,1.03-.23,1.92-.7,2.67s-1.11,1.33-1.92,1.73-1.76.6-2.82.6Z"/>
    <path class="st3" d="M85.2,123.78v-1.8h5.73v1.8h-5.73Z"/>
    <path class="st3" d="M98.85,130.33c-.96,0-1.82-.18-2.58-.53s-1.36-.88-1.79-1.57-.63-1.55-.61-2.57l.02-.07h2.09c0,.92.27,1.64.8,2.16s1.22.77,2.07.77c.98,0,1.73-.34,2.27-1.03s.81-1.63.81-2.82c0-1.1-.27-2-.81-2.7s-1.29-1.05-2.26-1.05c-.91,0-1.56.14-1.97.41s-.71.69-.9,1.25l-1.92-.2.98-9.36h9.01v3.38h-1.73l-.22-1.32h-5.1l-.55,4.79c.23-.18.49-.34.76-.47s.57-.25.9-.33.68-.13,1.06-.14c1.05-.02,1.95.21,2.71.68s1.34,1.13,1.75,2,.61,1.88.61,3.05-.21,2.14-.62,2.99-1.02,1.51-1.82,1.99-1.79.71-2.96.71Z"/>
    <path class="st3" d="M112.26,130.33c-1.67,0-3-.58-3.97-1.75s-1.46-2.83-1.46-5v-4.04c0-2.17.48-3.84,1.45-5.01s2.29-1.75,3.96-1.75,3.01.58,3.98,1.75,1.46,2.84,1.46,5.01v4.04c0,2.18-.48,3.85-1.45,5.01s-2.29,1.74-3.97,1.74ZM112.26,128.52c1.02,0,1.8-.38,2.33-1.12s.79-1.87.79-3.35v-5c0-1.48-.27-2.59-.8-3.33s-1.31-1.12-2.34-1.12-1.78.37-2.31,1.12-.8,1.86-.8,3.33v5c0,1.48.27,2.59.81,3.35s1.31,1.13,2.32,1.13Z"/>
    <path class="st3" d="M125.95,130.33c-1.67,0-3-.58-3.97-1.75s-1.46-2.83-1.46-5v-4.04c0-2.17.48-3.84,1.45-5.01s2.29-1.75,3.96-1.75,3.01.58,3.98,1.75,1.46,2.84,1.46,5.01v4.04c0,2.18-.48,3.85-1.45,5.01s-2.29,1.74-3.97,1.74ZM125.95,128.52c1.02,0,1.8-.38,2.33-1.12s.79-1.87.79-3.35v-5c0-1.48-.27-2.59-.8-3.33s-1.31-1.12-2.34-1.12-1.78.37-2.31,1.12-.8,1.86-.8,3.33v5c0,1.48.27,2.59.81,3.35s1.31,1.13,2.32,1.13Z"/>
    <path class="st3" d="M146.66,130.33c-1.1,0-2.09-.21-2.96-.63s-1.62-1.02-2.23-1.79-1.08-1.68-1.41-2.74-.49-2.22-.49-3.49v-.25c0-1.27.16-2.43.49-3.49s.79-1.97,1.41-2.75,1.36-1.37,2.23-1.79,1.86-.63,2.96-.63c1.16,0,2.19.21,3.07.63s1.62,1.02,2.22,1.79,1.05,1.69,1.35,2.75.46,2.22.46,3.49v.25c0,1.27-.15,2.44-.46,3.49s-.76,1.97-1.35,2.74-1.34,1.37-2.22,1.79-1.91.63-3.07.63ZM146.66,128.41c1.13,0,2.05-.28,2.75-.84s1.21-1.35,1.54-2.36.49-2.19.49-3.52v-.27c0-1.33-.17-2.49-.5-3.5s-.85-1.79-1.55-2.36-1.61-.85-2.73-.85c-1.02,0-1.89.29-2.6.86s-1.25,1.36-1.62,2.36-.55,2.17-.55,3.49v.27c0,1.33.18,2.5.55,3.51s.91,1.8,1.62,2.37,1.58.85,2.6.85Z"/>
    <path class="st3" d="M160.58,130.33c-.85,0-1.65-.09-2.39-.26s-1.53-.44-2.37-.8l-.02-3.01h1.75l.43,1.82c.44.18.86.31,1.27.39s.85.12,1.33.12c.94,0,1.61-.18,2.02-.54s.61-.8.61-1.34c0-.5-.21-.92-.62-1.27s-1.15-.64-2.23-.88c-1.53-.35-2.66-.82-3.38-1.41s-1.08-1.38-1.08-2.36c0-.69.2-1.3.6-1.85s.95-.97,1.66-1.29,1.54-.48,2.48-.48,1.78.11,2.47.33,1.28.51,1.79.88l.12,2.89h-1.73l-.38-1.69c-.27-.2-.6-.36-.97-.47s-.8-.16-1.29-.16c-.72,0-1.3.17-1.75.5s-.67.76-.67,1.27c0,.3.06.55.19.77s.38.42.74.59.91.35,1.62.52c1.77.41,3,.94,3.7,1.58s1.05,1.43,1.05,2.37c0,1.07-.4,1.97-1.19,2.69s-2.04,1.08-3.74,1.08Z"/>
    <path class="st3" d="M171.9,130.28c-.94,0-1.68-.28-2.23-.83s-.83-1.43-.83-2.64v-7.7h-2v-1.71h2v-3.06h2.31v3.06h2.75v1.71h-2.75v7.7c0,.61.12,1.06.36,1.35s.57.43.97.43c.27,0,.58-.03.91-.08s.6-.1.79-.13l.32,1.51c-.34.1-.75.19-1.24.27s-.94.12-1.37.12Z"/>
    <path class="st3" d="M175.95,130.08v-1.48l1.91-.33v-9.06l-1.91-.33v-1.49h3.97l.2,1.62.02.22c.36-.65.8-1.16,1.33-1.52s1.13-.55,1.81-.55c.24,0,.49.02.74.06s.44.08.54.12l-.3,2.14-1.61-.09c-.61-.04-1.12.1-1.54.42s-.73.74-.96,1.27v7.18l1.91.33v1.48h-6.13Z"/>
    <path class="st3" d="M186.15,130.08v-1.62l6.9-9.28h-4.72l-.29,2.13h-1.73v-3.91h9.61v1.57l-6.97,9.35h5.4l.3-2.14h1.72v3.9h-10.22Z"/>
    <path class="st3" d="M203.85,130.33c-1.17,0-2.19-.27-3.06-.8s-1.54-1.28-2.01-2.23-.71-2.05-.71-3.3v-.52c0-1.2.25-2.28.74-3.23s1.16-1.7,1.98-2.25,1.72-.83,2.7-.83c1.14,0,2.1.23,2.87.7s1.35,1.13,1.74,1.97.59,1.85.59,2.99v1.44h-8.23l-.04.06c.02.81.16,1.53.43,2.16s.66,1.12,1.17,1.48,1.12.54,1.83.54c.78,0,1.47-.11,2.06-.33s1.1-.53,1.53-.92l.9,1.5c-.45.44-1.05.81-1.8,1.11s-1.64.45-2.69.45ZM200.54,122.48h5.85v-.3c0-.61-.11-1.15-.32-1.63s-.54-.86-.96-1.14-.96-.42-1.6-.42c-.52,0-.98.15-1.41.45s-.77.71-1.04,1.22-.45,1.1-.54,1.76l.02.06Z"/>
    <path class="st3" d="M215.62,130.33c-.85,0-1.65-.09-2.39-.26s-1.53-.44-2.37-.8l-.02-3.01h1.75l.43,1.82c.44.18.86.31,1.27.39s.85.12,1.33.12c.94,0,1.61-.18,2.02-.54s.61-.8.61-1.34c0-.5-.21-.92-.62-1.27s-1.15-.64-2.23-.88c-1.53-.35-2.66-.82-3.38-1.41s-1.08-1.38-1.08-2.36c0-.69.2-1.3.6-1.85s.95-.97,1.66-1.29,1.54-.48,2.48-.48,1.78.11,2.47.33,1.28.51,1.79.88l.12,2.89h-1.73l-.38-1.69c-.27-.2-.6-.36-.97-.47s-.8-.16-1.29-.16c-.72,0-1.3.17-1.75.5s-.67.76-.67,1.27c0,.3.06.55.19.77s.38.42.74.59.91.35,1.62.52c1.77.41,3,.94,3.7,1.58s1.05,1.43,1.05,2.37c0,1.07-.4,1.97-1.19,2.69s-2.04,1.08-3.74,1.08Z"/>
    <path class="st3" d="M222.63,130.08v-1.62l6.9-9.28h-4.72l-.29,2.13h-1.73v-3.91h9.61v1.57l-6.97,9.35h5.4l.3-2.14h1.72v3.9h-10.22Z"/>
    <path class="st3" d="M240.29,130.33c-1.17,0-2.18-.28-3.03-.83s-1.5-1.31-1.96-2.29-.69-2.08-.69-3.33v-.26c0-1.25.23-2.36.69-3.33s1.12-1.74,1.96-2.29,1.85-.83,3.01-.83,2.18.28,3.03.83,1.5,1.32,1.96,2.29.69,2.08.69,3.34v.26c0,1.26-.23,2.37-.69,3.35s-1.11,1.73-1.96,2.28-1.85.82-3.01.82ZM240.29,128.52c.73,0,1.35-.2,1.85-.6s.87-.95,1.12-1.65.38-1.49.38-2.38v-.26c0-.89-.13-1.69-.38-2.38s-.63-1.25-1.13-1.65-1.12-.6-1.86-.6-1.35.2-1.85.6-.88.95-1.12,1.65-.38,1.49-.38,2.38v.26c0,.89.12,1.69.38,2.38s.63,1.25,1.13,1.65,1.13.6,1.87.6ZM238.86,114.99l2.16-3.19h2.7l.02.07-3.15,3.12h-1.72Z"/>
    <path class="st3" d="M252.23,130.08l-3.34-11.03-1.42-.16v-1.49h5.24v1.49l-1.56.26,1.75,6.32.4,1.5h.07l.52-1.5,2.75-8.06h1.95l2.62,8.04.56,1.78h.07l.55-1.78,1.77-6.3-1.59-.25v-1.49h5.12v1.49l-1.41.2-3.28,10.99h-2.19l-2.57-7.62-.61-2.04h-.07s-.6,2.04-.6,2.04l-2.75,7.62h-1.98Z"/>
    <path class="st3" d="M62.19,155.58v-1.48l1.91-.33v-13.51h-3.87l-.34,2.37h-1.73v-4.11h14.18v4.11h-1.71l-.35-2.37h-3.87v13.51l1.91.33v1.48h-6.13Z"/>
    <path class="st3" d="M80.15,155.83c-1.17,0-2.19-.27-3.06-.8s-1.54-1.28-2.01-2.23-.71-2.05-.71-3.3v-.52c0-1.2.25-2.28.74-3.23s1.16-1.7,1.98-2.25,1.72-.83,2.7-.83c1.14,0,2.1.23,2.87.7s1.35,1.13,1.74,1.97.59,1.85.59,2.99v1.44h-8.23l-.04.06c.02.81.16,1.53.43,2.16s.66,1.12,1.17,1.48,1.12.54,1.83.54c.78,0,1.47-.11,2.06-.33s1.1-.53,1.53-.92l.9,1.5c-.45.44-1.05.81-1.8,1.11s-1.64.45-2.69.45ZM76.83,147.98h5.85v-.3c0-.61-.11-1.15-.32-1.63s-.54-.86-.96-1.14-.96-.42-1.6-.42c-.52,0-.98.15-1.41.45s-.77.71-1.04,1.22-.45,1.1-.54,1.76l.02.06Z"/>
    <path class="st3" d="M86.67,155.58v-1.48l1.91-.33v-14.66l-1.91-.33v-1.49h4.22v16.48l1.91.33v1.48h-6.13Z"/>
    <path class="st3" d="M95.27,155.58v-2.37h2.31v2.37h-2.31Z"/>
    <path class="st3" d="M112.51,155.83c-1.11,0-2.1-.27-2.97-.81s-1.56-1.33-2.06-2.37-.75-2.3-.75-3.77v-2.3c0-1.8.27-3.32.81-4.55s1.29-2.16,2.24-2.79,2.05-.95,3.3-.95c.58,0,1.15.07,1.73.2s1.05.3,1.42.5l-.45,1.72c-.37-.18-.77-.33-1.21-.44s-.94-.17-1.5-.17c-1.2,0-2.15.45-2.85,1.35s-1.08,2.26-1.13,4.08l.05.05c.44-.41.97-.73,1.61-.97s1.32-.36,2.05-.36c1.02,0,1.9.24,2.65.72s1.33,1.14,1.74,1.99.62,1.8.62,2.88c0,1.17-.22,2.21-.66,3.11s-1.05,1.61-1.85,2.12-1.73.76-2.81.76ZM112.51,154.02c.63,0,1.17-.18,1.62-.55s.79-.87,1.03-1.5.36-1.34.36-2.13c0-1.12-.28-2.05-.85-2.78s-1.35-1.09-2.35-1.09c-.52,0-1,.07-1.42.22s-.79.35-1.1.6-.56.57-.76.93v1.37c0,1.59.33,2.8.99,3.66s1.49,1.28,2.49,1.28Z"/>
    <path class="st3" d="M124.71,155.83c-.59,0-1.2-.06-1.82-.17s-1.18-.29-1.67-.52l.35-1.75c.48.23.96.39,1.46.49s1.06.15,1.68.15c1.11,0,1.99-.42,2.63-1.27s.98-2.21,1-4.1l-.05-.06c-.31.52-.75.93-1.31,1.21s-1.2.42-1.9.42c-1.11,0-2.07-.23-2.87-.69s-1.42-1.13-1.86-2.01-.65-1.94-.65-3.17.24-2.24.71-3.15,1.11-1.63,1.91-2.15,1.69-.78,2.67-.78c1.19,0,2.21.25,3.07.74s1.52,1.23,1.99,2.21.7,2.2.7,3.65v3.08c0,1.77-.25,3.24-.75,4.41s-1.2,2.03-2.1,2.6-1.96.86-3.18.86ZM125.08,148.41c.85,0,1.56-.18,2.13-.55s.97-.84,1.22-1.41v-1.8c0-1.51-.29-2.64-.86-3.41s-1.41-1.15-2.51-1.15c-.56,0-1.07.18-1.54.54s-.83.87-1.1,1.51-.41,1.38-.41,2.21.12,1.52.37,2.13.6,1.08,1.06,1.42,1.01.5,1.64.5Z"/>
    <path class="st3" d="M133.38,155.58v-1.58l5.59-6.21c.67-.75,1.19-1.39,1.56-1.91s.63-1,.78-1.44.22-.88.22-1.33c0-.85-.26-1.57-.77-2.15s-1.25-.87-2.21-.87-1.78.3-2.34.9-.84,1.45-.84,2.55h-2.21l-.02-.07c-.02-.98.18-1.87.62-2.65s1.07-1.41,1.9-1.86,1.82-.69,2.97-.69c1.08,0,2.01.21,2.78.62s1.38.97,1.8,1.68.63,1.53.63,2.45c0,.62-.12,1.25-.37,1.86s-.6,1.25-1.07,1.9-1.04,1.33-1.71,2.05l-4.49,4.89.02.06h6.06l.19-1.96h1.96v3.76h-11.05Z"/>
    <path class="st3" d="M158.32,155.83c-1.67,0-3-.58-3.97-1.75s-1.46-2.83-1.46-5v-4.04c0-2.17.48-3.84,1.45-5.01s2.29-1.75,3.96-1.75,3.01.58,3.98,1.75,1.46,2.84,1.46,5.01v4.04c0,2.18-.48,3.85-1.45,5.01s-2.29,1.74-3.97,1.74ZM158.32,154.02c1.02,0,1.8-.38,2.33-1.12s.79-1.87.79-3.35v-5c0-1.48-.27-2.59-.8-3.33s-1.31-1.12-2.34-1.12-1.78.37-2.31,1.12-.8,1.86-.8,3.33v5c0,1.48.27,2.59.81,3.35s1.31,1.13,2.32,1.13Z"/>
    <path class="st3" d="M171.36,155.83c-1.04,0-1.97-.19-2.78-.57s-1.45-.92-1.9-1.62-.67-1.53-.64-2.49l.04-.07h2.2c0,.59.12,1.11.38,1.55s.61.78,1.07,1.03,1.01.36,1.65.36c.98,0,1.74-.27,2.3-.8s.83-1.32.83-2.36-.25-1.83-.74-2.33-1.27-.75-2.33-.75h-2.02v-1.8h2.02c.69,0,1.24-.12,1.65-.35s.71-.56.89-1,.28-.96.28-1.56c0-.98-.24-1.72-.73-2.23s-1.2-.76-2.14-.76c-.59,0-1.12.12-1.56.36s-.8.57-1.04,1.01-.37.94-.37,1.53h-2.21l-.02-.07c-.02-.86.18-1.64.62-2.34s1.05-1.26,1.84-1.68,1.71-.62,2.76-.62c1.58,0,2.84.42,3.77,1.26s1.41,2.04,1.41,3.59c0,.7-.21,1.4-.64,2.1s-1.06,1.23-1.92,1.6c1.02.34,1.75.86,2.17,1.58s.64,1.52.64,2.41c0,1.03-.23,1.92-.7,2.67s-1.11,1.33-1.92,1.73-1.76.6-2.82.6Z"/>
    <path class="st3" d="M184.1,155.83c-.59,0-1.2-.06-1.82-.17s-1.18-.29-1.67-.52l.35-1.75c.48.23.96.39,1.46.49s1.06.15,1.68.15c1.11,0,1.99-.42,2.63-1.27s.98-2.21,1-4.1l-.05-.06c-.31.52-.75.93-1.31,1.21s-1.2.42-1.9.42c-1.11,0-2.07-.23-2.87-.69s-1.42-1.13-1.86-2.01-.65-1.94-.65-3.17.24-2.24.71-3.15,1.11-1.63,1.91-2.15,1.69-.78,2.67-.78c1.19,0,2.21.25,3.07.74s1.52,1.23,1.99,2.21.7,2.2.7,3.65v3.08c0,1.77-.25,3.24-.75,4.41s-1.2,2.03-2.1,2.6-1.96.86-3.18.86ZM184.47,148.41c.85,0,1.56-.18,2.13-.55s.97-.84,1.22-1.41v-1.8c0-1.51-.29-2.64-.86-3.41s-1.41-1.15-2.51-1.15c-.56,0-1.07.18-1.54.54s-.83.87-1.1,1.51-.41,1.38-.41,2.21.12,1.52.37,2.13.6,1.08,1.06,1.42,1.01.5,1.64.5Z"/>
    <path class="st3" d="M204.45,155.83c-1.67,0-3-.58-3.97-1.75s-1.46-2.83-1.46-5v-4.04c0-2.17.48-3.84,1.45-5.01s2.29-1.75,3.96-1.75,3.01.58,3.98,1.75,1.46,2.84,1.46,5.01v4.04c0,2.18-.48,3.85-1.45,5.01s-2.29,1.74-3.97,1.74ZM204.45,154.02c1.02,0,1.8-.38,2.33-1.12s.79-1.87.79-3.35v-5c0-1.48-.27-2.59-.8-3.33s-1.31-1.12-2.34-1.12-1.78.37-2.31,1.12-.8,1.86-.8,3.33v5c0,1.48.27,2.59.81,3.35s1.31,1.13,2.32,1.13Z"/>
    <path class="st3" d="M218.48,155.83c-1.11,0-2.1-.27-2.97-.81s-1.56-1.33-2.06-2.37-.75-2.3-.75-3.77v-2.3c0-1.8.27-3.32.81-4.55s1.29-2.16,2.24-2.79,2.05-.95,3.3-.95c.58,0,1.15.07,1.73.2s1.05.3,1.42.5l-.45,1.72c-.37-.18-.77-.33-1.21-.44s-.94-.17-1.5-.17c-1.2,0-2.15.45-2.85,1.35s-1.08,2.26-1.13,4.08l.05.05c.44-.41.97-.73,1.61-.97s1.32-.36,2.05-.36c1.02,0,1.9.24,2.65.72s1.33,1.14,1.74,1.99.62,1.8.62,2.88c0,1.17-.22,2.21-.66,3.11s-1.05,1.61-1.85,2.12-1.73.76-2.81.76ZM218.48,154.02c.63,0,1.17-.18,1.62-.55s.79-.87,1.03-1.5.36-1.34.36-2.13c0-1.12-.28-2.05-.85-2.78s-1.35-1.09-2.35-1.09c-.52,0-1,.07-1.42.22s-.79.35-1.1.6-.56.57-.76.93v1.37c0,1.59.33,2.8.99,3.66s1.49,1.28,2.49,1.28Z"/>
    <path class="st3" d="M228.87,155.58l.19-1.84c.22-1.8.57-3.46,1.07-4.98s1.13-2.97,1.91-4.35,1.72-2.73,2.81-4.08h-7.12l-.18,1.96h-1.97v-3.77h11.53v1.82c-1.03,1.23-1.88,2.37-2.55,3.42s-1.21,2.09-1.62,3.11-.73,2.08-.97,3.19-.43,2.34-.6,3.69l-.19,1.84h-2.31Z"/>
  </g>
</svg>