<?xml version="1.0" encoding="UTF-8"?>
<svg id="Warstwa_1" xmlns="http://www.w3.org/2000/svg" version="1.1" viewBox="0 0 595.28 194.79">
  <!-- Generator: Adobe Illustrator 29.4.0, SVG Export Plug-In . SVG Version: 2.1.0 Build 152)  -->
  <path d="M55.28,19.64h27.39v47.87c0,4.43,1.01,7.58,3.04,9.46,2.03,1.88,5.41,2.82,10.16,2.82s7.94-.92,9.93-2.77c1.99-1.85,2.98-5.02,2.98-9.52V19.64h27.39v49.82c0,9.73-3.45,17.17-10.33,22.3-6.89,5.13-16.88,7.7-29.96,7.7s-23.22-2.57-30.17-7.72c-6.95-5.15-10.42-12.57-10.42-22.27V19.64Z"/>
  <path d="M147.6,97.29V19.64h26l23.91,36.11c.73,1.02,1.51,2.46,2.35,4.32.83,1.86,1.71,4.11,2.63,6.75-.23-1.37-.41-2.88-.52-4.53-.12-1.65-.17-3.65-.17-6.01v-10.54h26.11v51.56h-26.11l-23.91-35.85c-.73-1.05-1.53-2.55-2.4-4.48-.87-1.93-1.75-4.15-2.63-6.64.27,1.37.46,2.8.58,4.3.12,1.5.17,3.59.17,6.3v36.37h-26Z"/>
  <path d="M244.58,97.29v-51.56h27.91v51.56h-27.91Z"/>
  <path d="M307.11,97.29v-57.2h-105.32v-20.45h157.25v20.45h-24.55v57.2h-27.39Z"/>
  <path d="M367.91,97.29V19.64h40.82c12.78,0,21.89,1.74,27.36,5.22,5.46,3.48,8.19,9.19,8.19,17.13,0,4.74-1.12,8.68-3.36,11.81-2.24,3.13-5.69,5.61-10.36,7.43,4.75.91,8.2,2.72,10.36,5.4,2.16,2.69,3.32,6.63,3.47,11.84l.46,10.81c0,.07.02.16.06.26.12,3.09.93,4.71,2.43,4.85v2.9h-27.62c-.5-1.86-.88-3.49-1.13-4.87-.25-1.39-.37-2.47-.37-3.24v-7.75c0-4.01-.87-6.83-2.61-8.46-1.74-1.63-4.75-2.45-9.03-2.45h-11.64v26.78h-27.04ZM394.95,53.01h12.45c4.36,0,7.37-.53,9.03-1.61s2.49-2.94,2.49-5.62-.83-4.65-2.49-5.72c-1.66-1.07-4.9-1.61-9.73-1.61h-11.75v14.55Z"/>
  <path d="M452.28,97.29l29.99-77.65h27.73l29.99,77.65h-27.15l-3.18-10.28h-27.15l-3.3,10.28h-26.92ZM487.48,70.73h17.2l-8.51-26.88-8.68,26.88Z"/>
  <path d="M76.24,173.76h-20.96v-65.68h28.21l9.99,32.78c.13.45.39,1.47.78,3.05.39,1.59.95,3.78,1.67,6.58.46-2.2.88-4.12,1.27-5.78.39-1.65.73-2.89,1.03-3.72l10.24-32.91h28.16v65.68h-20.96l.2-32.33c0-1.96,0-3.87.02-5.73.02-1.86.04-3.78.07-5.77-.78,3.39-1.73,7.09-2.84,11.1l-.15.58-8.91,32.15h-16.16l-9.01-31.44c-.42-1.43-.85-3.06-1.27-4.91-.42-1.84-.98-4.34-1.67-7.49.1,2.82.17,5.25.22,7.27.05,2.02.07,3.64.07,4.86v31.7Z"/>
  <path d="M143.14,173.76l25.37-65.68h23.46l25.37,65.68h-22.97l-2.69-8.7h-22.97l-2.79,8.7h-22.77ZM172.92,151.28h14.55l-7.2-22.74-7.35,22.74Z"/>
  <path d="M272.94,173.76l-1.13-5.66c-2.61,2.53-5.76,4.41-9.45,5.64-3.69,1.23-7.98,1.85-12.88,1.85-10.32,0-18.45-3.08-24.39-9.25-5.94-6.17-8.91-14.62-8.91-25.35s3.31-19.48,9.94-25.53c6.63-6.05,15.92-9.07,27.87-9.07,9.4,0,16.99,2.13,22.75,6.38,5.76,4.25,9.18,10.24,10.26,17.97h-21.99c-.88-2.62-2.31-4.61-4.28-5.98-1.98-1.37-4.42-2.05-7.32-2.05-4.64,0-8.11,1.62-10.41,4.86-2.3,3.24-3.45,8.07-3.45,14.49,0,5.95,1.16,10.39,3.48,13.33,2.32,2.94,5.84,4.41,10.58,4.41,3.4,0,6.28-.72,8.64-2.16,2.37-1.44,3.83-3.38,4.38-5.82h-10.43v-14.05h31.69v35.99h-14.94Z"/>
  <path d="M319.62,173.76h-20.96v-65.68h28.21l9.99,32.78c.13.45.39,1.47.78,3.05.39,1.59.94,3.78,1.66,6.58.46-2.2.89-4.12,1.28-5.78.39-1.65.73-2.89,1.03-3.72l10.23-32.91h28.16v65.68h-20.96l.2-32.33c0-1.96,0-3.87.02-5.73.02-1.86.04-3.78.07-5.77-.78,3.39-1.73,7.09-2.84,11.1l-.15.58-8.91,32.15h-16.17l-9.01-31.44c-.42-1.43-.85-3.06-1.27-4.91-.43-1.84-.98-4.34-1.67-7.49.1,2.82.17,5.25.22,7.27.05,2.02.07,3.64.07,4.86v31.7Z"/>
  <path d="M388.2,140.98c0-10.7,3.35-19.14,10.07-25.33,6.71-6.18,15.86-9.28,27.45-9.28s20.68,3.09,27.38,9.28c6.69,6.18,10.04,14.63,10.04,25.33s-3.35,19.11-10.04,25.3c-6.69,6.2-15.82,9.3-27.38,9.3s-20.74-3.1-27.45-9.3c-6.71-6.2-10.07-14.63-10.07-25.3ZM411.56,140.98c0,6.21,1.14,10.78,3.43,13.69,2.28,2.91,5.86,4.37,10.72,4.37s8.37-1.45,10.63-4.35c2.25-2.9,3.38-7.47,3.38-13.71s-1.13-10.86-3.38-13.76c-2.26-2.9-5.8-4.35-10.63-4.35s-8.44,1.46-10.72,4.37c-2.29,2.91-3.43,7.49-3.43,13.73Z"/>
  <path d="M471.37,173.76v-65.68h34.53c10.81,0,18.52,1.47,23.14,4.41,4.62,2.94,6.93,7.77,6.93,14.49,0,4.01-.95,7.34-2.84,9.99-1.89,2.65-4.82,4.74-8.77,6.29,4.02.77,6.94,2.3,8.77,4.57,1.83,2.28,2.81,5.61,2.94,10.01l.39,9.14c0,.06.01.13.05.22.1,2.62.78,3.98,2.06,4.1v2.45h-23.36c-.42-1.58-.74-2.95-.96-4.12-.21-1.17-.32-2.09-.32-2.74v-6.56c0-3.39-.74-5.77-2.2-7.16-1.47-1.38-4.02-2.07-7.64-2.07h-9.85v22.65h-22.87ZM494.24,136.3h10.53c3.69,0,6.24-.45,7.64-1.36,1.4-.91,2.11-2.49,2.11-4.75s-.7-3.93-2.11-4.84c-1.4-.9-4.15-1.36-8.23-1.36h-9.94v12.31Z"/>
</svg>